#N canvas 0 0 1920 989 12;
#X obj 419 255 env~;
#X obj 425 312 change;
#X obj 285 468 *~ 0.5;
#X obj 627 119 random 4500;
#X obj 796 120 random 4500;
#X obj 796 144 / 10;
#X obj 627 143 / 10;
#X obj 627 167 int;
#X obj 796 168 int;
#X obj 426 372 b;
#X obj 436 469 catch~ \$0-fb;
#X obj 605 442 samphold~;
#X obj 605 466 lop~ 10000;
#X obj 605 514 *~ 0.85;
#X obj 606 538 +~;
#X obj 626 560 abs~;
#X obj 626 584 +~ 1;
#X obj 606 617 /~;
#X obj 606 641 *~ -1;
#X obj 914 792 throw~ \$0-fb;
#X obj 917 728 +~;
#X obj 917 752 /~ 2;
#X obj 709 375 random 98;
#X obj 709 399 + 30;
#X obj 709 423 mtof;
#X obj 709 447 phasor~;
#X obj 932 365 + 10;
#X obj 932 389 phasor~;
#X obj 953 299 random 100;
#X obj 1041 432 samphold~;
#X obj 1041 456 lop~ 10000;
#X obj 1041 504 *~ 0.85;
#X obj 1042 528 +~;
#X obj 1062 550 abs~;
#X obj 1062 574 +~ 1;
#X obj 1042 607 /~;
#X obj 1042 631 *~ -1;
#X obj 924 165 r cv_5 @hv_param;
#X obj 1051 165 r cv_6 @hv_param;
#X obj 1305 375 s cvout1 @hv_param;
#X obj 1448 375 s cvout2 @hv_param;
#X obj 1592 375 s gateout1 @hv_param;
#X obj 1587 318 change;
#X obj 1590 235 == 1;
#X obj 1056 87 r ctrl2 @hv_param;
#X obj 929 87 r ctrl1 @hv_param;
#X obj 1323 87 r ctrl4 @hv_param;
#X obj 1188 87 r ctrl3 @hv_param;
#X obj 1449 213 b;
#X obj 1073 116 * 0.99999;
#X obj 364 151 *~;
#X obj 196 95 adc~ 1 2;
#X obj 1188 115 * 15980;
#X obj 1188 139 + 20;
#X obj 317 962 dac~ 1 2, f 49;
#X obj 605 490 hip~ 3;
#X obj 1041 480 hip~ 3;
#X obj 987 215 +;
#X obj 924 189 * 0.25;
#X obj 1106 249 +;
#X obj 1051 193 * 2000;
#X obj 436 517 delwrite~ delay 450;
#X obj 606 273 delread~ delay 450;
#X obj 1042 273 delread~ delay 450;
#X obj 1720 87 r Gate2 @hv_param;
#X obj 1591 87 r Gate1 @hv_param;
#X obj 1735 378 s gateout2 @hv_param;
#X obj 1452 87 r button @hv_param;
#X obj 1591 111 sel 1;
#X obj 1503 128 sel 1;
#X obj 1590 259 b;
#X obj 1590 283 random 2;
#X obj 382 813 clip~ -1 1;
#X obj 370 929 -~;
#X obj 541 815 clip~ -1 1;
#X obj 529 931 -~;
#X obj 1689 193 tgl 19 0 empty empty empty 0 -10 0 12 #fcfcfc #000000 #000000 0 1;
#X obj 1689 217 metro 1000;
#X obj 1688 140 r toggle @hv_param;
#X obj 485 279 / 60;
#X obj 606 883 /~ 3;
#X obj 606 859 pow~ 3;
#X obj 447 857 pow~ 3;
#X obj 447 881 /~ 3;
#X obj 421 343 sel 1;
#X obj 542 766 +~;
#X obj 381 766 +~;
#X obj 419 279 >= 0.01;
#X obj 78 119 +~ 0;
#X obj 79 182 clip~ -10000 -1;
#X obj 195 181 clip~ -1 1;
#X obj 214 241 clip~ 1 10000;
#X obj 214 265 *~ -1;
#X obj 214 289 +~ 0.5;
#X obj 79 206 *~ -1;
#X obj 79 230 -~ 0.5;
#X obj 79 254 +~;
#X obj 81 353 +~;
#X obj 81 407 +~;
#X obj 929 111 * 3;
#X obj 929 135 + 1;
#X obj 436 493 *~;
#X obj 1323 111 * 127;
#X obj 1323 135 mtof;
#X obj 1323 159 osc~;
#X obj 1327 195 *~;
#X connect 0 0 79 0;
#X connect 0 0 87 0;
#X connect 1 0 41 0;
#X connect 1 0 84 0;
#X connect 2 0 85 0;
#X connect 2 0 86 0;
#X connect 3 0 6 0;
#X connect 4 0 5 0;
#X connect 5 0 8 0;
#X connect 6 0 7 0;
#X connect 7 0 62 0;
#X connect 8 0 63 0;
#X connect 9 0 3 0;
#X connect 9 0 4 0;
#X connect 9 0 22 0;
#X connect 9 0 28 0;
#X connect 10 0 101 0;
#X connect 11 0 12 0;
#X connect 12 0 55 0;
#X connect 13 0 14 0;
#X connect 14 0 15 0;
#X connect 14 0 17 0;
#X connect 15 0 16 0;
#X connect 16 0 17 1;
#X connect 17 0 18 0;
#X connect 18 0 20 0;
#X connect 18 0 86 0;
#X connect 20 0 21 0;
#X connect 21 0 19 0;
#X connect 22 0 23 0;
#X connect 23 0 24 0;
#X connect 24 0 25 0;
#X connect 24 0 26 0;
#X connect 25 0 11 1;
#X connect 26 0 27 0;
#X connect 27 0 29 1;
#X connect 28 0 26 1;
#X connect 29 0 30 0;
#X connect 30 0 56 0;
#X connect 31 0 32 0;
#X connect 32 0 33 0;
#X connect 32 0 35 0;
#X connect 33 0 34 0;
#X connect 34 0 35 1;
#X connect 35 0 36 0;
#X connect 36 0 20 1;
#X connect 36 0 85 0;
#X connect 37 0 58 0;
#X connect 38 0 60 0;
#X connect 42 0 66 0;
#X connect 42 0 48 0;
#X connect 43 0 70 0;
#X connect 44 0 49 0;
#X connect 45 0 99 0;
#X connect 45 0 105 1;
#X connect 46 0 102 0;
#X connect 47 0 52 0;
#X connect 49 0 57 0;
#X connect 50 0 88 0;
#X connect 50 0 2 0;
#X connect 51 0 0 0;
#X connect 51 0 50 0;
#X connect 51 1 0 0;
#X connect 51 1 50 0;
#X connect 52 0 53 0;
#X connect 53 0 59 0;
#X connect 55 0 13 0;
#X connect 56 0 31 0;
#X connect 57 0 101 1;
#X connect 58 0 57 1;
#X connect 59 0 12 1;
#X connect 59 0 30 1;
#X connect 60 0 59 1;
#X connect 62 0 11 0;
#X connect 63 0 29 0;
#X connect 64 0 43 0;
#X connect 65 0 68 0;
#X connect 67 0 43 0;
#X connect 67 0 69 0;
#X connect 68 0 9 0;
#X connect 69 0 48 0;
#X connect 70 0 71 0;
#X connect 71 0 42 0;
#X connect 72 0 73 0;
#X connect 72 0 82 0;
#X connect 73 0 54 0;
#X connect 74 0 75 0;
#X connect 74 0 81 0;
#X connect 75 0 54 1;
#X connect 76 0 77 0;
#X connect 76 0 40 0;
#X connect 77 0 9 0;
#X connect 78 0 76 0;
#X connect 79 0 40 0;
#X connect 79 0 39 0;
#X connect 80 0 75 1;
#X connect 81 0 80 0;
#X connect 82 0 83 0;
#X connect 83 0 73 1;
#X connect 84 0 9 0;
#X connect 85 0 74 0;
#X connect 86 0 72 0;
#X connect 87 0 1 0;
#X connect 88 0 89 0;
#X connect 88 0 90 0;
#X connect 88 0 91 0;
#X connect 89 0 94 0;
#X connect 90 0 97 1;
#X connect 91 0 92 0;
#X connect 92 0 93 0;
#X connect 93 0 98 1;
#X connect 94 0 95 0;
#X connect 95 0 96 0;
#X connect 96 0 97 0;
#X connect 97 0 98 0;
#X connect 98 0 61 0;
#X connect 99 0 100 0;
#X connect 100 0 50 1;
#X connect 101 0 61 0;
#X connect 102 0 103 0;
#X connect 103 0 104 0;
#X connect 104 0 105 0;
#X connect 105 0 86 0;
#X connect 105 0 85 0;
