#N canvas 182 182 1920 989 12;
#X obj 97 91 r Ctrl1 @hv_param;
#X obj 299 90 r Ctrl2 @hv_param;
#X obj 807 150 adc~ 1 2;
#X obj 10 799 *~;
#X obj 143 799 *~;
#X obj 59 710 cos~;
#X msg 58 651 \$1 10;
#X msg 164 656 \$1 10;
#X obj 166 621 + 0.75;
#X floatatom 164 559 5 0 0 0 - - - 0;
#X obj 190 503 / 4;
#X obj 187 479 snapshot~;
#X obj 1151 389 loadbang;
#X obj 190 527 abs;
#X obj 1151 413 metro 48;
#X obj 224 799 *~;
#X obj 357 799 *~;
#X obj 273 715 cos~;
#X msg 272 656 \$1 10;
#X msg 378 661 \$1 10;
#X obj 380 626 + 0.75;
#X floatatom 378 564 5 0 0 0 - - - 0;
#X obj 404 508 / 4;
#X obj 401 484 snapshot~;
#X obj 404 532 abs;
#X obj 470 799 *~;
#X obj 603 799 *~;
#X msg 518 656 \$1 10;
#X msg 624 661 \$1 10;
#X obj 626 626 + 0.75;
#X floatatom 624 564 5 0 0 0 - - - 0;
#X obj 650 508 / 4;
#X obj 647 484 snapshot~;
#X obj 650 532 abs;
#X obj 684 799 *~;
#X obj 817 799 *~;
#X msg 732 661 \$1 10;
#X msg 838 666 \$1 10;
#X obj 840 631 + 0.75;
#X floatatom 838 569 5 0 0 0 - - - 0;
#X obj 864 513 / 4;
#X obj 861 489 snapshot~;
#X obj 864 537 abs;
#X obj 905 800 *~;
#X obj 1038 800 *~;
#X msg 953 662 \$1 10;
#X msg 1059 667 \$1 10;
#X obj 1061 632 + 0.75;
#X floatatom 1059 570 5 0 0 0 - - - 0;
#X obj 1085 514 / 4;
#X obj 1082 490 snapshot~;
#X obj 1085 538 abs;
#X obj 587 273 bp~ 500 20;
#X obj 701 273 bp~ 1000 20;
#X obj 809 273 bp~ 2000 20;
#X obj 1098 273 bp~ 8000 20;
#X obj 1015 273 bp~ 5000 20;
#X obj 914 273 bp~ 3500 20;
#X obj 490 273 bp~ 250 20;
#X obj 1114 808 *~;
#X obj 1247 808 *~;
#X msg 1162 665 \$1 10;
#X msg 1268 670 \$1 10;
#X obj 1270 635 + 0.75;
#X floatatom 1268 573 5 0 0 0 - - - 0;
#X obj 1294 517 / 4;
#X obj 1291 493 snapshot~;
#X obj 1294 541 abs;
#X obj 1360 808 *~;
#X obj 1493 808 *~;
#X msg 1408 665 \$1 10;
#X msg 1514 670 \$1 10;
#X obj 1516 635 + 0.75;
#X floatatom 1514 573 5 0 0 0 - - - 0;
#X obj 1540 517 / 4;
#X obj 1537 493 snapshot~;
#X obj 1540 541 abs;
#X obj 1574 808 *~;
#X obj 1707 808 *~;
#X msg 1622 670 \$1 10;
#X msg 1728 675 \$1 10;
#X obj 1730 640 + 0.75;
#X floatatom 1728 578 5 0 0 0 - - - 0;
#X obj 1754 522 / 4;
#X obj 1751 498 snapshot~;
#X obj 1754 546 abs;
#X obj 1795 809 *~;
#X obj 1928 809 *~;
#X msg 1843 671 \$1 10;
#X msg 1949 676 \$1 10;
#X obj 1951 641 + 0.75;
#X floatatom 1949 579 5 0 0 0 - - - 0;
#X obj 1975 523 / 4;
#X obj 1972 499 snapshot~;
#X obj 1975 547 abs;
#X obj 887 151 *~ -1;
#X obj 1052 402 osc~;
#X obj 986 937 dac~ 1 2;
#X obj 78 481 *~;
#X obj 292 485 *~;
#X obj 538 485 *~;
#X obj 752 490 *~;
#X obj 973 491 *~;
#X obj 1182 494 *~;
#X obj 1428 494 *~;
#X obj 1642 499 *~;
#X obj 1863 500 *~;
#X obj 97 115 * 40;
#X obj 628 120 * 10000;
#X obj 628 144 + 60;
#X obj 299 114 * 1000;
#X obj 299 138 + 0.1;
#X obj 1008 36 r Cv_5 @hv_param;
#X obj 1147 36 r Cv_6 @hv_param;
#X obj 251 376 osc~;
#X obj 433 383 osc~;
#X obj 668 393 osc~;
#X obj 850 400 osc~;
#X obj 1357 417 osc~;
#X obj 1539 424 osc~;
#X obj 1727 416 osc~;
#X obj 1909 423 osc~;
#X msg 1940 390 0.9;
#X msg 1758 383 0.8;
#X msg 1570 391 0.7;
#X msg 1388 384 0.6;
#X msg 1083 369 0.5;
#X msg 881 367 0.4;
#X msg 699 360 0.3;
#X msg 464 350 0.2;
#X msg 282 343 0.1;
#X obj 1008 60 * 97;
#X obj 1008 84 + 20;
#X obj 1008 108 mtof;
#X obj 1008 132 phasor~;
#X obj 1147 60 * 1000;
#X obj 1147 84 osc~;
#X obj 1322 45 +~;
#X obj 1321 71 cos~;
#X obj 1320 102 *~;
#X obj 841 63 r Ctrl4 @hv_param;
#X obj 555 87 r Ctrl3 @hv_param;
#X obj 982 889 *~;
#X obj 1040 889 *~;
#X obj 165 715 cos;
#X obj 165 691 line;
#X obj 273 691 line;
#X obj 379 696 line;
#X obj 519 691 line;
#X obj 733 695 line;
#X obj 625 696 line;
#X obj 839 701 line;
#X obj 954 697 line;
#X obj 1060 702 line;
#X obj 1163 700 line;
#X obj 1269 705 line;
#X obj 1409 699 line;
#X obj 1515 705 line;
#X obj 1729 710 line;
#X obj 1623 705 line;
#X obj 1844 706 line;
#X obj 1952 711 line;
#X obj 1950 735 cos;
#X obj 1844 730 cos;
#X obj 1729 734 cos;
#X obj 1623 729 cos;
#X obj 1515 729 cos;
#X obj 1410 724 cos;
#X obj 1269 729 cos;
#X obj 1163 724 cos;
#X obj 1060 726 cos;
#X obj 954 721 cos;
#X obj 839 725 cos;
#X obj 734 719 cos;
#X obj 625 720 cos;
#X obj 519 715 cos;
#X obj 379 720 cos;
#X obj 59 686 line;
#X obj 1191 197 lop~;
#X obj 1184 273 hip~ 10000;
#X obj 416 273 lop~ 100;
#X connect 0 0 107 0;
#X connect 1 0 110 0;
#X connect 2 0 53 0;
#X connect 2 0 58 0;
#X connect 2 0 57 0;
#X connect 2 0 56 0;
#X connect 2 0 55 0;
#X connect 2 0 54 0;
#X connect 2 0 52 0;
#X connect 2 0 139 0;
#X connect 2 0 179 0;
#X connect 2 0 180 0;
#X connect 2 1 95 0;
#X connect 3 0 142 0;
#X connect 4 0 143 0;
#X connect 5 0 3 1;
#X connect 6 0 177 0;
#X connect 7 0 145 0;
#X connect 8 0 7 0;
#X connect 9 0 8 0;
#X connect 9 0 6 0;
#X connect 10 0 13 0;
#X connect 11 0 10 0;
#X connect 12 0 14 0;
#X connect 12 0 126 0;
#X connect 12 0 130 0;
#X connect 12 0 129 0;
#X connect 12 0 128 0;
#X connect 12 0 127 0;
#X connect 12 0 125 0;
#X connect 12 0 124 0;
#X connect 12 0 123 0;
#X connect 12 0 122 0;
#X connect 13 0 9 0;
#X connect 14 0 11 0;
#X connect 14 0 50 0;
#X connect 14 0 23 0;
#X connect 14 0 32 0;
#X connect 14 0 41 0;
#X connect 14 0 66 0;
#X connect 14 0 93 0;
#X connect 14 0 84 0;
#X connect 14 0 75 0;
#X connect 15 0 142 0;
#X connect 16 0 143 0;
#X connect 17 0 15 1;
#X connect 18 0 146 0;
#X connect 19 0 147 0;
#X connect 20 0 19 0;
#X connect 21 0 20 0;
#X connect 21 0 18 0;
#X connect 22 0 24 0;
#X connect 23 0 22 0;
#X connect 24 0 21 0;
#X connect 25 0 142 0;
#X connect 26 0 143 0;
#X connect 27 0 148 0;
#X connect 28 0 150 0;
#X connect 29 0 28 0;
#X connect 30 0 29 0;
#X connect 30 0 27 0;
#X connect 31 0 33 0;
#X connect 32 0 31 0;
#X connect 33 0 30 0;
#X connect 34 0 142 0;
#X connect 35 0 143 0;
#X connect 36 0 149 0;
#X connect 37 0 151 0;
#X connect 38 0 37 0;
#X connect 39 0 38 0;
#X connect 39 0 36 0;
#X connect 40 0 42 0;
#X connect 41 0 40 0;
#X connect 42 0 39 0;
#X connect 43 0 142 0;
#X connect 44 0 143 0;
#X connect 45 0 152 0;
#X connect 46 0 153 0;
#X connect 47 0 46 0;
#X connect 48 0 47 0;
#X connect 48 0 45 0;
#X connect 49 0 51 0;
#X connect 50 0 49 0;
#X connect 51 0 48 0;
#X connect 52 0 100 0;
#X connect 53 0 101 0;
#X connect 54 0 102 0;
#X connect 55 0 105 0;
#X connect 56 0 104 0;
#X connect 57 0 103 0;
#X connect 58 0 99 0;
#X connect 59 0 142 0;
#X connect 60 0 143 0;
#X connect 61 0 154 0;
#X connect 62 0 155 0;
#X connect 63 0 62 0;
#X connect 64 0 63 0;
#X connect 64 0 61 0;
#X connect 65 0 67 0;
#X connect 66 0 65 0;
#X connect 67 0 64 0;
#X connect 68 0 142 0;
#X connect 69 0 143 0;
#X connect 70 0 156 0;
#X connect 71 0 157 0;
#X connect 72 0 71 0;
#X connect 73 0 72 0;
#X connect 73 0 70 0;
#X connect 74 0 76 0;
#X connect 75 0 74 0;
#X connect 76 0 73 0;
#X connect 77 0 142 0;
#X connect 78 0 143 0;
#X connect 79 0 159 0;
#X connect 80 0 158 0;
#X connect 81 0 80 0;
#X connect 82 0 81 0;
#X connect 82 0 79 0;
#X connect 83 0 85 0;
#X connect 84 0 83 0;
#X connect 85 0 82 0;
#X connect 86 0 142 0;
#X connect 87 0 143 0;
#X connect 88 0 160 0;
#X connect 89 0 161 0;
#X connect 90 0 89 0;
#X connect 91 0 90 0;
#X connect 91 0 88 0;
#X connect 92 0 94 0;
#X connect 93 0 92 0;
#X connect 94 0 91 0;
#X connect 95 0 54 0;
#X connect 95 0 58 0;
#X connect 95 0 57 0;
#X connect 95 0 56 0;
#X connect 95 0 55 0;
#X connect 95 0 53 0;
#X connect 95 0 52 0;
#X connect 95 0 139 0;
#X connect 95 0 179 0;
#X connect 95 0 180 0;
#X connect 96 0 50 0;
#X connect 96 0 102 1;
#X connect 98 0 3 0;
#X connect 98 0 4 0;
#X connect 99 0 15 0;
#X connect 99 0 16 0;
#X connect 100 0 25 0;
#X connect 100 0 26 0;
#X connect 101 0 34 0;
#X connect 101 0 35 0;
#X connect 102 0 43 0;
#X connect 102 0 44 0;
#X connect 103 0 59 0;
#X connect 103 0 60 0;
#X connect 104 0 68 0;
#X connect 104 0 69 0;
#X connect 105 0 77 0;
#X connect 105 0 78 0;
#X connect 106 0 86 0;
#X connect 106 0 87 0;
#X connect 107 0 58 2;
#X connect 107 0 57 2;
#X connect 107 0 56 2;
#X connect 107 0 55 2;
#X connect 107 0 54 2;
#X connect 107 0 53 2;
#X connect 107 0 52 2;
#X connect 108 0 109 0;
#X connect 109 0 178 1;
#X connect 110 0 111 0;
#X connect 111 0 114 0;
#X connect 111 0 115 0;
#X connect 111 0 116 0;
#X connect 111 0 117 0;
#X connect 111 0 96 0;
#X connect 111 0 118 0;
#X connect 111 0 119 0;
#X connect 111 0 120 0;
#X connect 111 0 121 0;
#X connect 112 0 131 0;
#X connect 113 0 135 0;
#X connect 114 0 11 0;
#X connect 114 0 106 1;
#X connect 115 0 23 0;
#X connect 115 0 105 1;
#X connect 116 0 32 0;
#X connect 116 0 104 1;
#X connect 117 0 41 0;
#X connect 117 0 103 1;
#X connect 118 0 66 0;
#X connect 118 0 101 1;
#X connect 119 0 75 0;
#X connect 119 0 100 1;
#X connect 120 0 84 0;
#X connect 120 0 99 1;
#X connect 121 0 93 0;
#X connect 121 0 98 1;
#X connect 122 0 121 1;
#X connect 123 0 120 1;
#X connect 124 0 119 1;
#X connect 125 0 118 1;
#X connect 126 0 96 1;
#X connect 127 0 117 1;
#X connect 128 0 116 1;
#X connect 129 0 115 1;
#X connect 130 0 114 1;
#X connect 131 0 132 0;
#X connect 132 0 133 0;
#X connect 133 0 134 0;
#X connect 134 0 137 0;
#X connect 135 0 136 0;
#X connect 136 0 137 1;
#X connect 137 0 138 0;
#X connect 138 0 139 1;
#X connect 139 0 178 0;
#X connect 140 0 142 1;
#X connect 140 0 143 1;
#X connect 141 0 108 0;
#X connect 142 0 97 0;
#X connect 143 0 97 1;
#X connect 144 0 4 1;
#X connect 145 0 144 0;
#X connect 146 0 17 0;
#X connect 147 0 176 0;
#X connect 148 0 175 0;
#X connect 149 0 173 0;
#X connect 150 0 174 0;
#X connect 151 0 172 0;
#X connect 152 0 171 0;
#X connect 153 0 170 0;
#X connect 154 0 169 0;
#X connect 155 0 168 0;
#X connect 156 0 167 0;
#X connect 157 0 166 0;
#X connect 158 0 164 0;
#X connect 159 0 165 0;
#X connect 160 0 163 0;
#X connect 161 0 162 0;
#X connect 162 0 87 1;
#X connect 163 0 86 1;
#X connect 164 0 78 1;
#X connect 165 0 77 1;
#X connect 166 0 69 1;
#X connect 167 0 68 1;
#X connect 168 0 60 1;
#X connect 169 0 59 1;
#X connect 170 0 44 1;
#X connect 171 0 43 1;
#X connect 172 0 35 1;
#X connect 173 0 34 1;
#X connect 174 0 26 1;
#X connect 175 0 25 1;
#X connect 176 0 16 1;
#X connect 177 0 5 0;
#X connect 178 0 142 0;
#X connect 178 0 143 0;
#X connect 179 0 106 0;
#X connect 180 0 98 0;
