#N canvas 1917 0 1920 989 12;
#X obj 1124 253 s \$0-wave;
#X obj 1176 158 t b f;
#X obj 1224 158 t b f;
#X obj 1273 158 t b f;
#X obj 1317 158 t b f;
#X obj 1365 158 t b f;
#X obj 1414 158 t b f;
#X obj 1463 158 t b f;
#X obj 1081 157 t b f;
#X obj 1130 157 t b f;
#X obj 293 101 adc~ 1 2;
#X obj 312 516 *~ 100;
#X obj 891 49 random 127;
#X obj 983 49 random 127;
#X obj 1071 49 random 127;
#X obj 1157 49 random 127;
#X obj 1244 49 random 127;
#X obj 1336 49 random 127;
#X obj 643 49 random 127;
#X obj 729 49 random 127;
#X obj 298 668 clip~ -1 1;
#X obj 313 777 -~;
#X obj 370 735 /~ 3;
#X obj 370 711 pow~ 3;
#X obj 285 605 -~ 0.7;
#X obj 493 527 *~ 100;
#X obj 470 605 -~ 0.7;
#X obj 488 676 clip~ -1 1;
#X obj 503 785 -~;
#X obj 560 743 /~ 3;
#X obj 560 719 pow~ 3;
#X obj 302 810 samphold~;
#X obj 494 817 samphold~;
#X obj 642 778 phasor~;
#X obj 724 776 phasor~;
#X obj 724 800 *~ -1;
#X obj 71 711 tgl 19 0 empty empty empty 0 -10 0 12 #fcfcfc #000000 #000000 0 1;
#X obj 66 757 metro 50;
#X obj 481 49 random 100;
#X obj 40 556 / 100;
#X obj 566 49 random 100;
#X obj 125 558 / 100;
#X obj 85 577 +;
#X obj 85 601 / 2;
#X obj 846 792 -;
#X obj 846 768 + 1;
#X obj 823 732 t b f;
#X obj 984 862 *~;
#X obj 413 850 *~;
#X obj 1080 866 *~;
#X obj 471 848 *~;
#X obj 135 714 lop~ 1;
#X obj 143 763 snapshot~;
#X floatatom 143 787 5 0 0 0 - - - 0;
#X obj 649 940 dac~ 1 2;
#X obj 33 652 loadbang;
#X obj 571 242 env~;
#X obj 571 266 / 120;
#X obj 166 596 +;
#X obj 166 620 / 2;
#X obj 807 49 random 127;
#X obj 571 314 change;
#X obj 571 338 sel 1;
#X obj 1068 808 *~ -1;
#X obj 728 416 *~;
#X obj 736 10 bng 19 250 50 0 empty empty empty 0 -10 0 12 #fcfcfc #000000 #000000;
#X obj 1185 677 + 0.01;
#X obj 1500 703 * 0.99;
#X obj 1343 677 * 24000;
#X obj 571 290 >=;
#X obj 1192 763 int;
#X obj 1192 787 sel 0;
#X msg 1179 820 3;
#X msg 1229 820 5;
#X obj 1313 807 * 100;
#X obj 1323 766 change;
#X obj 1450 763 change;
#X obj 1450 787 + 1.001;
#X obj 1450 811 * -1;
#X obj 1493 665 change;
#X obj 1577 764 change;
#X obj 409 106 delread~ delay 500;
#X obj 798 621 delwrite~ delay 500;
#X obj 1212 253 table \$0-wave 9;
#X obj 1123 228 pack 0 0 0 0 0 0 0 0 0, f 66;
#X obj 1183 641 r Ctrl1 @hv_param;
#X obj 1341 641 r Ctrl2 @hv_param;
#X obj 1493 641 r Ctrl3 @hv_param;
#X obj 1651 641 r Ctrl4 @hv_param;
#X obj 1581 737 r Cv_8 @hv_param;
#X obj 1450 739 r Cv_7 @hv_param;
#X obj 1323 737 r Cv_6 @hv_param;
#X obj 1192 739 r Cv_5 @hv_param;
#X obj 107 862 s CvOut1 @hv_param;
#X obj 1003 379 s CvOut2 @hv_param;
#X obj 862 212 random;
#X obj 862 236 /;
#X obj 862 260 *;
#X obj 980 209 * 10000;
#X obj 312 540 tabread~ \$0-wave;
#X obj 493 551 tabread~ \$0-wave;
#X obj 810 308 tgl 19 0 empty empty empty 0 -10 0 12 #fcfcfc #000000 #000000 0 1;
#N canvas 0 50 450 250 (subpatch) 0;
#X array \$0-wave 9 float 3;
#A 0 85 90 0.622047 0.212598 109 106 59 113 89;
#X coords 0 127 9 0 200 140 1 0 0;
#X restore 1390 295 graph;
#X connect 1 0 84 0;
#X connect 1 1 84 2;
#X connect 2 0 84 0;
#X connect 2 1 84 3;
#X connect 3 0 84 0;
#X connect 3 1 84 4;
#X connect 4 0 84 0;
#X connect 4 1 84 5;
#X connect 5 0 84 0;
#X connect 5 1 84 6;
#X connect 6 0 84 0;
#X connect 6 1 84 7;
#X connect 7 0 84 0;
#X connect 7 1 84 8;
#X connect 8 0 84 0;
#X connect 8 1 84 0;
#X connect 9 0 84 0;
#X connect 9 1 84 1;
#X connect 10 0 11 0;
#X connect 10 0 47 0;
#X connect 10 0 56 0;
#X connect 10 0 25 0;
#X connect 10 0 63 0;
#X connect 10 0 82 0;
#X connect 10 1 56 0;
#X connect 10 1 25 0;
#X connect 10 1 11 0;
#X connect 10 1 47 0;
#X connect 10 1 63 0;
#X connect 10 1 82 0;
#X connect 11 0 99 0;
#X connect 12 0 2 0;
#X connect 13 0 3 0;
#X connect 14 0 4 0;
#X connect 15 0 5 0;
#X connect 16 0 6 0;
#X connect 17 0 7 0;
#X connect 18 0 8 0;
#X connect 19 0 9 0;
#X connect 20 0 21 0;
#X connect 20 0 23 0;
#X connect 21 0 31 0;
#X connect 22 0 21 1;
#X connect 23 0 22 0;
#X connect 24 0 20 0;
#X connect 25 0 100 0;
#X connect 26 0 27 0;
#X connect 27 0 28 0;
#X connect 27 0 30 0;
#X connect 28 0 32 0;
#X connect 29 0 28 1;
#X connect 30 0 29 0;
#X connect 31 0 48 0;
#X connect 32 0 50 0;
#X connect 33 0 31 1;
#X connect 34 0 35 0;
#X connect 35 0 32 1;
#X connect 36 0 37 0;
#X connect 37 0 52 0;
#X connect 38 0 39 0;
#X connect 39 0 42 0;
#X connect 40 0 41 0;
#X connect 41 0 42 1;
#X connect 42 0 43 0;
#X connect 43 0 33 1;
#X connect 43 0 34 1;
#X connect 43 0 58 0;
#X connect 44 0 50 1;
#X connect 44 0 48 1;
#X connect 45 0 44 0;
#X connect 46 0 45 0;
#X connect 46 1 44 1;
#X connect 46 1 47 1;
#X connect 46 1 49 1;
#X connect 47 0 54 0;
#X connect 48 0 54 0;
#X connect 49 0 54 1;
#X connect 50 0 54 1;
#X connect 51 0 52 0;
#X connect 52 0 53 0;
#X connect 53 0 93 0;
#X connect 55 0 36 0;
#X connect 56 0 57 0;
#X connect 57 0 58 1;
#X connect 57 0 69 0;
#X connect 58 0 59 0;
#X connect 59 0 51 0;
#X connect 60 0 1 0;
#X connect 61 0 62 0;
#X connect 61 0 101 0;
#X connect 62 0 65 0;
#X connect 63 0 49 0;
#X connect 64 0 82 0;
#X connect 65 0 38 0;
#X connect 65 0 60 0;
#X connect 65 0 40 0;
#X connect 65 0 19 0;
#X connect 65 0 18 0;
#X connect 65 0 17 0;
#X connect 65 0 16 0;
#X connect 65 0 15 0;
#X connect 65 0 14 0;
#X connect 65 0 13 0;
#X connect 65 0 12 0;
#X connect 65 0 95 0;
#X connect 66 0 69 1;
#X connect 66 0 98 0;
#X connect 67 0 64 1;
#X connect 68 0 34 0;
#X connect 68 0 33 0;
#X connect 69 0 61 0;
#X connect 70 0 71 0;
#X connect 71 0 72 0;
#X connect 71 1 73 0;
#X connect 72 0 23 1;
#X connect 72 0 22 1;
#X connect 72 0 30 1;
#X connect 72 0 29 1;
#X connect 73 0 30 1;
#X connect 73 0 29 1;
#X connect 73 0 23 1;
#X connect 73 0 22 1;
#X connect 75 0 74 0;
#X connect 76 0 77 0;
#X connect 77 0 78 0;
#X connect 78 0 51 1;
#X connect 79 0 67 0;
#X connect 80 0 64 1;
#X connect 81 0 64 0;
#X connect 81 0 11 0;
#X connect 81 0 25 0;
#X connect 84 0 0 0;
#X connect 85 0 66 0;
#X connect 86 0 68 0;
#X connect 87 0 79 0;
#X connect 88 0 46 0;
#X connect 89 0 80 0;
#X connect 90 0 76 0;
#X connect 91 0 75 0;
#X connect 92 0 70 0;
#X connect 95 0 96 0;
#X connect 96 0 97 0;
#X connect 97 0 81 0;
#X connect 98 0 97 1;
#X connect 98 0 95 1;
#X connect 98 0 96 1;
#X connect 99 0 24 0;
#X connect 100 0 26 0;
#X connect 101 0 94 0;
