#N canvas 52 52 1920 989 12;
#X obj 463 174 r Ctrl3 @hv_param;
#X obj 332 174 r Ctrl2 @hv_param;
#X obj 192 174 r Ctrl1 @hv_param;
#X obj 597 174 r Ctrl4 @hv_param;
#X obj 366 543 r Ctrl3 @hv_param;
#X obj 227 543 r Ctrl2 @hv_param;
#X obj 88 543 r Ctrl1 @hv_param;
#X obj 513 543 r Ctrl4 @hv_param;
#X obj 1661 253 s cvout_1 @hvparam;
#X obj 42 325 s cvout_2 @hvparam;
#X obj 1188 32 r Gate1 @hv_param;
#X obj 1379 32 r Gate2 @hv_param;
#X obj 854 770 s GateOut2 @hv_param;
#X obj 1188 119 b;
#X obj 100 28 b;
#X obj 100 102 % 2;
#X obj 133 769 r cv_5 @hv_param;
#X obj 272 769 r cv_6 @hv_param;
#X obj 547 769 r cv_8 @hv_param;
#X obj 414 769 r cv_7 @hv_param;
#X obj 132 586 spigot;
#X obj 226 214 == 0;
#X obj 186 241 spigot;
#X obj 408 214 == 0;
#X obj 368 241 spigot;
#X obj 535 214 == 0;
#X obj 495 241 spigot;
#X obj 658 214 == 0;
#X obj 618 241 spigot;
#X obj 245 586 spigot;
#X obj 398 586 spigot;
#X obj 524 586 spigot;
#X obj 247 616 f;
#X obj 419 616 f;
#X obj 535 616 f;
#X obj 1047 32 r button @hv_param;
#X obj 97 2 r toggle @hvparam;
#X obj 100 52 f;
#X obj 100 76 + 1;
#X obj 158 825 osc~;
#X text 247 514 4 delay lines panned to different panning;
#X obj 1475 836 *~;
#X obj 1534 836 *~;
#X obj 1379 56 random 4;
#X obj 1188 191 % 2;
#X obj 1188 143 f;
#X obj 1188 167 + 1;
#X obj 1144 243 f;
#X obj 1144 267 + 1;
#X obj 1186 215 sel 1;
#X obj 1106 365 == 0;
#X obj 1165 365 == 1;
#X obj 1232 365 == 2;
#X obj 1291 365 == 3;
#X obj 1369 365 == 4;
#X obj 1428 365 == 5;
#X obj 1495 365 == 6;
#X obj 1554 365 == 7;
#X obj 1106 413 line;
#X obj 1165 413 line;
#X obj 1231 412 line;
#X obj 1291 413 line;
#X obj 1369 413 line;
#X obj 1428 413 line;
#X obj 1495 413 line;
#X obj 1555 413 line;
#X msg 1106 389 \$1 200;
#X msg 1165 389 \$1 200;
#X msg 1232 389 \$1 200;
#X msg 1292 389 \$1 200;
#X msg 1369 389 \$1 200;
#X msg 1428 389 \$1 200;
#X msg 1495 389 \$1 200;
#X msg 1554 389 \$1 200;
#X obj 1145 291 % 8;
#X floatatom 1106 437 5 0 0 0 - - - 0;
#X floatatom 1165 437 5 0 0 0 - - - 0;
#X floatatom 1231 436 5 0 0 0 - - - 0;
#X floatatom 1291 437 5 0 0 0 - - - 0;
#X floatatom 1369 437 5 0 0 0 - - - 0;
#X floatatom 1428 437 5 0 0 0 - - - 0;
#X floatatom 1495 437 5 0 0 0 - - - 0;
#X floatatom 1555 437 5 0 0 0 - - - 0;
#N canvas -258 82 1920 989 \$0-panner 0;
#X obj 707 285 inlet~;
#X obj 780 243 inlet;
#X obj 639 604 *~;
#X obj 654 658 outlet~;
#X obj 772 606 *~;
#X obj 779 658 outlet~;
#X obj 688 491 vline~;
#X obj 688 515 cos~;
#X msg 687 456 \$1 10;
#X obj 794 496 vline~;
#X obj 794 520 cos~;
#X msg 793 461 \$1 10;
#X obj 795 426 + 0.75;
#X floatatom 793 364 5 0 0 0 - - - 0;
#X obj 819 308 / 4;
#X obj 819 332 abs;
#X connect 0 0 2 0;
#X connect 0 0 4 0;
#X connect 1 0 14 0;
#X connect 2 0 3 0;
#X connect 4 0 5 0;
#X connect 6 0 7 0;
#X connect 7 0 2 1;
#X connect 8 0 6 0;
#X connect 9 0 10 0;
#X connect 10 0 4 1;
#X connect 11 0 9 0;
#X connect 12 0 11 0;
#X connect 13 0 12 0;
#X connect 13 0 8 0;
#X connect 14 0 15 0;
#X connect 15 0 13 0;
#X restore 988 708 pd \$0-panner;
#X msg 1056 674;
#N canvas -258 82 1920 989 \$0-panner 0;
#X obj 707 285 inlet~;
#X obj 780 243 inlet;
#X obj 639 604 *~;
#X obj 654 658 outlet~;
#X obj 772 606 *~;
#X obj 779 658 outlet~;
#X obj 688 491 vline~;
#X obj 688 515 cos~;
#X msg 687 456 \$1 10;
#X obj 794 496 vline~;
#X obj 794 520 cos~;
#X msg 793 461 \$1 10;
#X obj 795 426 + 0.75;
#X floatatom 793 364 5 0 0 0 - - - 0;
#X obj 819 308 / 4;
#X obj 819 332 abs;
#X connect 0 0 2 0;
#X connect 0 0 4 0;
#X connect 1 0 14 0;
#X connect 2 0 3 0;
#X connect 4 0 5 0;
#X connect 6 0 7 0;
#X connect 7 0 2 1;
#X connect 8 0 6 0;
#X connect 9 0 10 0;
#X connect 10 0 4 1;
#X connect 11 0 9 0;
#X connect 12 0 11 0;
#X connect 13 0 12 0;
#X connect 13 0 8 0;
#X connect 14 0 15 0;
#X connect 15 0 13 0;
#X restore 1104 708 pd \$0-panner;
#X msg 1172 674;
#N canvas -258 82 1920 989 \$0-panner 0;
#X obj 707 285 inlet~;
#X obj 780 243 inlet;
#X obj 639 604 *~;
#X obj 654 658 outlet~;
#X obj 772 606 *~;
#X obj 779 658 outlet~;
#X obj 688 491 vline~;
#X obj 688 515 cos~;
#X msg 687 456 \$1 10;
#X obj 794 496 vline~;
#X obj 794 520 cos~;
#X msg 793 461 \$1 10;
#X obj 795 426 + 0.75;
#X floatatom 793 364 5 0 0 0 - - - 0;
#X obj 819 308 / 4;
#X obj 819 332 abs;
#X connect 0 0 2 0;
#X connect 0 0 4 0;
#X connect 1 0 14 0;
#X connect 2 0 3 0;
#X connect 4 0 5 0;
#X connect 6 0 7 0;
#X connect 7 0 2 1;
#X connect 8 0 6 0;
#X connect 9 0 10 0;
#X connect 10 0 4 1;
#X connect 11 0 9 0;
#X connect 12 0 11 0;
#X connect 13 0 12 0;
#X connect 13 0 8 0;
#X connect 14 0 15 0;
#X connect 15 0 13 0;
#X restore 1224 708 pd \$0-panner;
#X msg 1292 674;
#N canvas -258 82 1920 989 \$0-panner 0;
#X obj 707 285 inlet~;
#X obj 780 243 inlet;
#X obj 639 604 *~;
#X obj 654 658 outlet~;
#X obj 772 606 *~;
#X obj 779 658 outlet~;
#X obj 688 491 vline~;
#X obj 688 515 cos~;
#X msg 687 456 \$1 10;
#X obj 794 496 vline~;
#X obj 794 520 cos~;
#X msg 793 461 \$1 10;
#X obj 795 426 + 0.75;
#X floatatom 793 364 5 0 0 0 - - - 0;
#X obj 819 308 / 4;
#X obj 819 332 abs;
#X connect 0 0 2 0;
#X connect 0 0 4 0;
#X connect 1 0 14 0;
#X connect 2 0 3 0;
#X connect 4 0 5 0;
#X connect 6 0 7 0;
#X connect 7 0 2 1;
#X connect 8 0 6 0;
#X connect 9 0 10 0;
#X connect 10 0 4 1;
#X connect 11 0 9 0;
#X connect 12 0 11 0;
#X connect 13 0 12 0;
#X connect 13 0 8 0;
#X connect 14 0 15 0;
#X connect 15 0 13 0;
#X restore 1340 708 pd \$0-panner;
#X msg 1408 674;
#N canvas -258 82 1920 989 \$0-panner 0;
#X obj 707 285 inlet~;
#X obj 780 243 inlet;
#X obj 639 604 *~;
#X obj 654 658 outlet~;
#X obj 772 606 *~;
#X obj 779 658 outlet~;
#X obj 688 491 vline~;
#X obj 688 515 cos~;
#X msg 687 456 \$1 10;
#X obj 794 496 vline~;
#X obj 794 520 cos~;
#X msg 793 461 \$1 10;
#X obj 795 426 + 0.75;
#X floatatom 793 364 5 0 0 0 - - - 0;
#X obj 819 308 / 4;
#X obj 819 332 abs;
#X connect 0 0 2 0;
#X connect 0 0 4 0;
#X connect 1 0 14 0;
#X connect 2 0 3 0;
#X connect 4 0 5 0;
#X connect 6 0 7 0;
#X connect 7 0 2 1;
#X connect 8 0 6 0;
#X connect 9 0 10 0;
#X connect 10 0 4 1;
#X connect 11 0 9 0;
#X connect 12 0 11 0;
#X connect 13 0 12 0;
#X connect 13 0 8 0;
#X connect 14 0 15 0;
#X connect 15 0 13 0;
#X restore 1455 709 pd \$0-panner;
#X msg 1523 675;
#N canvas -258 82 1920 989 \$0-panner 0;
#X obj 707 285 inlet~;
#X obj 780 243 inlet;
#X obj 639 604 *~;
#X obj 654 658 outlet~;
#X obj 772 606 *~;
#X obj 779 658 outlet~;
#X obj 688 491 vline~;
#X obj 688 515 cos~;
#X msg 687 456 \$1 10;
#X obj 794 496 vline~;
#X obj 794 520 cos~;
#X msg 793 461 \$1 10;
#X obj 795 426 + 0.75;
#X floatatom 793 364 5 0 0 0 - - - 0;
#X obj 819 308 / 4;
#X obj 819 332 abs;
#X connect 0 0 2 0;
#X connect 0 0 4 0;
#X connect 1 0 14 0;
#X connect 2 0 3 0;
#X connect 4 0 5 0;
#X connect 6 0 7 0;
#X connect 7 0 2 1;
#X connect 8 0 6 0;
#X connect 9 0 10 0;
#X connect 10 0 4 1;
#X connect 11 0 9 0;
#X connect 12 0 11 0;
#X connect 13 0 12 0;
#X connect 13 0 8 0;
#X connect 14 0 15 0;
#X connect 15 0 13 0;
#X restore 1571 709 pd \$0-panner;
#X msg 1639 675;
#N canvas -258 82 1920 989 \$0-panner 0;
#X obj 707 285 inlet~;
#X obj 780 243 inlet;
#X obj 639 604 *~;
#X obj 654 658 outlet~;
#X obj 772 606 *~;
#X obj 779 658 outlet~;
#X obj 688 491 vline~;
#X obj 688 515 cos~;
#X msg 687 456 \$1 10;
#X obj 794 496 vline~;
#X obj 794 520 cos~;
#X msg 793 461 \$1 10;
#X obj 795 426 + 0.75;
#X floatatom 793 364 5 0 0 0 - - - 0;
#X obj 819 308 / 4;
#X obj 819 332 abs;
#X connect 0 0 2 0;
#X connect 0 0 4 0;
#X connect 1 0 14 0;
#X connect 2 0 3 0;
#X connect 4 0 5 0;
#X connect 6 0 7 0;
#X connect 7 0 2 1;
#X connect 8 0 6 0;
#X connect 9 0 10 0;
#X connect 10 0 4 1;
#X connect 11 0 9 0;
#X connect 12 0 11 0;
#X connect 13 0 12 0;
#X connect 13 0 8 0;
#X connect 14 0 15 0;
#X connect 15 0 13 0;
#X restore 1691 709 pd \$0-panner;
#X msg 1759 675;
#N canvas -258 82 1920 989 \$0-panner 0;
#X obj 707 285 inlet~;
#X obj 780 243 inlet;
#X obj 639 604 *~;
#X obj 654 658 outlet~;
#X obj 772 606 *~;
#X obj 779 658 outlet~;
#X obj 688 491 vline~;
#X obj 688 515 cos~;
#X msg 687 456 \$1 10;
#X obj 794 496 vline~;
#X obj 794 520 cos~;
#X msg 793 461 \$1 10;
#X obj 795 426 + 0.75;
#X floatatom 793 364 5 0 0 0 - - - 0;
#X obj 819 308 / 4;
#X obj 819 332 abs;
#X connect 0 0 2 0;
#X connect 0 0 4 0;
#X connect 1 0 14 0;
#X connect 2 0 3 0;
#X connect 4 0 5 0;
#X connect 6 0 7 0;
#X connect 7 0 2 1;
#X connect 8 0 6 0;
#X connect 9 0 10 0;
#X connect 10 0 4 1;
#X connect 11 0 9 0;
#X connect 12 0 11 0;
#X connect 13 0 12 0;
#X connect 13 0 8 0;
#X connect 14 0 15 0;
#X connect 15 0 13 0;
#X restore 1807 709 pd \$0-panner;
#X msg 1875 675;
#X obj 261 810 > 0;
#X obj 382 808 > 0;
#X obj 532 809 > 0;
#X obj 660 811 > 0;
#X obj 239 840 *~;
#X obj 362 839 *~;
#X obj 517 840 *~;
#X obj 640 839 *~;
#X obj 963 68 adc~ 1 2;
#X obj 869 125 delwrite~ \$0-left 500;
#X obj 1024 125 delwrite~ \$0-right 500;
#X obj 1496 940 dac~ 1 2;
#X msg 820 707 1;
#X obj 860 664 b;
#X msg 860 711 0;
#X obj 860 735 f;
#X obj 860 687 del 80;
#X connect 0 0 26 0;
#X connect 1 0 24 0;
#X connect 2 0 22 0;
#X connect 3 0 28 0;
#X connect 4 0 30 0;
#X connect 5 0 29 0;
#X connect 6 0 20 0;
#X connect 7 0 31 0;
#X connect 10 0 13 0;
#X connect 11 0 43 0;
#X connect 13 0 45 0;
#X connect 14 0 37 0;
#X connect 15 0 20 1;
#X connect 15 0 21 0;
#X connect 15 0 23 0;
#X connect 15 0 27 0;
#X connect 15 0 25 0;
#X connect 15 0 29 1;
#X connect 15 0 31 1;
#X connect 15 0 30 1;
#X connect 15 0 9 0;
#X connect 16 0 99 0;
#X connect 16 0 39 0;
#X connect 17 0 100 0;
#X connect 17 0 104 0;
#X connect 18 0 102 0;
#X connect 18 0 106 1;
#X connect 19 0 101 0;
#X connect 19 0 105 0;
#X connect 21 0 22 1;
#X connect 23 0 24 1;
#X connect 25 0 26 1;
#X connect 27 0 28 1;
#X connect 29 0 32 0;
#X connect 30 0 33 0;
#X connect 31 0 34 0;
#X connect 35 0 13 0;
#X connect 36 0 14 0;
#X connect 37 0 38 0;
#X connect 38 0 15 0;
#X connect 38 0 37 1;
#X connect 39 0 103 0;
#X connect 41 0 110 0;
#X connect 42 0 110 1;
#X connect 43 0 74 0;
#X connect 44 0 49 0;
#X connect 45 0 46 0;
#X connect 46 0 44 0;
#X connect 46 0 45 1;
#X connect 47 0 48 0;
#X connect 48 0 47 1;
#X connect 48 0 74 0;
#X connect 49 0 47 0;
#X connect 50 0 66 0;
#X connect 51 0 67 0;
#X connect 52 0 68 0;
#X connect 53 0 69 0;
#X connect 54 0 70 0;
#X connect 55 0 71 0;
#X connect 56 0 72 0;
#X connect 57 0 73 0;
#X connect 58 0 75 0;
#X connect 59 0 76 0;
#X connect 60 0 77 0;
#X connect 61 0 78 0;
#X connect 62 0 79 0;
#X connect 63 0 80 0;
#X connect 64 0 81 0;
#X connect 65 0 82 0;
#X connect 66 0 58 0;
#X connect 67 0 59 0;
#X connect 68 0 60 0;
#X connect 69 0 61 0;
#X connect 70 0 62 0;
#X connect 71 0 63 0;
#X connect 72 0 64 0;
#X connect 73 0 65 0;
#X connect 74 0 51 0;
#X connect 74 0 57 0;
#X connect 74 0 56 0;
#X connect 74 0 55 0;
#X connect 74 0 54 0;
#X connect 74 0 53 0;
#X connect 74 0 52 0;
#X connect 74 0 50 0;
#X connect 74 0 112 0;
#X connect 83 0 41 0;
#X connect 83 1 42 0;
#X connect 84 0 83 1;
#X connect 85 0 41 0;
#X connect 85 1 42 0;
#X connect 86 0 85 1;
#X connect 87 0 41 0;
#X connect 87 1 42 0;
#X connect 88 0 87 1;
#X connect 89 0 41 0;
#X connect 89 1 42 0;
#X connect 90 0 89 1;
#X connect 91 0 41 0;
#X connect 91 1 42 0;
#X connect 92 0 91 1;
#X connect 93 0 41 0;
#X connect 93 1 42 0;
#X connect 94 0 93 1;
#X connect 95 0 41 0;
#X connect 95 1 42 0;
#X connect 96 0 95 1;
#X connect 97 0 41 0;
#X connect 97 1 42 0;
#X connect 98 0 97 1;
#X connect 99 0 103 1;
#X connect 100 0 104 1;
#X connect 101 0 105 1;
#X connect 102 0 106 1;
#X connect 107 0 108 0;
#X connect 107 1 109 0;
#X connect 111 0 114 0;
#X connect 112 0 111 0;
#X connect 112 0 115 0;
#X connect 113 0 114 0;
#X connect 114 0 12 0;
#X connect 115 0 113 0;
