#N canvas 78 78 1920 989 12;
#X obj 463 174 r Ctrl3 @hv_param;
#X obj 332 174 r Ctrl2 @hv_param;
#X obj 192 174 r Ctrl1 @hv_param;
#X obj 597 174 r Ctrl4 @hv_param;
#X obj 366 543 r Ctrl3 @hv_param;
#X obj 227 543 r Ctrl2 @hv_param;
#X obj 88 543 r Ctrl1 @hv_param;
#X obj 513 543 r Ctrl4 @hv_param;
#X obj 700 742 s cvout_1 @hvparam;
#X obj 31 261 s cvout_2 @hvparam;
#X obj 744 25 r Gate1 @hv_param;
#X obj 914 40 r Gate2 @hv_param;
#X obj 909 859 s GateOut2 @hv_param;
#X obj 744 47 b;
#X obj 744 71 + 1;
#X obj 744 95 f;
#X obj 744 119 % 2;
#X obj 100 28 b;
#X obj 100 102 % 2;
#X obj 87 510 r cv_5 @hv_param;
#X obj 172 144 r cv_6 @hv_param;
#X obj 468 143 r cv_8 @hv_param;
#X obj 335 145 r cv_7 @hv_param;
#X obj 132 586 spigot;
#X obj 226 214 == 0;
#X obj 186 241 spigot;
#X obj 408 214 == 0;
#X obj 368 241 spigot;
#X obj 535 214 == 0;
#X obj 495 241 spigot;
#X obj 658 214 == 0;
#X obj 618 241 spigot;
#X obj 245 586 spigot;
#X obj 398 586 spigot;
#X obj 524 586 spigot;
#X obj 247 616 f;
#X obj 419 616 f;
#X obj 535 616 f;
#X text 538 506 morph;
#X obj 611 25 r button @hv_param;
#X obj 97 2 r toggle @hvparam;
#X obj 100 52 f;
#X obj 100 76 + 1;
#X connect 0 0 29 0;
#X connect 1 0 27 0;
#X connect 2 0 25 0;
#X connect 3 0 31 0;
#X connect 4 0 33 0;
#X connect 5 0 32 0;
#X connect 6 0 23 0;
#X connect 7 0 34 0;
#X connect 10 0 13 0;
#X connect 13 0 14 0;
#X connect 14 0 15 0;
#X connect 15 0 14 1;
#X connect 15 0 16 0;
#X connect 17 0 41 0;
#X connect 18 0 23 1;
#X connect 18 0 24 0;
#X connect 18 0 26 0;
#X connect 18 0 30 0;
#X connect 18 0 28 0;
#X connect 18 0 32 1;
#X connect 18 0 34 1;
#X connect 18 0 33 1;
#X connect 18 0 9 0;
#X connect 24 0 25 1;
#X connect 26 0 27 1;
#X connect 28 0 29 1;
#X connect 30 0 31 1;
#X connect 32 0 35 0;
#X connect 33 0 36 0;
#X connect 34 0 37 0;
#X connect 40 0 17 0;
#X connect 41 0 42 0;
#X connect 42 0 18 0;
#X connect 42 0 41 1;
