#N canvas 182 182 1920 989 12;
#X obj 431 224 env~;
#X obj 428 281 change;
#X obj 159 616 *~ 0.5;
#X obj 639 88 random 4500;
#X obj 808 89 random 4500;
#X obj 808 113 / 10;
#X obj 639 112 / 10;
#X obj 639 136 int;
#X obj 808 137 int;
#X obj 438 341 b;
#X obj 448 438 catch~ \$0-fb;
#X obj 617 411 samphold~;
#X obj 617 435 lop~ 10000;
#X obj 618 507 +~;
#X obj 638 529 abs~;
#X obj 638 553 +~ 1;
#X obj 618 586 /~;
#X obj 618 610 *~ -1;
#X obj 796 633 throw~ \$0-fb;
#X obj 799 569 +~;
#X obj 799 593 /~ 2;
#X obj 721 344 random 98;
#X obj 721 368 + 30;
#X obj 721 392 mtof;
#X obj 721 416 phasor~;
#X obj 944 334 + 10;
#X obj 944 358 phasor~;
#X obj 965 268 random 100;
#X obj 1053 401 samphold~;
#X obj 1053 425 lop~ 10000;
#X obj 1054 497 +~;
#X obj 1074 519 abs~;
#X obj 1074 543 +~ 1;
#X obj 1054 576 /~;
#X obj 1054 600 *~ -1;
#X obj 1225 416 sel 0 1 2, f 52;
#X obj 1264 582 osc~;
#X obj 1150 841 *~;
#X obj 1728 574 line~;
#X obj 1797 494 del 50;
#X obj 1384 584 osc~;
#X obj 1524 588 osc~;
#X msg 1730 521 0 50;
#X msg 1797 518 0.05 10000;
#X obj 1048 836 *~;
#X obj 1048 860 *~ 0.5;
#X obj 1149 865 *~ 0.5;
#X obj 1143 561 random 100;
#X obj 1143 585 / 100;
#X obj 1302 579 random 100;
#X obj 1302 603 / 100;
#X obj 1426 582 random 100;
#X obj 1426 606 / 100;
#X obj 714 702 r cv_5 @hv_param;
#X obj 913 737 r cv_7 @hv_param;
#X obj 1317 344 s cvout1 @hv_param;
#X obj 1460 344 s cvout2 @hv_param;
#X obj 1604 344 s gateout1 @hv_param;
#X obj 1599 287 change;
#X obj 1602 204 == 1;
#X obj 1068 56 r ctrl2 @hv_param;
#X obj 937 33 r ctrl1 @hv_param;
#X obj 1336 56 r ctrl4 @hv_param;
#X obj 1200 56 r ctrl3 @hv_param;
#X obj 1461 182 b;
#X obj 1068 84 * 0.99999;
#X obj 208 64 adc~ 1 2;
#X obj 1200 84 * 15980;
#X obj 1200 108 + 20;
#X obj 393 735 *~;
#X obj 554 735 *~;
#X obj 329 931 dac~ 1 2, f 49;
#X obj 1336 88 * 1;
#X obj 617 459 hip~ 3;
#X obj 1053 449 hip~ 3;
#X obj 448 486 delwrite~ delay 450;
#X obj 1048 806 *~;
#X obj 1181 808 *~;
#X obj 1097 769 cos~;
#X msg 1096 710 \$1 10;
#X obj 1203 769 cos~;
#X msg 1202 715 \$1 10;
#X obj 1204 680 + 0.75;
#X obj 1207 627 / 4;
#X obj 1207 651 abs;
#X obj 1203 745 line~;
#X obj 1097 745 line~;
#X obj 1078 635 *~ 1;
#X obj 1236 809 *~;
#X obj 1369 811 *~;
#X obj 1285 769 cos~;
#X msg 1284 713 \$1 10;
#X obj 1391 769 cos~;
#X msg 1390 718 \$1 10;
#X obj 1392 683 + 0.75;
#X obj 1395 630 / 4;
#X obj 1395 654 abs;
#X obj 1391 745 line~;
#X obj 1285 745 line~;
#X obj 1266 638 *~ 1;
#X obj 1563 817 *~;
#X obj 1696 819 *~;
#X obj 1612 775 cos~;
#X msg 1611 721 \$1 10;
#X obj 1718 775 cos~;
#X msg 1717 726 \$1 10;
#X obj 1719 691 + 0.75;
#X obj 1722 638 / 4;
#X obj 1722 662 abs;
#X obj 1718 751 line~;
#X obj 1612 751 line~;
#X obj 1593 646 *~ 1;
#X obj 618 242 delread~ delay 450;
#X obj 1054 242 delread~ delay 450;
#X obj 1732 56 r Gate2 @hv_param;
#X obj 1767 344 s gateout2 @hv_param;
#X obj 431 248 > 70;
#X obj 1464 56 r button @hv_param;
#X obj 1603 80 sel 1;
#X obj 1515 97 sel 1;
#X obj 1602 228 b;
#X obj 1602 252 random 2;
#X obj 394 782 clip~ -1 1;
#X obj 394 859 -~;
#X obj 553 784 clip~ -1 1;
#X obj 553 861 -~;
#X obj 1697 228 tgl 19 0 empty empty empty 0 -10 0 12 #fcfcfc #000000 #000000 0 1;
#X obj 1697 252 metro 1000;
#X obj 1372 314 / 60;
#X obj 618 852 /~ 3;
#X obj 618 828 pow~ 3;
#X obj 459 826 pow~ 3;
#X obj 459 850 /~ 3;
#X obj 433 312 sel 1;
#X obj 1603 56 r Gate1_Trig @hv_param;
#X obj 1698 174 r toggle_press @hv_param;
#X obj 1227 275 b;
#X obj 1227 299 random 3;
#X obj 1220 479 random 49;
#X obj 1220 503 + 20;
#X obj 1309 479 random 49;
#X obj 1309 503 + 20;
#X obj 1434 479 random 49;
#X obj 1434 503 + 20;
#X obj 1220 527 mtof;
#X obj 1434 527 mtof;
#X obj 1309 527 mtof;
#X obj 60 281 clip~ -20 -1;
#X obj 60 305 *~ -1;
#X obj 160 287 clip~ -1 1;
#X obj 286 280 clip~ 1 20;
#X obj 286 304 *~ -1;
#X obj 151 387 +~;
#X obj 151 411 *~ 1;
#X obj 57 460 clip~ -20 -1;
#X obj 57 484 *~ -1;
#X obj 157 466 clip~ -1 1;
#X obj 283 459 clip~ 1 20;
#X obj 283 483 *~ -1;
#X obj 163 169 *~;
#X obj 937 57 * 3;
#X obj 938 100 + 1;
#X obj 168 527 +~;
#X obj 448 462 *~;
#X obj 1118 218 f;
#X obj 1063 108 f;
#X obj 1698 198 change;
#X obj 817 953 *~;
#X obj 950 955 *~;
#X obj 866 911 cos~;
#X msg 865 857 \$1 10;
#X obj 972 911 cos~;
#X msg 971 862 \$1 10;
#X obj 973 827 + 0.75;
#X obj 976 774 / 4;
#X obj 976 798 abs;
#X obj 972 887 line~;
#X obj 866 887 line~;
#X obj 914 808 *~ 1;
#X obj 714 750 + 24;
#X obj 714 726 * 103;
#X obj 714 774 mtof;
#X obj 714 798 phasor~;
#X obj 714 822 +~;
#X obj 714 846 cos~;
#X obj 784 849 osc~;
#X obj 843 753 + 24;
#X obj 843 729 * 103;
#X obj 843 777 mtof;
#X obj 843 705 r cv_6 @hv_param;
#X obj 714 870 lop~;
#X obj 1383 868 r cv_8 @hv_param;
#X obj 1326 870 loadbang;
#X msg 1326 894 20000;
#X obj 1326 918 -;
#X obj 1383 892 * 19800;
#X obj 134 774 *~;
#X obj 295 774 *~;
#X obj 99 847 +~;
#X obj 27 742 sig~ 1;
#X obj 148 849 +~;
#X connect 0 0 116 0;
#X connect 0 0 128 0;
#X connect 1 0 57 0;
#X connect 1 0 133 0;
#X connect 2 0 70 0;
#X connect 2 0 69 0;
#X connect 3 0 6 0;
#X connect 4 0 5 0;
#X connect 5 0 8 0;
#X connect 6 0 7 0;
#X connect 7 0 112 0;
#X connect 8 0 113 0;
#X connect 9 0 3 0;
#X connect 9 0 4 0;
#X connect 9 0 21 0;
#X connect 9 0 27 0;
#X connect 9 0 42 0;
#X connect 9 0 39 0;
#X connect 9 0 47 0;
#X connect 9 0 49 0;
#X connect 9 0 51 0;
#X connect 9 0 136 0;
#X connect 10 0 163 0;
#X connect 11 0 12 0;
#X connect 12 0 73 0;
#X connect 13 0 14 0;
#X connect 13 0 16 0;
#X connect 14 0 15 0;
#X connect 15 0 16 1;
#X connect 16 0 17 0;
#X connect 17 0 19 0;
#X connect 17 0 69 0;
#X connect 19 0 20 0;
#X connect 20 0 18 0;
#X connect 21 0 22 0;
#X connect 22 0 23 0;
#X connect 23 0 24 0;
#X connect 23 0 25 0;
#X connect 24 0 11 1;
#X connect 25 0 26 0;
#X connect 26 0 28 1;
#X connect 27 0 25 1;
#X connect 28 0 29 0;
#X connect 29 0 74 0;
#X connect 30 0 31 0;
#X connect 30 0 33 0;
#X connect 31 0 32 0;
#X connect 32 0 33 1;
#X connect 33 0 34 0;
#X connect 34 0 19 1;
#X connect 34 0 70 0;
#X connect 35 0 138 0;
#X connect 35 1 140 0;
#X connect 35 2 142 0;
#X connect 36 0 87 0;
#X connect 37 0 46 0;
#X connect 38 0 37 1;
#X connect 38 0 44 1;
#X connect 39 0 43 0;
#X connect 40 0 99 0;
#X connect 41 0 111 0;
#X connect 42 0 38 0;
#X connect 43 0 38 0;
#X connect 44 0 45 0;
#X connect 45 0 69 0;
#X connect 46 0 70 0;
#X connect 47 0 48 0;
#X connect 48 0 83 0;
#X connect 49 0 50 0;
#X connect 50 0 95 1;
#X connect 51 0 52 0;
#X connect 52 0 107 1;
#X connect 53 0 180 0;
#X connect 54 0 174 0;
#X connect 58 0 115 0;
#X connect 58 0 64 0;
#X connect 59 0 120 0;
#X connect 60 0 65 0;
#X connect 61 0 160 0;
#X connect 62 0 72 0;
#X connect 63 0 67 0;
#X connect 64 0 136 0;
#X connect 65 0 165 0;
#X connect 66 0 0 0;
#X connect 66 0 159 0;
#X connect 66 1 0 0;
#X connect 66 1 159 0;
#X connect 67 0 68 0;
#X connect 68 0 164 0;
#X connect 69 0 122 0;
#X connect 70 0 124 0;
#X connect 72 0 197 1;
#X connect 72 0 196 1;
#X connect 73 0 13 0;
#X connect 74 0 30 0;
#X connect 76 0 44 0;
#X connect 77 0 37 0;
#X connect 78 0 76 1;
#X connect 79 0 86 0;
#X connect 80 0 77 1;
#X connect 81 0 85 0;
#X connect 82 0 81 0;
#X connect 83 0 84 0;
#X connect 84 0 82 0;
#X connect 84 0 79 0;
#X connect 85 0 80 0;
#X connect 86 0 78 0;
#X connect 87 0 76 0;
#X connect 87 0 77 0;
#X connect 88 0 44 0;
#X connect 90 0 88 1;
#X connect 91 0 98 0;
#X connect 92 0 89 1;
#X connect 93 0 97 0;
#X connect 94 0 93 0;
#X connect 95 0 96 0;
#X connect 96 0 94 0;
#X connect 96 0 91 0;
#X connect 97 0 92 0;
#X connect 98 0 90 0;
#X connect 99 0 88 0;
#X connect 99 0 89 0;
#X connect 100 0 44 0;
#X connect 100 0 37 0;
#X connect 101 0 37 0;
#X connect 102 0 100 1;
#X connect 103 0 110 0;
#X connect 104 0 101 1;
#X connect 105 0 109 0;
#X connect 106 0 105 0;
#X connect 107 0 108 0;
#X connect 108 0 106 0;
#X connect 108 0 103 0;
#X connect 109 0 104 0;
#X connect 110 0 102 0;
#X connect 111 0 100 0;
#X connect 111 0 101 0;
#X connect 112 0 11 0;
#X connect 113 0 28 0;
#X connect 114 0 59 0;
#X connect 116 0 1 0;
#X connect 117 0 59 0;
#X connect 117 0 119 0;
#X connect 118 0 9 0;
#X connect 119 0 64 0;
#X connect 120 0 121 0;
#X connect 121 0 58 0;
#X connect 122 0 123 0;
#X connect 122 0 131 0;
#X connect 123 0 71 0;
#X connect 124 0 125 0;
#X connect 124 0 130 0;
#X connect 125 0 71 1;
#X connect 126 0 127 0;
#X connect 126 0 56 0;
#X connect 127 0 9 0;
#X connect 128 0 56 0;
#X connect 128 0 55 0;
#X connect 129 0 125 1;
#X connect 130 0 129 0;
#X connect 131 0 132 0;
#X connect 132 0 123 1;
#X connect 133 0 9 0;
#X connect 134 0 118 0;
#X connect 135 0 166 0;
#X connect 136 0 137 0;
#X connect 137 0 35 0;
#X connect 138 0 139 0;
#X connect 139 0 144 0;
#X connect 140 0 141 0;
#X connect 141 0 146 0;
#X connect 142 0 143 0;
#X connect 143 0 145 0;
#X connect 144 0 36 0;
#X connect 145 0 41 0;
#X connect 146 0 40 0;
#X connect 147 0 148 0;
#X connect 148 0 152 0;
#X connect 149 0 152 0;
#X connect 150 0 151 0;
#X connect 151 0 152 0;
#X connect 152 0 153 0;
#X connect 153 0 156 0;
#X connect 153 0 157 0;
#X connect 153 0 154 0;
#X connect 154 0 155 0;
#X connect 155 0 162 0;
#X connect 156 0 162 0;
#X connect 157 0 158 0;
#X connect 158 0 162 0;
#X connect 159 0 147 0;
#X connect 159 0 149 0;
#X connect 159 0 150 0;
#X connect 160 0 161 0;
#X connect 161 0 159 1;
#X connect 162 0 2 0;
#X connect 162 0 75 0;
#X connect 163 0 75 0;
#X connect 164 0 12 1;
#X connect 164 0 29 1;
#X connect 165 0 163 1;
#X connect 166 0 126 0;
#X connect 167 0 196 0;
#X connect 168 0 197 0;
#X connect 169 0 167 1;
#X connect 170 0 177 0;
#X connect 171 0 168 1;
#X connect 172 0 176 0;
#X connect 173 0 172 0;
#X connect 174 0 175 0;
#X connect 175 0 173 0;
#X connect 175 0 170 0;
#X connect 176 0 171 0;
#X connect 177 0 169 0;
#X connect 178 0 167 0;
#X connect 178 0 168 0;
#X connect 179 0 181 0;
#X connect 180 0 179 0;
#X connect 181 0 182 0;
#X connect 182 0 183 0;
#X connect 183 0 184 0;
#X connect 184 0 190 0;
#X connect 185 0 183 1;
#X connect 186 0 188 0;
#X connect 187 0 186 0;
#X connect 188 0 185 0;
#X connect 189 0 187 0;
#X connect 190 0 178 0;
#X connect 191 0 195 0;
#X connect 192 0 193 0;
#X connect 193 0 194 0;
#X connect 194 0 190 1;
#X connect 195 0 194 1;
#X connect 196 0 198 1;
#X connect 196 0 200 1;
#X connect 198 0 69 1;
#X connect 199 0 198 0;
#X connect 199 0 200 0;
#X connect 200 0 70 1;
