#N canvas 122 1022 1920 989 12;
#X obj 385 163 noise~;
#X obj 385 187 vcf~ 3.9;
#X obj 515 140 noise~;
#X obj 515 188 *~ 2000;
#X obj 515 212 +~ 500;
#X obj 780 549 superdac;
#X obj 388 405 clouds;
#X obj 300 222 vsl 19 162 0 20000 0 0 empty empty empty 0 -9 0 12 #fcfcfc #000000 #000000 0 1;
#X obj 340 222 vsl 19 162 0 20000 0 0 empty empty empty 0 -9 0 12 #fcfcfc #000000 #000000 0 1;
#X obj 472 163 vsl 19 162 0 20000 0 0 empty empty empty 0 -9 0 12 #fcfcfc #000000 #000000 0 1;
#X obj 553 543 osc~ 600;
#X obj 553 567 *~;
#X obj 629 552 osc~ 606;
#X obj 457 446 mvca;
#X obj 553 615 mvca;
#X obj 629 576 +~;
#X obj 368 623 vsl 19 162 0 127 0 0 empty empty empty 0 -9 0 12 #fcfcfc #000000 #000000 0 1;
#X obj 368 793 mtof;
#X obj 435 827 + 6;
#X obj 1134 720 phasor~;
#X obj 1134 744 +~;
#X obj 1134 768 cos~;
#X obj 368 817 / 2;
#X obj 1134 792 *~;
#X obj 1223 733 osc~;
#X obj 1223 757 abs~;
#X obj 368 841 / 80;
#X obj 1330 654 mvca;
#X obj 1570 548 skew~;
#X obj 1681 524 phasor~ 2;
#X obj 1569 655 softclip 2;
#X obj 1569 703 *~;
#X obj 1261 870 *~ -1;
#X obj 1261 894 abs~;
#X obj 1612 748 mvca;
#X obj 1569 679 lop~ 1250;
#X obj 1603 583 fold;
#X obj 1592 618 -~;
#X obj 1570 524 brown~;
#X obj 1503 519 noise~;
#X obj 1503 543 *~ -1;
#X obj 89 421 adc~ 1;
#X obj 89 445 samphold~;
#X obj 162 391 phasor~;
#X obj 236 304 vsl 19 162 0 48000 0 0 empty empty empty 0 -9 0 12 #fcfcfc #000000 #000000 0 1;
#X obj 236 474 + 20;
#X obj 89 469 lop~;
#X obj 89 493 hip~ 3;
#X obj 89 517 mvca;
#X obj 305 427 sigmund~;
#X obj 314 476 abs;
#X obj 314 500 moses 1500;
#X floatatom 314 524 5 0 0 0 - - - 0;
#X obj 314 547 int;
#X msg 314 571 \$1 100;
#X obj 314 595 line;
#X floatatom 314 619 5 0 0 0 - - - 0;
#X floatatom 402 455 5 0 0 0 - - - 0;
#X obj 515 236 softclip;
#X obj 515 260 pwm~;
#X obj 597 241 mvca;
#X obj 1086 85 noise~;
#X obj 1086 109 bob~;
#X obj 515 284 *~ 14000;
#X obj 1086 133 *~;
#X obj 1086 157 mvca;
#X obj 768 88 int;
#X obj 768 112 mtof;
#X obj 768 136 phasor~;
#X obj 768 160 +~;
#X obj 768 184 cos~;
#X obj 906 117 osc~;
#X obj 839 107 / 200;
#X obj 778 301 lop~;
#X obj 778 325 *~;
#X obj 402 478 / 100;
#X floatatom 402 502 5 0 0 0 - - - 0;
#X obj 402 525 phasor~;
#X obj 778 349 mvca;
#X obj 314 642 mtof;
#X obj 1367 152 osc~;
#X obj 1367 176 *~;
#X obj 1352 64 +;
#X obj 1352 88 / 2;
#X obj 1352 112 mtof;
#X obj 1367 200 *~;
#X obj 1424 171 abs~;
#X obj 1367 224 mvca;
#X obj 110 787 delwrite~ delay;
#X obj 90 836 delread4~ delay;
#X obj 314 690 / 1000;
#X obj 34 863 *~ 0.99;
#X obj 103 888 *~;
#X obj 257 805 abs~;
#X obj 263 666 wrap~;
#X obj 257 829 lop~ 1;
#X obj 257 853 snapmidi;
#X msg 257 903 \$1 25;
#X obj 257 927 line;
#X obj 257 951 phasor~;
#X obj 640 779 mvca;
#X obj 553 591 hip~;
#X obj 515 164 hip~;
#X obj 1572 131 tgl 19 0 empty empty empty 0 -10 0 12 #fcfcfc #000000 #000000 0 1;
#X obj 1572 179 bng 19 250 50 0 empty empty empty 0 -10 0 12 #fcfcfc #000000 #000000;
#X obj 1539 315 mvca;
#X obj 909 475 *~;
#X obj 984 414 osc~ 200;
#X obj 984 438 *~ 2;
#X obj 1220 450 rev1~;
#X msg 1222 387 99;
#X obj 1216 484 *~;
#X obj 1216 508 mvca;
#X obj 977 91 *~ 5000;
#X obj 977 115 +~ 100;
#X obj 1219 111 sig~ 3.9;
#X obj 1539 291 spectpad 10 10000;
#X obj 136 161 convo;
#X obj 203 177 kinks;
#X obj 203 201 convo;
#X obj 247 175 kinks;
#X obj 247 199 convo;
#X obj 222 237 *~;
#X obj 299 23 mvca;
#X obj 1641 235 click;
#X obj 326 728 * 25;
#X obj 314 666 * 75;
#X obj 1572 155 metro 75;
#X obj 1136 445 *~ 8;
#X connect 0 0 1 0;
#X connect 1 1 6 0;
#X connect 2 0 102 0;
#X connect 3 0 4 0;
#X connect 4 0 1 1;
#X connect 4 0 58 0;
#X connect 6 0 13 0;
#X connect 8 0 6 2;
#X connect 9 0 6 3;
#X connect 10 0 11 0;
#X connect 11 0 101 0;
#X connect 12 0 15 0;
#X connect 12 0 20 1;
#X connect 13 0 5 1;
#X connect 14 0 5 0;
#X connect 15 0 11 1;
#X connect 16 0 17 0;
#X connect 17 0 18 0;
#X connect 17 0 10 0;
#X connect 17 0 22 0;
#X connect 17 0 101 1;
#X connect 17 0 107 0;
#X connect 17 0 125 0;
#X connect 18 0 12 0;
#X connect 19 0 20 0;
#X connect 20 0 21 0;
#X connect 21 0 23 0;
#X connect 22 0 19 0;
#X connect 22 0 26 0;
#X connect 23 0 27 0;
#X connect 24 0 25 0;
#X connect 25 0 23 1;
#X connect 25 0 32 0;
#X connect 26 0 24 0;
#X connect 27 0 5 1;
#X connect 28 0 36 0;
#X connect 28 0 37 1;
#X connect 29 0 28 1;
#X connect 30 0 35 0;
#X connect 31 0 34 0;
#X connect 32 0 33 0;
#X connect 33 0 31 1;
#X connect 34 0 5 0;
#X connect 35 0 31 0;
#X connect 36 0 37 0;
#X connect 37 0 30 0;
#X connect 38 0 28 0;
#X connect 39 0 40 0;
#X connect 40 0 28 0;
#X connect 41 0 42 0;
#X connect 41 0 49 0;
#X connect 41 0 59 1;
#X connect 41 0 81 1;
#X connect 41 0 88 0;
#X connect 41 0 94 0;
#X connect 41 0 106 0;
#X connect 41 0 113 0;
#X connect 41 0 117 0;
#X connect 41 0 128 0;
#X connect 42 0 46 0;
#X connect 42 0 117 1;
#X connect 43 0 42 1;
#X connect 44 0 45 0;
#X connect 45 0 43 0;
#X connect 45 0 46 1;
#X connect 46 0 47 0;
#X connect 46 0 120 0;
#X connect 47 0 48 0;
#X connect 48 0 5 0;
#X connect 48 1 5 1;
#X connect 49 0 50 0;
#X connect 49 1 57 0;
#X connect 50 0 51 0;
#X connect 51 0 52 0;
#X connect 52 0 53 0;
#X connect 52 0 82 0;
#X connect 53 0 54 0;
#X connect 54 0 55 0;
#X connect 55 0 56 0;
#X connect 56 0 16 0;
#X connect 56 0 79 0;
#X connect 57 0 66 0;
#X connect 57 0 75 0;
#X connect 57 0 82 1;
#X connect 58 0 59 0;
#X connect 59 0 60 0;
#X connect 59 0 63 0;
#X connect 59 0 64 1;
#X connect 60 0 5 0;
#X connect 61 0 62 0;
#X connect 62 0 64 0;
#X connect 64 0 65 0;
#X connect 65 0 5 0;
#X connect 66 0 67 0;
#X connect 67 0 68 0;
#X connect 67 0 72 0;
#X connect 67 0 73 1;
#X connect 67 0 9 0;
#X connect 68 0 69 0;
#X connect 69 0 70 0;
#X connect 70 0 73 0;
#X connect 71 0 69 1;
#X connect 72 0 71 0;
#X connect 73 0 74 0;
#X connect 74 0 78 0;
#X connect 75 0 76 0;
#X connect 76 0 77 0;
#X connect 76 0 77 1;
#X connect 77 0 74 1;
#X connect 78 0 5 0;
#X connect 79 0 102 1;
#X connect 79 0 126 0;
#X connect 79 0 7 0;
#X connect 79 0 6 1;
#X connect 80 0 81 0;
#X connect 80 0 86 0;
#X connect 81 0 85 0;
#X connect 82 0 83 0;
#X connect 83 0 84 0;
#X connect 84 0 80 0;
#X connect 85 0 87 0;
#X connect 86 0 85 1;
#X connect 87 0 5 1;
#X connect 89 0 91 0;
#X connect 90 0 89 0;
#X connect 91 0 88 0;
#X connect 91 0 92 0;
#X connect 92 0 100 0;
#X connect 93 0 95 0;
#X connect 94 0 93 0;
#X connect 94 0 111 1;
#X connect 95 0 96 0;
#X connect 96 0 97 0;
#X connect 97 0 98 0;
#X connect 98 0 99 0;
#X connect 99 0 92 1;
#X connect 100 0 5 0;
#X connect 101 0 14 0;
#X connect 102 0 3 0;
#X connect 103 0 127 0;
#X connect 104 0 116 0;
#X connect 104 0 124 0;
#X connect 105 0 5 1;
#X connect 106 0 46 0;
#X connect 107 0 108 0;
#X connect 108 0 106 1;
#X connect 109 0 111 0;
#X connect 109 0 116 1;
#X connect 110 0 109 1;
#X connect 111 0 112 0;
#X connect 112 0 5 1;
#X connect 113 0 114 0;
#X connect 114 0 62 1;
#X connect 115 0 62 2;
#X connect 116 0 105 0;
#X connect 117 0 118 0;
#X connect 118 0 119 0;
#X connect 118 1 119 1;
#X connect 119 0 122 0;
#X connect 120 0 121 0;
#X connect 120 1 121 1;
#X connect 121 0 122 1;
#X connect 122 0 123 0;
#X connect 123 0 5 0;
#X connect 124 0 105 0;
#X connect 125 0 44 0;
#X connect 126 0 8 0;
#X connect 126 0 90 0;
#X connect 127 0 104 0;
#X connect 128 0 109 0;
