#N canvas 0 0 1360 677 12;
#X obj 463 255 biquad~ 0.83774 -0.06338 0.06338 -0.83774 1;
#X obj 463 229 biquad~ 1.94632 -0.94657 0.94657 -1.94632 1;
#X obj 115 229 biquad~ -0.02569 0.260502 -0.260502 0.02569 1;
#X obj 115 255 biquad~ 1.8685 -0.870686 0.870686 -1.8685 1;
#X msg 452 172 clear;
#X obj 115 316 *~;
#X obj 463 316 *~;
#X obj 338 357 -~;
#X obj 455 110 bng 19 250 50 0 empty empty empty 0 -10 0 12 #fcfcfc #000000 #000000;
#X obj 218 97 noise~;
#X obj 218 121 skew~;
#X obj 296 93 brown~;
#X obj 330 382 clip~ -1 1;
#X obj 331 420 -~;
#X obj 448 400 pow~ 7;
#X obj 448 424 /~ 7;
#X obj 328 479 cos~;
#X obj 331 444 hip~ 5;
#X obj 56 108 adc~ 1;
#X obj 252 178 *~;
#X obj 580 288 r sw1_press @hv_param;
#X connect 0 0 6 0;
#X connect 0 0 6 1;
#X connect 1 0 0 0;
#X connect 2 0 3 0;
#X connect 3 0 5 0;
#X connect 3 0 5 1;
#X connect 4 0 1 0;
#X connect 4 0 0 0;
#X connect 4 0 3 0;
#X connect 4 0 2 0;
#X connect 5 0 7 0;
#X connect 6 0 7 1;
#X connect 7 0 12 0;
#X connect 8 0 4 0;
#X connect 9 0 10 0;
#X connect 10 0 19 1;
#X connect 11 0 10 1;
#X connect 12 0 14 0;
#X connect 12 0 13 0;
#X connect 13 0 17 0;
#X connect 14 0 15 0;
#X connect 15 0 13 1;
#X connect 17 0 16 0;
#X connect 18 0 19 0;
#X connect 19 0 2 0;
#X connect 19 0 1 0;
