#N canvas 234 234 1920 989 12;
#X obj 1148 513 superdac;
#X obj 430 211 *~;
#X obj 553 182 line~;
#X obj 430 187 osc~ 250;
#X obj 430 235 *~;
#X obj 595 284 +~ 1;
#X obj 432 259 fold;
#X obj 263 432 scope;
#X obj 843 172 metro 1000;
#X obj 781 127 tgl 19 0 empty empty empty 0 -10 0 12 #fcfcfc #000000 #000000 0 1;
#X obj 458 360 fold;
#X obj 432 283 clip~ -1 1;
#X obj 458 324 *~;
#X obj 623 373 +~ 1;
#X obj 624 325 phasor~ 3;
#X obj 676 169 bng 19 250 50 0 empty empty empty 0 -10 0 12 #fcfcfc #000000 #000000;
#X msg 523 115 1 \, 0 333;
#X msg 615 198 0;
#X msg 773 238 0.5;
#X obj 623 349 *~ 4;
#X obj 595 260 *~ 4;
#X obj 843 196 del 20;
#X obj 595 236 phasor~ 4;
#X obj 633 562 delwrite~ line;
#X obj 1029 296 throw~ lineback;
#X obj 801 319 catch~ lineback;
#X obj 801 343 *~;
#X obj 761 302 vsl 19 162 0 0.99 0 0 empty empty empty 0 -9 0 12 #fcfcfc #000000 #000000 0 1;
#X obj 585 455 *~;
#X obj 538 531 vsl 19 162 0 0.99 0 0 empty empty empty 0 -9 0 12 #fcfcfc #000000 #000000 0 1;
#X obj 1017 244 *~ 0.8;
#X obj 1018 196 delread4~ line 1500;
#X obj 1017 220 lop~ 15000;
#X connect 1 0 4 0;
#X connect 2 0 1 1;
#X connect 3 0 1 0;
#X connect 4 0 6 0;
#X connect 5 0 4 1;
#X connect 6 0 11 0;
#X connect 8 0 16 0;
#X connect 8 0 21 0;
#X connect 9 0 8 0;
#X connect 10 0 28 0;
#X connect 11 0 12 0;
#X connect 12 0 10 0;
#X connect 13 0 12 1;
#X connect 14 0 19 0;
#X connect 15 0 17 0;
#X connect 15 0 18 0;
#X connect 16 0 2 0;
#X connect 17 0 22 1;
#X connect 18 0 14 1;
#X connect 19 0 13 0;
#X connect 20 0 5 0;
#X connect 22 0 20 0;
#X connect 25 0 26 0;
#X connect 26 0 28 0;
#X connect 27 0 26 1;
#X connect 28 0 23 0;
#X connect 28 0 0 0;
#X connect 29 0 28 1;
#X connect 30 0 24 0;
#X connect 31 0 32 0;
#X connect 32 0 30 0;
