#N canvas 1 1 1902 971 12;
#X obj 241 270 adc~ 1 2;
#X obj 543 69 r Ctrl1 @hv_param;
#X obj 237 319 lop~;
#X obj 543 93 * 19980;
#X obj 543 117 + 20;
#X obj 674 93 * 19980;
#X obj 674 117 + 20;
#X obj 674 68 r Ctrl2 @hv_param;
#X obj 294 319 lop~;
#X obj 237 343 dac~ 1 2;
#X connect 0 0 2 0;
#X connect 0 1 8 0;
#X connect 1 0 3 0;
#X connect 2 0 9 0;
#X connect 3 0 4 0;
#X connect 4 0 2 1;
#X connect 5 0 6 0;
#X connect 6 0 8 1;
#X connect 7 0 5 0;
#X connect 8 0 9 1;
