#N canvas 4 52 1920 989 12;
#X obj 212 64 r Ctrl1 @hv_param;
#X obj 111 29 adc~ 1 2;
#X obj 320 130 r Ctrl2 @hv_param;
#X obj 477 130 r Ctrl3 @hv_param;
#X obj 644 130 r Ctrl4 @hv_param;
#X obj 329 161 == 1;
#X obj 329 185 change;
#X obj 329 209 sel 1;
#X msg 329 233 clear;
#X obj 94 128 clip~ -1 1;
#X obj 82 244 -~;
#X obj 125 187 pow~ 3;
#X obj 125 211 /~ 3;
#X obj 227 202 * 2000;
#X obj 227 226 + 50;
#X obj 113 642 dac~ 1 2;
#X obj 115 447 *~;
#X obj 134 585 *~;
#X obj 676 462 -;
#X obj 676 438 + 1;
#X obj 675 396 t b f;
#X obj 277 549 *~;
#X obj 477 154 * 0.99999;
#X obj 477 178 sig~;
#X obj 122 324 *~ -1;
#X obj 644 154 sig~;
#X obj 676 486 sig~;
#X obj 676 510 lop~ 10;
#X obj 111 77 *~;
#X obj 212 88 sig~;
#X obj 212 136 lop~ 10;
#X obj 213 282 delread~ delay 2050;
#X obj 83 489 delwrite~ delay 2050;
#X obj 644 178 lop~ 100;
#X obj 529 434 -;
#X obj 529 410 + 1;
#X obj 528 368 t b f;
#X obj 529 458 sig~;
#X obj 529 482 lop~ 10;
#X obj 152 73 *~;
#X connect 0 0 29 0;
#X connect 0 0 36 0;
#X connect 1 0 28 0;
#X connect 1 1 39 0;
#X connect 2 0 5 0;
#X connect 2 0 13 0;
#X connect 3 0 22 0;
#X connect 4 0 25 0;
#X connect 4 0 20 0;
#X connect 5 0 6 0;
#X connect 6 0 7 0;
#X connect 7 0 8 0;
#X connect 8 0 32 0;
#X connect 9 0 10 0;
#X connect 9 0 11 0;
#X connect 10 0 21 0;
#X connect 10 0 32 0;
#X connect 11 0 12 0;
#X connect 12 0 10 1;
#X connect 13 0 14 0;
#X connect 14 0 31 0;
#X connect 16 0 32 0;
#X connect 17 0 15 0;
#X connect 17 0 15 1;
#X connect 18 0 26 0;
#X connect 19 0 18 0;
#X connect 20 0 19 0;
#X connect 20 1 18 1;
#X connect 21 0 15 0;
#X connect 21 0 15 1;
#X connect 22 0 23 0;
#X connect 23 0 16 1;
#X connect 24 0 17 0;
#X connect 24 0 16 0;
#X connect 25 0 33 0;
#X connect 26 0 27 0;
#X connect 27 0 21 1;
#X connect 28 0 9 0;
#X connect 29 0 30 0;
#X connect 30 0 28 1;
#X connect 31 0 24 0;
#X connect 33 0 17 1;
#X connect 34 0 37 0;
#X connect 35 0 34 0;
#X connect 36 0 35 0;
#X connect 36 1 34 1;
#X connect 37 0 38 0;
#X connect 38 0 39 1;
#X connect 39 0 9 0;
