#N canvas 4 52 1920 989 12;
#X obj 367 179 adc~ 1 2;
#X obj 543 69 r Ctrl1 @hv_param;
#X obj 674 69 r Ctrl2 @hv_param;
#X obj 237 343 dac~ 1 2;
#X obj 967 69 r Ctrl4 @hv_param;
#X obj 813 69 r Ctrl3 @hv_param;
#X msg 543 93 \$1 13.3;
#X obj 543 117 line~;
#X msg 674 93 \$1 13.3;
#X obj 674 117 line~;
#X obj 367 203 *~;
#X obj 410 202 *~;
#X msg 997 278 \$1 13.3;
#X obj 997 302 line~;
#X obj 566 261 *~;
#X obj 543 141 *~ 2;
#X obj 674 141 *~ 2;
#X msg 812 95 \$1 13.3;
#X obj 812 119 line~;
#X obj 812 143 *~ 199.985;
#X obj 812 167 +~ 0.015625;
#X obj 806 262 osc~;
#X obj 849 196 phasor~;
#X obj 849 220 *~ 19990;
#X obj 849 244 +~ 10;
#X connect 0 0 10 0;
#X connect 0 1 11 0;
#X connect 1 0 6 0;
#X connect 2 0 8 0;
#X connect 4 0 12 0;
#X connect 5 0 17 0;
#X connect 6 0 7 0;
#X connect 7 0 15 0;
#X connect 8 0 9 0;
#X connect 9 0 16 0;
#X connect 10 0 3 0;
#X connect 10 0 3 1;
#X connect 11 0 3 0;
#X connect 11 0 3 1;
#X connect 12 0 13 0;
#X connect 13 0 14 1;
#X connect 14 0 3 1;
#X connect 14 0 3 0;
#X connect 15 0 10 1;
#X connect 16 0 11 1;
#X connect 17 0 18 0;
#X connect 18 0 19 0;
#X connect 19 0 20 0;
#X connect 20 0 22 0;
#X connect 21 0 14 0;
#X connect 22 0 23 0;
#X connect 23 0 24 0;
#X connect 24 0 21 0;
