#N canvas 0 0 1360 677 12;
#X obj 754 513 outlet~;
#X obj 815 513 outlet~;
#X obj 581 488 *~;
#X obj 581 512 fold;
#X obj 189 95 vsl 19 162 1 4 0 0 empty empty empty 0 -9 0 12 #fcfcfc #000000 #000000 0 1;
#X obj 630 488 *~;
#X obj 633 516 fold;
#X obj 106 95 vsl 19 162 20 20000 0 0 empty empty empty 0 -9 0 12 #fcfcfc #000000 #000000 0 1;
#X obj 520 223 sig~;
#X obj 520 247 +~;
#X obj 159 95 vsl 19 162 0 8 0 0 empty empty empty 0 -9 0 12 #fcfcfc #000000 #000000 0 1;
#X text 153 307 res;
#X text 105 307 cutoff;
#X text 181 307 fold;
#X obj 331 92 vsl 19 162 0 100 0 0 empty empty empty 0 -9 0 12 #fcfcfc #000000 #000000 0 1;
#X text 131 76 vcf;
#X text 218 307 rate;
#X text 252 307 depth;
#X obj 834 162 tgl 19 0 empty empty empty 0 -10 0 12 #fcfcfc #000000 #000000 0 1;
#X obj 738 357 clip~ -1 1;
#X obj 703 444 -~;
#X obj 729 388 pow~ 5;
#X obj 729 412 /~ 5;
#X obj 879 350 clip~ -1 1;
#X obj 844 437 -~;
#X obj 870 381 pow~ 5;
#X obj 870 405 /~ 5;
#X obj 392 370 *~ 1;
#X obj 639 370 *~ 1;
#X obj 504 143 adc~ 1 2;
#X obj 590 285 vcf~;
#X obj 220 517 osc~;
#X obj 296 520 osc~;
#X obj 222 582 throw~ b;
#X obj 296 580 throw~ a;
#X obj 221 454 catch~ a;
#X obj 296 453 catch~ b;
#X obj 296 544 *~;
#X obj 222 546 *~;
#X obj 443 282 vcf~;
#X obj 834 186 metro 4.8;
#X obj 392 82 r @hv_param;
#X obj 488 82 r @hv_param;
#X obj 579 82 r @hv_param;
#X obj 675 82 r @hv_param;
#X connect 2 0 3 0;
#X connect 3 0 19 0;
#X connect 4 0 2 1;
#X connect 4 0 5 1;
#X connect 5 0 6 0;
#X connect 6 0 23 0;
#X connect 7 0 8 0;
#X connect 8 0 9 0;
#X connect 9 0 30 1;
#X connect 9 0 39 1;
#X connect 10 0 39 2;
#X connect 10 0 30 2;
#X connect 18 0 40 0;
#X connect 19 0 21 0;
#X connect 19 0 20 0;
#X connect 20 0 0 0;
#X connect 21 0 22 0;
#X connect 22 0 20 1;
#X connect 23 0 25 0;
#X connect 23 0 24 0;
#X connect 24 0 1 0;
#X connect 25 0 26 0;
#X connect 26 0 24 1;
#X connect 27 0 2 0;
#X connect 28 0 5 0;
#X connect 29 0 39 0;
#X connect 29 1 30 0;
#X connect 30 0 28 0;
#X connect 31 0 38 0;
#X connect 32 0 37 0;
#X connect 35 0 31 0;
#X connect 36 0 32 0;
#X connect 37 0 34 0;
#X connect 38 0 33 0;
#X connect 39 0 27 0;
