#N canvas 78 78 1920 989 12;
#X obj 344 102 adc~ 1 2;
#X obj 285 274 delwrite~;
#X obj 383 274 delwrite~;
#X obj 1081 198 delread~;
#X obj 1179 198 delread~;
#X obj 781 109 osc~;
#X obj 783 179 *~;
#X obj 834 305 snapshot~;
#X obj 760 251 loadbang;
#X obj 760 275 metro 48;
#X obj 1469 8 r toggle @hv_param;
#X obj 874 99 phasor~;
#X obj 1444 118 == 0;
#X obj 1510 118 == 1;
#X obj 947 301 snapshot~;
#X obj 874 147 *~ 2;
#X obj 874 123 -~ 1;
#X obj 839 177 *~;
#X obj 813 207 +~;
#X obj 911 369 line;
#X connect 5 0 6 0;
#X connect 6 0 18 0;
#X connect 8 0 9 0;
#X connect 9 0 7 0;
#X connect 9 0 14 0;
#X connect 10 0 12 0;
#X connect 10 0 13 0;
#X connect 11 0 16 0;
#X connect 15 0 17 0;
#X connect 16 0 15 0;
#X connect 17 0 18 0;
#X connect 18 0 7 0;
