#N canvas 124 56 1920 989 12;
#X obj 235 188 adc~ 1 2;
#X obj 454 99 r Ctrl1 @hv_param;
#X obj 290 731 dac~ 1 2;
#X obj 581 99 r Ctrl2 @hv_param;
#X obj 708 99 r Ctrl3 @hv_param;
#X obj 835 99 r Ctrl4 @hv_param;
#X obj 337 574 *~;
#X obj 384 574 *~;
#X msg 386 479 \$1 13.3;
#X obj 386 503 line~;
#X obj 835 171 -;
#X obj 835 147 + 1;
#X obj 835 122 t b f;
#X obj 244 575 *~;
#X obj 291 575 *~;
#X msg 293 480 \$1 13.3;
#X obj 293 504 line~;
#X obj 258 335 +~;
#X obj 708 123 * 20000;
#X obj 708 147 + 20;
#X msg 708 171 \$1 13.3;
#X obj 708 195 line;
#X obj 708 219 sig~;
#X obj 708 243 lop~ 10;
#X obj 354 405 lop~;
#X obj 354 359 *~;
#X msg 581 170 \$1 13.3;
#X obj 581 194 line;
#X msg 454 170 \$1 13.3;
#X obj 454 194 line;
#X obj 454 218 sig~;
#X obj 454 242 lop~ 10;
#X obj 581 218 * 0.5;
#X obj 581 242 + 0.5;
#X obj 581 266 * -1;
#X obj 454 147 + 1;
#X obj 454 123 * 4;
#X obj 354 383 clip~;
#X connect 0 0 17 0;
#X connect 0 1 17 1;
#X connect 1 0 36 0;
#X connect 3 0 26 0;
#X connect 4 0 18 0;
#X connect 5 0 12 0;
#X connect 5 0 15 0;
#X connect 6 0 2 0;
#X connect 7 0 2 1;
#X connect 8 0 9 0;
#X connect 9 0 6 1;
#X connect 9 0 7 1;
#X connect 10 0 8 0;
#X connect 11 0 10 0;
#X connect 12 0 11 0;
#X connect 12 1 10 1;
#X connect 13 0 2 0;
#X connect 14 0 2 1;
#X connect 15 0 16 0;
#X connect 16 0 13 1;
#X connect 16 0 14 1;
#X connect 17 0 13 0;
#X connect 17 0 14 0;
#X connect 17 0 25 0;
#X connect 18 0 19 0;
#X connect 19 0 20 0;
#X connect 20 0 21 0;
#X connect 21 0 22 0;
#X connect 22 0 23 0;
#X connect 23 0 24 1;
#X connect 24 0 6 0;
#X connect 24 0 7 0;
#X connect 25 0 37 0;
#X connect 26 0 27 0;
#X connect 27 0 32 0;
#X connect 28 0 29 0;
#X connect 29 0 30 0;
#X connect 30 0 31 0;
#X connect 31 0 25 1;
#X connect 32 0 33 0;
#X connect 33 0 34 0;
#X connect 33 0 37 2;
#X connect 34 0 37 1;
#X connect 35 0 28 0;
#X connect 36 0 35 0;
#X connect 37 0 24 0;
