#N canvas 0 0 1920 989 12;
#X obj 569 546 *~;
#X msg 900 371 start;
#X msg 962 372 stop;
#X obj 510 608 env~;
#X obj 1001 632 phasor~ 1;
#X obj 1001 258 sel 1;
#X obj 1001 441 timer;
#X obj 1001 467 t f f;
#X msg 1061 607 0;
#X obj 1096 632 * 48;
#X obj 1051 662 *~;
#X obj 904 662 loadbang;
#X obj 1001 523 *;
#X obj 904 741 snapshot~;
#X obj 568 670 tabwrite~ \$0-tape;
#X obj 332 107 r Ctrl3 @hv_param;
#X obj 173 107 r Ctrl2 @hv_param;
#X obj 34 107 r Ctrl1 @hv_param;
#X obj 473 74 r Ctrl4 @hv_param;
#X obj 498 314 adc~ 1 2, f 21;
#X obj 904 889 s GateOut2 @hv_param;
#X obj 758 889 s GateOut1 @hv_param;
#X obj 1001 162 + 1;
#X obj 1001 186 f;
#X obj 1001 223 % 2;
#X obj 33 74 r cv_5 @hv_param;
#X text 72 40 varispeed;
#X obj 50 248 * 1.25;
#X obj 50 272 b;
#X obj 1095 912 dac~ 1 2, f 42;
#X obj 904 765 / 480000;
#X obj 509 672 / 120;
#X msg 904 686 1;
#X obj 322 160 f;
#X obj 904 714 metro 48;
#X obj 1096 606 +, f 7;
#X text 333 46 sos - mix;
#X obj 904 793 == 1;
#X text 974 742 EOC;
#X text 187 49 input level;
#X obj 1051 686 tabread~ \$0-tape;
#X obj 1051 714 *~;
#X obj 323 243 -;
#X obj 323 207 + 1;
#X obj 321 183 t b f;
#X obj 868 16 r button @hv_param;
#X obj 1142 151 b;
#X obj 1001 285 b;
#X obj 1033 285 b;
#X obj 758 793 == 0;
#X obj 904 843 pipe 80;
#X obj 758 843 pipe 80;
#X obj 569 510 *~;
#X obj 312 74 r cv_7 @hv_param;
#X obj 171 74 r cv_6 @hv_param;
#X obj 1270 375 /;
#X msg 1210 327 1000;
#X obj 1004 496 pipe 80;
#X obj 50 189 - 0.5;
#X obj 50 219 * 2;
#X obj 758 817 change;
#X obj 904 817 change;
#X obj 1142 175 random 1000;
#X obj 1142 199 / 1000;
#X text 484 47 output level;
#X obj 1110 783 *~;
#X obj 1195 784 *~;
#X obj 1348 151 b;
#X obj 1348 175 + 1;
#X obj 1348 199 f;
#X obj 1348 223 % 2;
#X obj 1346 18 r toggle @hv_param;
#X obj 1348 258 sel 0;
#X msg 1397 285 0;
#X msg 1348 285 1;
#X msg 1348 327 0;
#X obj 1033 776 *~;
#X obj 1111 823 *~;
#X obj 1196 823 *~;
#X obj 1034 823 *~;
#X obj 324 137 +;
#X obj 171 143 +;
#X obj 50 160 +;
#X obj 472 160 * 1;
#X obj 509 708 s cvout1 @hv_param;
#X obj 855 285 s cvout2 @hv_param;
#X obj 1336 602 table \$0-tape 4.8e+06;
#X obj 1002 68 sel 1;
#X obj 1142 86 sel 1;
#X obj 1348 86 sel 1;
#X obj 869 91 sel 1;
#X msg 1397 327 0.5;
#X obj 152 498 vsl 19 162 0 1 0 0 empty empty empty 0 -9 0 12 #fcfcfc #000000 #000000 0 1;
#X obj 184 502 vsl 19 162 0 1 0 0 empty empty empty 0 -9 0 12 #fcfcfc #000000 #000000 0 1;
#X obj 210 506 vsl 19 162 0 1 0 0 empty empty empty 0 -9 0 12 #fcfcfc #000000 #000000 0 1;
#X obj 239 511 vsl 19 162 0 1 0 0 empty empty empty 0 -9 0 12 #fcfcfc #000000 #000000 0 1;
#N canvas 104 104 1920 989 katjaidea 0;
#X floatatom 361 80 12 0 0 0 - - - 0;
#X obj 240 79 count~ 0 100000;
#X obj 206 151 tabread~ \$0-looperleft;
#X obj 365 150 tabread~ \$0-looperright;
#N canvas -41 406 1920 989 limiter-for-two-channels 0;
#X obj 24 22 inlet~;
#X obj 76 21 inlet~;
#X msg 121 85 limit 100;
#X obj 121 21 loadbang;
#X obj 24 60 z~ 64;
#X obj 76 60 z~ 64;
#X obj 76 169 *~;
#X obj 24 169 *~;
#X obj 24 200 outlet~;
#X obj 76 200 outlet~;
#X obj 121 113 zexy/limiter~ 10 10;
#X connect 0 0 4 0;
#X connect 0 0 10 0;
#X connect 1 0 5 0;
#X connect 1 0 10 1;
#X connect 2 0 10 0;
#X connect 3 0 2 0;
#X connect 4 0 7 0;
#X connect 5 0 6 0;
#X connect 6 0 9 0;
#X connect 7 0 8 0;
#X connect 10 0 7 1;
#X connect 10 0 6 1;
#X restore 206 302 pd limiter-for-two-channels;
#X obj 261 24 loadbang;
#X obj 219 384 *~;
#X obj 304 385 *~;
#X obj 24 102 table \$0-looperleft 2.82e+06;
#X obj 24 125 table \$0-looperright 2.82e+06;
#X obj 365 218 *~;
#X obj 206 215 *~;
#X obj 27 204 hsl 128 25 0 1 0 1 \$0-feedback empty feedback 20 12 0 10 #dcdcdc #fc8000 #000000 12700 0;
#X obj 27 245 hsl 128 25 0 1 0 1 \$0-outlevel empty outlevel 20 12 0 10 #dcdcdc #fc8000 #000000 12700 0;
#X obj 27 159 hsl 128 25 1000 2e+06 0 1 \$0-looplength empty looplength 20 12 0 10 #dcdcdc #fc8000 #000000 1400 0;
#X obj 348 24 r \$0-looplength;
#X obj 24 292 bng 50 250 50 0 empty empty empty 17 7 0 10 #dcdcdc #fc8000 #000000;
#X obj 219 411 dac~ 1;
#X obj 304 412 dac~ 2;
#N canvas 199 302 1920 989 feedbacklevel 0;
#X obj 27 81 line~;
#X obj 27 109 outlet~;
#X msg 27 57 \$1 500;
#X text 25 131 feedback level;
#X obj 95 109 outlet;
#X obj 29 26 r \$0-feedback;
#X connect 0 0 1 0;
#X connect 2 0 0 0;
#X connect 5 0 2 0;
#X connect 5 0 4 0;
#X restore 221 177 pd feedbacklevel;
#X floatatom 314 216 5 0 0 0 - - - 0;
#N canvas 199 302 187 154 outlevel 0;
#X obj 27 81 line~;
#X obj 27 109 outlet~;
#X msg 27 57 \$1 500;
#X obj 95 109 outlet;
#X obj 27 24 r \$0-outlevel;
#X text 25 131 output level;
#X connect 0 0 1 0;
#X connect 2 0 0 0;
#X connect 4 0 2 0;
#X connect 4 0 3 0;
#X restore 224 323 pd outlevel;
#X floatatom 432 384 5 0 0 0 - - - 0;
#X obj 216 247 adc~ 1;
#X obj 378 248 adc~ 2;
#X obj 36 379 s \$0-looperleft;
#X obj 24 406 s \$0-looperright;
#X msg 24 354 const 0;
#X text 76 309 clear loop;
#X text 44 435 write input plus feedback;
#X obj 348 50 int;
#X obj 216 272 hip~ 5;
#X obj 378 274 hip~ 5;
#X text 426 274 DC filter;
#X text 225 80 index;
#X text 427 249 input signal;
#X text 23 23 stereo sound-on-sound looping delay;
#X text 23 47 Katja Vetter dec 2010;
#N canvas 44 314 385 285 readindex 0;
#X obj 96 13 r \$0-looplength;
#X obj 96 112 /;
#X msg 96 85 1;
#X obj 16 129 *~ 1;
#X obj 16 154 wrap~;
#X obj 96 61 t b f;
#X obj 16 182 *~ 1;
#X obj 16 13 inlet~;
#X obj 16 212 outlet~;
#X text 15 236 read pointer is one sample ahead of write pointer \, but must be wrapped around loop length;
#X obj 96 37 int;
#X obj 16 69 +~ 1;
#X connect 0 0 10 0;
#X connect 1 0 3 1;
#X connect 2 0 1 0;
#X connect 3 0 4 0;
#X connect 4 0 6 0;
#X connect 5 0 2 0;
#X connect 5 1 1 1;
#X connect 6 0 8 0;
#X connect 7 0 11 0;
#X connect 10 0 5 0;
#X connect 10 0 6 1;
#X connect 11 0 3 0;
#X restore 365 118 pd readindex;
#X text 379 303 [zexy/limiter~] inside;
#N canvas 583 172 391 247 more-info 0;
#X text 14 204 This patch uses [count~] and [poke~] from cyclone \, [limiter~] from zexy.;
#X text 16 72 With feedback setting at max \, it is a looper. With lower feedback settings \, the loop content will fade away.;
#X text 15 115 The read index is one sample ahead of the write index \, and wrapped within the loop size.;
#X text 14 17 Elementary looping delay with sound on sound. A similar thing can be done with [delwrite~] and [delread~] or [vd~] \, but [delwrite~] lacks the option to clear the delay buffer.;
#X text 16 153 Loop size could be up to 2^23-1 samples theoretically. Beyond that size \, indexing will loose the required precision.;
#X restore 24 75 pd more-info;
#X connect 1 0 38 0;
#X connect 2 0 11 0;
#X connect 3 0 10 0;
#X connect 4 0 6 0;
#X connect 4 1 7 1;
#X connect 5 0 1 0;
#X connect 6 0 17 0;
#X connect 7 0 18 0;
#X connect 10 0 4 1;
#X connect 11 0 4 0;
#X connect 15 0 30 0;
#X connect 16 0 27 0;
#X connect 19 0 11 1;
#X connect 19 0 10 1;
#X connect 19 1 20 0;
#X connect 21 0 6 1;
#X connect 21 0 7 0;
#X connect 21 1 22 0;
#X connect 23 0 31 0;
#X connect 24 0 32 0;
#X connect 27 0 26 0;
#X connect 27 0 25 0;
#X connect 30 0 1 1;
#X connect 30 0 0 0;
#X connect 31 0 4 0;
#X connect 32 0 4 1;
#X connect 38 0 2 0;
#X connect 38 0 3 0;
#X restore 172 811 pd katjaidea;
#X obj 1001 16 r Gate1_Trig @hv_param;
#X obj 1177 18 r Gate2_Trig @hv_param;
#X obj 558 125 change;
#X obj 1001 128 b;
#X obj 1001 104 change;
#X obj 1001 40 change;
#X obj 868 40 change;
#X obj 1177 42 change;
#X obj 1346 42 change;
#X obj 614 99 change;
#X msg 326 757 const 0;
#X obj 326 781 s \$0-tape;
#X obj 342 560 bng 19 250 50 0 empty empty empty 0 -10 0 12 #fcfcfc #000000 #000000;
#X obj 342 584 timer;
#X obj 342 608 >;
#X obj 342 632 tgl 19 0 empty empty empty 0 -10 0 12 #fcfcfc #000000 #000000 0 1;
#X obj 342 656 sel 1;
#X obj 342 680 change;
#X obj 342 704 bng 19 250 50 0 empty empty empty 0 -10 0 12 #fcfcfc #000000 #000000;
#X connect 0 0 14 0;
#X connect 1 0 14 0;
#X connect 2 0 14 0;
#X connect 3 0 31 0;
#X connect 4 0 10 0;
#X connect 5 0 47 0;
#X connect 5 1 48 0;
#X connect 6 0 7 0;
#X connect 7 0 57 0;
#X connect 7 1 35 0;
#X connect 7 1 57 0;
#X connect 8 0 4 1;
#X connect 9 0 10 1;
#X connect 10 0 13 0;
#X connect 10 0 40 0;
#X connect 11 0 32 0;
#X connect 11 0 8 0;
#X connect 12 0 4 0;
#X connect 13 0 30 0;
#X connect 15 0 80 0;
#X connect 16 0 81 0;
#X connect 17 0 82 0;
#X connect 18 0 83 0;
#X connect 19 0 52 0;
#X connect 19 1 52 0;
#X connect 19 1 3 0;
#X connect 22 0 23 0;
#X connect 23 0 22 1;
#X connect 23 0 24 0;
#X connect 24 0 5 0;
#X connect 24 0 85 0;
#X connect 25 0 82 1;
#X connect 27 0 12 1;
#X connect 27 0 28 0;
#X connect 28 0 12 0;
#X connect 30 0 37 0;
#X connect 30 0 49 0;
#X connect 31 0 84 0;
#X connect 32 0 34 0;
#X connect 33 0 41 1;
#X connect 33 0 44 0;
#X connect 34 0 13 0;
#X connect 35 0 9 0;
#X connect 37 0 61 0;
#X connect 40 0 41 0;
#X connect 41 0 65 0;
#X connect 41 0 66 0;
#X connect 41 0 76 0;
#X connect 42 0 0 1;
#X connect 43 0 42 0;
#X connect 44 0 43 0;
#X connect 44 1 42 1;
#X connect 45 0 103 0;
#X connect 46 0 62 0;
#X connect 47 0 1 0;
#X connect 47 0 6 0;
#X connect 48 0 2 0;
#X connect 48 0 6 1;
#X connect 48 0 56 0;
#X connect 49 0 60 0;
#X connect 50 0 20 0;
#X connect 51 0 21 0;
#X connect 52 0 0 0;
#X connect 53 0 80 1;
#X connect 54 0 81 1;
#X connect 55 0 12 0;
#X connect 56 0 55 0;
#X connect 57 0 55 1;
#X connect 58 0 59 0;
#X connect 59 0 27 0;
#X connect 60 0 51 0;
#X connect 61 0 50 0;
#X connect 62 0 63 0;
#X connect 63 0 4 1;
#X connect 65 0 77 0;
#X connect 66 0 78 0;
#X connect 67 0 68 0;
#X connect 68 0 69 0;
#X connect 69 0 68 1;
#X connect 69 0 70 0;
#X connect 70 0 72 0;
#X connect 71 0 105 0;
#X connect 72 0 74 0;
#X connect 72 0 75 0;
#X connect 72 1 73 0;
#X connect 72 1 91 0;
#X connect 73 0 66 1;
#X connect 73 0 65 1;
#X connect 74 0 76 1;
#X connect 75 0 76 1;
#X connect 76 0 79 0;
#X connect 77 0 29 0;
#X connect 78 0 29 1;
#X connect 79 0 29 0;
#X connect 79 0 29 1;
#X connect 80 0 33 0;
#X connect 81 0 52 1;
#X connect 82 0 58 0;
#X connect 83 0 79 1;
#X connect 83 0 77 1;
#X connect 83 0 78 1;
#X connect 87 0 101 0;
#X connect 88 0 46 0;
#X connect 89 0 67 0;
#X connect 90 0 101 0;
#X connect 91 0 65 1;
#X connect 91 0 66 1;
#X connect 92 0 82 0;
#X connect 93 0 81 0;
#X connect 94 0 80 0;
#X connect 95 0 83 0;
#X connect 97 0 102 0;
#X connect 98 0 104 0;
#X connect 100 0 22 0;
#X connect 101 0 100 0;
#X connect 102 0 87 0;
#X connect 103 0 90 0;
#X connect 104 0 88 0;
#X connect 105 0 89 0;
#X connect 107 0 108 0;
#X connect 109 0 110 0;
#X connect 110 0 111 0;
#X connect 111 0 112 0;
#X connect 112 0 113 0;
#X connect 113 0 114 0;
#X connect 114 0 115 0;
