#N canvas 26 26 1360 677 12;
#X obj 108 154 env~;
#X obj 326 376 delwrite~ delay 500;
#X obj 172 178 / 100;
#X obj 490 402 delread~ delay 500;
#X obj 642 402 delread~ delay 500;
#X obj 676 367 + 12;
#X obj 453 256 pack f f f;
#X msg 472 293 \$1 \, \$2 \$3;
#X obj 507 132 / 2;
#X obj 432 132 metro 250;
#X obj 102 250 tgl 19 0 empty empty empty 0 -10 0 12 #fcfcfc #000000 #000000 0 1;
#X obj 487 335 line;
#X obj 308 16 r Ctrl1 @hv_param;
#X obj 456 17 r Ctrl2 @hv_param;
#X obj 594 17 r Ctrl3 @hv_param;
#X obj 742 17 r Ctrl4 @hv_param;
#X obj 823 219 change;
#X obj 823 243 b;
#X obj 823 267 random, f 9;
#X obj 880 218 * 100;
#X obj 1065 264 +;
#X obj 1119 267 +;
#X obj 507 104 +;
#X obj 823 291 * 500;
#X obj 949 220 change;
#X obj 949 244 b;
#X obj 949 268 random, f 9;
#X obj 1006 219 * 100;
#X obj 949 292 * 500;
#X obj 695 219 change;
#X obj 695 243 b;
#X obj 695 267 random, f 9;
#X obj 752 218 * 100;
#X obj 683 159 r cv_5 @hv_param;
#X obj 695 291 * 25;
#X obj 811 159 r cv_6 @hv_param;
#X obj 937 160 r cv_7 @hv_param;
#X obj 848 457 -;
#X obj 848 433 + 1;
#X obj 870 318 t b f;
#X obj 583 513 *~;
#X obj 512 512 *~;
#X obj 687 518 *~;
#X obj 558 591 dac~ 1 2, f 16;
#X obj 102 226 >= 0.25;
#X obj 159 225 <= 0.24999;
#X obj 92 303 change;
#X obj 92 327 b;
#X obj 159 249 tgl 19 0 empty empty empty 0 -10 0 12 #fcfcfc #000000 #000000 0 1;
#X obj 158 304 change;
#X obj 158 328 b;
#X obj 22 373 s gateout1 @hv_param;
#X obj 169 374 s gateout2 @hv_param;
#X obj 553 112 r gate2_trig @hv_param;
#X obj 430 83 r gate1_trig @hv_param;
#X obj 285 135 adc~ 1;
#X obj 1091 42 tgl 19 0 empty empty empty 0 -10 0 12 #fcfcfc #000000 #000000 0 1;
#X obj 1092 18 loadbang;
#X obj 1091 66 metro 10000;
#X obj 1091 90 b;
#X obj 1050 123 random;
#X obj 308 40 * 0.99;
#X obj 339 341 *~;
#X obj 1101 123 random;
#X obj 1151 124 random;
#X obj 456 41 * 3000;
#X obj 591 48 * 2000;
#X obj 388 42 * 500;
#X floatatom 108 178 5 0 0 0 - - - 0;
#X obj 95 437 * 1.5;
#X obj 208 480 * 1.5;
#X obj 70 515 s cv_out_1 @hv_param;
#X obj 269 514 s cv_out_2 @hv_param;
#X connect 0 0 68 0;
#X connect 2 0 44 0;
#X connect 2 0 45 0;
#X connect 2 0 69 0;
#X connect 2 0 70 0;
#X connect 3 0 41 0;
#X connect 3 0 62 0;
#X connect 4 0 42 0;
#X connect 5 0 4 0;
#X connect 6 0 7 0;
#X connect 7 0 11 0;
#X connect 8 0 9 1;
#X connect 8 0 6 2;
#X connect 9 0 6 0;
#X connect 10 0 9 0;
#X connect 10 0 46 0;
#X connect 11 0 5 0;
#X connect 11 0 3 0;
#X connect 12 0 61 0;
#X connect 12 0 67 0;
#X connect 13 0 65 0;
#X connect 14 0 66 0;
#X connect 15 0 39 0;
#X connect 15 0 37 1;
#X connect 15 0 41 1;
#X connect 15 0 42 1;
#X connect 16 0 17 0;
#X connect 17 0 18 0;
#X connect 18 0 23 0;
#X connect 19 0 18 1;
#X connect 20 0 6 0;
#X connect 21 0 6 1;
#X connect 22 0 8 0;
#X connect 23 0 20 1;
#X connect 24 0 25 0;
#X connect 25 0 26 0;
#X connect 26 0 28 0;
#X connect 27 0 26 1;
#X connect 28 0 21 1;
#X connect 29 0 30 0;
#X connect 30 0 31 0;
#X connect 31 0 34 0;
#X connect 32 0 31 1;
#X connect 33 0 29 0;
#X connect 33 0 32 0;
#X connect 34 0 22 1;
#X connect 35 0 16 0;
#X connect 35 0 19 0;
#X connect 36 0 24 0;
#X connect 36 0 27 0;
#X connect 37 0 40 1;
#X connect 38 0 37 0;
#X connect 39 0 38 0;
#X connect 39 1 37 1;
#X connect 40 0 43 0;
#X connect 40 0 43 1;
#X connect 41 0 43 0;
#X connect 42 0 43 1;
#X connect 42 0 62 0;
#X connect 44 0 10 0;
#X connect 45 0 48 0;
#X connect 46 0 47 0;
#X connect 47 0 51 0;
#X connect 48 0 49 0;
#X connect 49 0 50 0;
#X connect 50 0 52 0;
#X connect 53 0 9 0;
#X connect 54 0 9 0;
#X connect 55 0 0 0;
#X connect 55 0 1 0;
#X connect 55 0 40 0;
#X connect 56 0 58 0;
#X connect 57 0 56 0;
#X connect 58 0 59 0;
#X connect 59 0 60 0;
#X connect 59 0 63 0;
#X connect 59 0 64 0;
#X connect 60 0 20 0;
#X connect 61 0 62 1;
#X connect 62 0 1 0;
#X connect 63 0 21 0;
#X connect 64 0 22 0;
#X connect 65 0 60 1;
#X connect 66 0 63 1;
#X connect 67 0 64 1;
#X connect 68 0 2 0;
#X connect 69 0 71 0;
#X connect 70 0 72 0;
