#N canvas 208 208 1920 989 12;
#X obj 161 686 osc~;
#X obj 217 686 osc~;
#X obj 223 724 *~;
#X obj 194 658 + 6;
#X obj 376 184 metro 6000;
#X obj 378 205 b;
#X obj 376 229 f;
#X obj 376 253 + 1;
#X obj 376 277 % 7;
#X obj 1101 183 * 6000;
#X obj 393 752 *~;
#X obj 69 647 + 200;
#X obj 198 56 r Gate1_Trig @hv_param;
#X obj 336 916 dac~ 1 2;
#X obj 371 75 b;
#X obj 441 918 s cv_out_1 @hv_param;
#X obj 500 334 s gate_out_1 @hv_param;
#X obj 162 480 r cv_5 @hv_param;
#X obj 1210 189 r cv_6 @hv_param;
#X obj 392 702 -;
#X obj 392 678 + 1;
#X obj 392 644 t b f;
#X obj 332 802 *~ 1;
#X obj 403 800 *~ 1;
#X obj 69 618 * 8000;
#X obj 441 870 env~;
#X obj 441 894 / 100;
#X obj 561 549 r cv_7 @hv_param;
#X obj 43 429 r Ctrl1 @hv_param;
#X obj 412 541 r Ctrl3 @hv_param;
#X obj 1107 142 r Ctrl2 @hv_param;
#X obj 567 710 r Ctrl4 @hv_param;
#X obj 751 261 s cv_out_2 @hv_param;
#X obj 162 504 * 2000;
#X obj 1097 216 + 0;
#X obj 549 579 f;
#X obj 374 50 r button @hv_param;
#X obj 575 60 r switch @hv_param;
#X obj 371 99 tgl 19 0 empty empty empty 0 -10 0 12 #fcfcfc #000000 #000000 0 1;
#X obj 670 334 s gate_out_2 @hv_param;
#X connect 0 0 2 0;
#X connect 1 0 2 0;
#X connect 2 0 22 0;
#X connect 2 0 23 0;
#X connect 3 0 1 0;
#X connect 4 0 5 0;
#X connect 4 0 16 0;
#X connect 4 0 39 0;
#X connect 5 0 6 0;
#X connect 6 0 7 0;
#X connect 7 0 6 1;
#X connect 7 0 8 0;
#X connect 9 0 34 0;
#X connect 10 0 22 0;
#X connect 10 0 23 0;
#X connect 11 0 3 0;
#X connect 11 0 0 0;
#X connect 12 0 5 0;
#X connect 14 0 38 0;
#X connect 17 0 33 0;
#X connect 18 0 34 1;
#X connect 19 0 10 1;
#X connect 20 0 19 0;
#X connect 21 0 20 0;
#X connect 21 1 19 1;
#X connect 22 0 13 0;
#X connect 22 0 25 0;
#X connect 23 0 13 1;
#X connect 23 0 25 0;
#X connect 24 0 11 0;
#X connect 25 0 26 0;
#X connect 26 0 15 0;
#X connect 27 0 35 0;
#X connect 28 0 24 0;
#X connect 29 0 21 0;
#X connect 29 0 2 1;
#X connect 30 0 9 0;
#X connect 31 0 23 1;
#X connect 31 0 22 1;
#X connect 33 0 11 1;
#X connect 35 0 21 0;
#X connect 36 0 14 0;
#X connect 37 0 32 0;
#X connect 38 0 4 0;
