#N canvas 4 52 1920 989 12;
#X obj 808 262 sqrt~;
#X obj 805 375 cos~;
#X obj 805 399 hip~ 3;
#X obj 805 351 -~ 0.5;
#X obj 805 327 *~ 17.5;
#X obj 805 423 lop~ 2600;
#X msg 804 191 0 \, 1 200;
#X obj 812 73 change;
#X obj 812 97 sel 1;
#X obj 812 121 b;
#X obj 805 447 superdac;
#X obj 804 214 line~;
#X obj 1139 246 noise~;
#X obj 1139 270 bp~ 1000 20;
#X obj 1139 294 *~;
#X obj 1257 275 sqrt~;
#X obj 1253 227 line~;
#X msg 1254 204 1 \, 0 200;
#X obj 360 533 shiftreg, f 56;
#X obj 588 253 stripnote;
#X floatatom 187 579 5 0 0 0 - - - 0;
#X floatatom 238 579 5 0 0 0 - - - 0;
#X floatatom 283 579 5 0 0 0 - - - 0;
#X floatatom 334 579 5 0 0 0 - - - 0;
#X floatatom 385 579 5 0 0 0 - - - 0;
#X floatatom 436 579 5 0 0 0 - - - 0;
#X floatatom 481 579 5 0 0 0 - - - 0;
#X floatatom 532 579 5 0 0 0 - - - 0;
#X floatatom 578 579 5 0 0 0 - - - 0;
#X floatatom 629 579 5 0 0 0 - - - 0;
#X obj 473 206 tgl 19 0 empty empty empty 0 -10 0 12 #fcfcfc #000000 #000000 0 1;
#X obj 473 230 metro 500;
#X obj 606 392 sel 0;
#X obj 473 278 f;
#X obj 473 254 random 2;
#X obj 667 313 tgl 19 0 empty empty empty 0 -10 0 12 #fcfcfc #000000 #000000 0 1;
#X obj 545 356 spigot;
#X connect 0 0 4 0;
#X connect 1 0 2 0;
#X connect 2 0 5 0;
#X connect 3 0 1 0;
#X connect 4 0 3 0;
#X connect 5 0 10 0;
#X connect 6 0 11 0;
#X connect 7 0 8 0;
#X connect 8 0 9 0;
#X connect 9 0 6 0;
#X connect 11 0 0 0;
#X connect 12 0 13 0;
#X connect 13 0 14 0;
#X connect 14 0 10 1;
#X connect 15 0 14 1;
#X connect 16 0 15 0;
#X connect 17 0 16 0;
#X connect 18 0 20 0;
#X connect 18 1 21 0;
#X connect 18 2 22 0;
#X connect 18 3 23 0;
#X connect 18 4 24 0;
#X connect 18 5 25 0;
#X connect 18 6 26 0;
#X connect 18 7 27 0;
#X connect 18 8 28 0;
#X connect 18 9 29 0;
#X connect 30 0 31 0;
#X connect 30 0 36 0;
#X connect 31 0 34 0;
#X connect 32 0 18 1;
#X connect 33 0 18 0;
#X connect 34 0 33 0;
#X connect 35 0 36 1;
#X connect 36 0 32 0;
