#N canvas 0 0 1920 989 12;
#X obj 431 224 env~;
#X obj 428 281 change;
#X obj 297 437 *~ 0.5;
#X obj 639 88 random 4500;
#X obj 808 89 random 4500;
#X obj 808 113 / 10;
#X obj 639 112 / 10;
#X obj 639 136 int;
#X obj 808 137 int;
#X obj 438 341 b;
#X obj 448 438 catch~ \$0-fb;
#X obj 448 462 *~ 0.9;
#X obj 617 411 samphold~;
#X obj 617 435 lop~ 10000;
#X obj 617 483 *~ 0.85;
#X obj 618 507 +~;
#X obj 638 529 abs~;
#X obj 638 553 +~ 1;
#X obj 618 586 /~;
#X obj 618 610 *~ -1;
#X obj 926 761 throw~ \$0-fb;
#X obj 929 697 +~;
#X obj 929 721 /~ 2;
#X obj 721 344 random 98;
#X obj 721 368 + 30;
#X obj 721 392 mtof;
#X obj 721 416 phasor~;
#X obj 944 334 + 10;
#X obj 944 358 phasor~;
#X obj 965 268 random 100;
#X obj 1053 401 samphold~;
#X obj 1053 425 lop~ 10000;
#X obj 1053 473 *~ 0.85;
#X obj 1054 497 +~;
#X obj 1074 519 abs~;
#X obj 1074 543 +~ 1;
#X obj 1054 576 /~;
#X obj 1054 600 *~ -1;
#X obj 1245 312 f;
#X obj 1245 336 + 1;
#X obj 1245 360 % 3;
#X obj 1245 384 sel 0 1 2, f 52;
#X obj 1264 558 mtof;
#X obj 1264 582 osc~;
#X obj 1150 841 *~;
#X obj 1728 574 line~;
#X obj 1797 494 del 50;
#X obj 1384 560 mtof;
#X obj 1384 584 osc~;
#X obj 1524 564 mtof;
#X obj 1524 588 osc~;
#X msg 1730 521 0 50;
#X msg 1797 518 0.05 10000;
#X msg 1266 458 72;
#X msg 1250 423 72;
#X msg 1286 492 67;
#X msg 1371 425 86;
#X msg 1386 460 87;
#X msg 1406 494 87;
#X msg 1510 429 89;
#X msg 1526 464 91;
#X msg 1546 498 83;
#X obj 1048 836 *~;
#X obj 1048 860 *~ 0.5;
#X obj 1149 865 *~ 0.5;
#X obj 1169 576 random 100;
#X obj 1169 600 / 100;
#X obj 1302 579 random 100;
#X obj 1302 603 / 100;
#X obj 1426 582 random 100;
#X obj 1426 606 / 100;
#X obj 936 134 r cv_5 @hv_param;
#X obj 1063 134 r cv_6 @hv_param;
#X obj 1185 134 r cv_7 @hv_param;
#X obj 1317 344 s cvout1 @hv_param;
#X obj 1460 344 s cvout2 @hv_param;
#X obj 1604 344 s gateout1 @hv_param;
#X obj 1599 287 change;
#X obj 1602 204 == 1;
#X obj 1068 56 r ctrl2 @hv_param;
#X obj 941 56 r ctrl1 @hv_param;
#X obj 1336 56 r ctrl4 @hv_param;
#X obj 1200 56 r ctrl3 @hv_param;
#X obj 1461 182 b;
#X obj 1185 186 % 3;
#X obj 1185 162 * 100;
#X obj 1068 84 * 0.99999;
#X obj 376 120 *~;
#X obj 208 64 adc~ 1 2;
#X obj 942 80 * 1;
#X obj 1200 84 * 15980;
#X obj 1200 108 + 20;
#X obj 329 931 dac~ 1 2, f 49;
#X obj 617 459 hip~ 3;
#X obj 1053 449 hip~ 3;
#X obj 999 184 +;
#X obj 936 158 * 0.25;
#X obj 1118 218 +;
#X obj 1063 162 * 2000;
#X obj 448 486 delwrite~ delay 450;
#X obj 1048 806 *~;
#X obj 1181 808 *~;
#X obj 1097 769 cos~;
#X msg 1096 710 \$1 10;
#X obj 1203 774 cos~;
#X msg 1202 715 \$1 10;
#X obj 1204 680 + 0.75;
#X obj 1207 627 / 4;
#X obj 1207 651 abs;
#X obj 1203 750 line~;
#X obj 1097 745 line~;
#X obj 1078 635 *~ 1;
#X obj 1236 809 *~;
#X obj 1369 811 *~;
#X obj 1285 772 cos~;
#X msg 1284 713 \$1 10;
#X obj 1391 777 cos~;
#X msg 1390 718 \$1 10;
#X obj 1392 683 + 0.75;
#X obj 1395 630 / 4;
#X obj 1395 654 abs;
#X obj 1391 753 line~;
#X obj 1285 748 line~;
#X obj 1266 638 *~ 1;
#X obj 1408 811 *~;
#X obj 1541 813 *~;
#X obj 1457 774 cos~;
#X msg 1456 715 \$1 10;
#X obj 1563 779 cos~;
#X msg 1562 720 \$1 10;
#X obj 1564 685 + 0.75;
#X obj 1567 632 / 4;
#X obj 1567 656 abs;
#X obj 1563 755 line~;
#X obj 1457 750 line~;
#X obj 1438 640 *~ 1;
#X obj 618 242 delread~ delay 450;
#X obj 1054 242 delread~ delay 450;
#X obj 1732 56 r Gate2 @hv_param;
#X obj 1603 56 r Gate1 @hv_param;
#X obj 1767 344 s gateout2 @hv_param;
#X obj 431 248 > 70;
#X obj 1464 56 r button @hv_param;
#X obj 1603 80 sel 1;
#X obj 1515 97 sel 1;
#X obj 1602 228 b;
#X obj 1602 252 random 2;
#X obj 394 782 clip~ -1 1;
#X obj 382 898 -~;
#X obj 553 784 clip~ -1 1;
#X obj 541 900 -~;
#X obj 1701 162 tgl 19 0 empty empty empty 0 -10 0 12 #fcfcfc #000000 #000000 0 1;
#X obj 1701 186 metro 1000;
#X obj 1700 109 r toggle @hv_param;
#X obj 476 248 / 60;
#X obj 618 852 /~ 3;
#X obj 618 828 pow~ 3;
#X obj 459 826 pow~ 3;
#X obj 459 850 /~ 3;
#X obj 433 312 sel 1;
#X obj 554 735 +~;
#X obj 393 735 +~;
#X connect 0 0 141 0;
#X connect 0 0 154 0;
#X connect 1 0 76 0;
#X connect 1 0 159 0;
#X connect 2 0 160 0;
#X connect 2 0 161 0;
#X connect 3 0 6 0;
#X connect 4 0 5 0;
#X connect 5 0 8 0;
#X connect 6 0 7 0;
#X connect 7 0 136 0;
#X connect 8 0 137 0;
#X connect 9 0 3 0;
#X connect 9 0 4 0;
#X connect 9 0 23 0;
#X connect 9 0 29 0;
#X connect 9 0 38 0;
#X connect 9 0 51 0;
#X connect 9 0 46 0;
#X connect 9 0 65 0;
#X connect 9 0 67 0;
#X connect 9 0 69 0;
#X connect 10 0 11 0;
#X connect 11 0 99 0;
#X connect 12 0 13 0;
#X connect 13 0 93 0;
#X connect 14 0 15 0;
#X connect 15 0 16 0;
#X connect 15 0 18 0;
#X connect 16 0 17 0;
#X connect 17 0 18 1;
#X connect 18 0 19 0;
#X connect 19 0 21 0;
#X connect 19 0 161 0;
#X connect 21 0 22 0;
#X connect 22 0 20 0;
#X connect 23 0 24 0;
#X connect 24 0 25 0;
#X connect 25 0 26 0;
#X connect 25 0 27 0;
#X connect 26 0 12 1;
#X connect 27 0 28 0;
#X connect 28 0 30 1;
#X connect 29 0 27 1;
#X connect 30 0 31 0;
#X connect 31 0 94 0;
#X connect 32 0 33 0;
#X connect 33 0 34 0;
#X connect 33 0 36 0;
#X connect 34 0 35 0;
#X connect 35 0 36 1;
#X connect 36 0 37 0;
#X connect 37 0 21 1;
#X connect 37 0 160 0;
#X connect 38 0 39 0;
#X connect 39 0 40 0;
#X connect 39 0 38 1;
#X connect 40 0 41 0;
#X connect 41 0 54 0;
#X connect 41 0 59 0;
#X connect 41 0 56 0;
#X connect 41 1 53 0;
#X connect 41 1 60 0;
#X connect 41 1 57 0;
#X connect 41 2 55 0;
#X connect 41 2 61 0;
#X connect 41 2 58 0;
#X connect 42 0 43 0;
#X connect 43 0 111 0;
#X connect 44 0 64 0;
#X connect 45 0 44 1;
#X connect 45 0 62 1;
#X connect 46 0 52 0;
#X connect 47 0 48 0;
#X connect 48 0 123 0;
#X connect 49 0 50 0;
#X connect 50 0 135 0;
#X connect 51 0 45 0;
#X connect 52 0 45 0;
#X connect 53 0 42 0;
#X connect 54 0 42 0;
#X connect 55 0 42 0;
#X connect 56 0 47 0;
#X connect 57 0 47 0;
#X connect 58 0 47 0;
#X connect 59 0 49 0;
#X connect 60 0 49 0;
#X connect 61 0 49 0;
#X connect 62 0 63 0;
#X connect 63 0 161 0;
#X connect 64 0 160 0;
#X connect 65 0 66 0;
#X connect 66 0 107 0;
#X connect 67 0 68 0;
#X connect 68 0 119 1;
#X connect 69 0 70 0;
#X connect 70 0 131 1;
#X connect 71 0 96 0;
#X connect 72 0 98 0;
#X connect 73 0 85 0;
#X connect 77 0 140 0;
#X connect 77 0 83 0;
#X connect 78 0 145 0;
#X connect 79 0 86 0;
#X connect 80 0 89 0;
#X connect 82 0 90 0;
#X connect 83 0 38 0;
#X connect 84 0 41 0;
#X connect 85 0 84 0;
#X connect 86 0 95 0;
#X connect 87 0 99 0;
#X connect 87 0 2 0;
#X connect 88 0 87 0;
#X connect 88 0 0 0;
#X connect 88 1 87 0;
#X connect 88 1 0 0;
#X connect 89 0 87 1;
#X connect 90 0 91 0;
#X connect 91 0 97 0;
#X connect 93 0 14 0;
#X connect 94 0 32 0;
#X connect 95 0 11 1;
#X connect 96 0 95 1;
#X connect 97 0 13 1;
#X connect 97 0 31 1;
#X connect 98 0 97 1;
#X connect 100 0 62 0;
#X connect 101 0 44 0;
#X connect 102 0 100 1;
#X connect 103 0 110 0;
#X connect 104 0 101 1;
#X connect 105 0 109 0;
#X connect 106 0 105 0;
#X connect 107 0 108 0;
#X connect 108 0 106 0;
#X connect 108 0 103 0;
#X connect 109 0 104 0;
#X connect 110 0 102 0;
#X connect 111 0 100 0;
#X connect 111 0 101 0;
#X connect 112 0 62 0;
#X connect 114 0 112 1;
#X connect 115 0 122 0;
#X connect 116 0 113 1;
#X connect 117 0 121 0;
#X connect 118 0 117 0;
#X connect 119 0 120 0;
#X connect 120 0 118 0;
#X connect 120 0 115 0;
#X connect 121 0 116 0;
#X connect 122 0 114 0;
#X connect 123 0 112 0;
#X connect 123 0 113 0;
#X connect 124 0 62 0;
#X connect 124 0 44 0;
#X connect 125 0 44 0;
#X connect 126 0 124 1;
#X connect 127 0 134 0;
#X connect 128 0 125 1;
#X connect 129 0 133 0;
#X connect 130 0 129 0;
#X connect 131 0 132 0;
#X connect 132 0 130 0;
#X connect 132 0 127 0;
#X connect 133 0 128 0;
#X connect 134 0 126 0;
#X connect 135 0 124 0;
#X connect 135 0 125 0;
#X connect 136 0 12 0;
#X connect 137 0 30 0;
#X connect 138 0 78 0;
#X connect 139 0 143 0;
#X connect 141 0 1 0;
#X connect 142 0 78 0;
#X connect 142 0 144 0;
#X connect 143 0 9 0;
#X connect 144 0 83 0;
#X connect 145 0 146 0;
#X connect 146 0 77 0;
#X connect 147 0 148 0;
#X connect 147 0 157 0;
#X connect 148 0 92 0;
#X connect 149 0 150 0;
#X connect 149 0 156 0;
#X connect 150 0 92 1;
#X connect 151 0 152 0;
#X connect 151 0 75 0;
#X connect 152 0 9 0;
#X connect 153 0 151 0;
#X connect 154 0 75 0;
#X connect 154 0 74 0;
#X connect 155 0 150 1;
#X connect 156 0 155 0;
#X connect 157 0 158 0;
#X connect 158 0 148 1;
#X connect 159 0 9 0;
#X connect 160 0 149 0;
#X connect 161 0 147 0;
