#N canvas 4 7 1920 989 12;
#X obj 680 228 adc~ 1 2;
#X obj 719 376 lop~ 1;
#X obj 679 515 *~;
#X obj 716 515 *~;
#X obj 961 754 dac~ 1 2;
#X obj 834 214 *~ 39.999;
#X obj 834 239 +~ 0.001;
#X obj 952 440 osc~ 37.5;
#X obj 952 464 *~;
#X obj 952 488 hip~ 5;
#X obj 1116 501 *~;
#X obj 1116 525 hip~ 5;
#X obj 726 325 osc~;
#X obj 852 381 lop~ 1;
#X obj 812 520 *~;
#X obj 849 520 *~;
#X obj 928 216 *~ 39.999;
#X obj 928 241 +~ 0.001;
#X obj 859 330 osc~;
#X obj 834 142 r ctrl1 @hv_param;
#X obj 959 142 r ctrl2 @hv_param;
#X obj 1088 142 r ctrl3 @hv_param;
#X obj 1219 142 r ctrl4 @hv_param;
#X obj 865 471 -~;
#X obj 865 447 sig~ 1;
#X obj 749 462 -~;
#X obj 749 438 sig~ 1;
#X obj 1088 166 sig~;
#X obj 1088 190 lop~ 10;
#X obj 1232 174 sig~;
#X obj 1232 198 lop~ 10;
#X obj 930 168 sig~;
#X obj 930 192 lop~ 10;
#X obj 844 168 sig~;
#X obj 844 192 lop~ 10;
#X obj 1183 500 *~;
#X obj 1183 525 hip~ 5;
#X obj 1119 373 noise~;
#X obj 1119 397 lop~ 100;
#X obj 1119 421 lop~ 100;
#X obj 1188 370 noise~;
#X obj 1188 394 lop~ 100;
#X obj 1188 418 lop~ 100;
#X connect 0 0 2 0;
#X connect 0 0 3 0;
#X connect 0 1 14 0;
#X connect 0 1 15 0;
#X connect 1 0 2 1;
#X connect 1 0 25 1;
#X connect 2 0 4 0;
#X connect 3 0 4 1;
#X connect 5 0 6 0;
#X connect 6 0 12 0;
#X connect 7 0 8 0;
#X connect 8 0 9 0;
#X connect 9 0 4 0;
#X connect 9 0 4 1;
#X connect 10 0 11 0;
#X connect 11 0 4 0;
#X connect 12 0 1 0;
#X connect 13 0 14 1;
#X connect 13 0 23 1;
#X connect 14 0 4 0;
#X connect 15 0 4 1;
#X connect 16 0 17 0;
#X connect 17 0 18 0;
#X connect 18 0 13 0;
#X connect 19 0 33 0;
#X connect 20 0 31 0;
#X connect 21 0 27 0;
#X connect 22 0 29 0;
#X connect 23 0 15 1;
#X connect 24 0 23 0;
#X connect 25 0 3 1;
#X connect 26 0 25 0;
#X connect 27 0 28 0;
#X connect 28 0 8 1;
#X connect 29 0 30 0;
#X connect 30 0 10 1;
#X connect 30 0 35 1;
#X connect 31 0 32 0;
#X connect 32 0 16 0;
#X connect 33 0 34 0;
#X connect 34 0 5 0;
#X connect 35 0 36 0;
#X connect 36 0 4 1;
#X connect 37 0 38 0;
#X connect 38 0 39 0;
#X connect 39 0 10 0;
#X connect 40 0 41 0;
#X connect 41 0 42 0;
#X connect 42 0 35 0;
