#N canvas 52 52 1920 989 12;
#X obj 399 4 r Ctrl1 @hv_param;
#X obj 531 4 r Ctrl2 @hv_param;
#X obj 214 51 adc~ 1 2;
#X obj 201 87 delwrite~ delay 250;
#X obj 684 4 r Ctrl3 @hv_param;
#X obj 835 -27 r Ctrl3 @hv_param;
#X obj 813 4 r Ctrl4 @hv_param;
#X obj 607 168 delread~ delay 500;
#X obj 321 118 destroy;
#X obj 620 230 +~;
#X obj 692 242 e~;
#X obj 514 335 pow~;
#X obj 549 284 *~ -1;
#X obj 586 335 pow~;
#X obj 641 335 pow~;
#X obj 695 335 pow~;
#X obj 538 370 -~;
#X obj 675 378 +~;
#X obj 625 414 /~;
#X obj 826 82 *~;
#X connect 2 0 3 0;
#X connect 2 1 3 0;
#X connect 7 0 9 0;
#X connect 9 0 13 1;
#X connect 9 0 15 1;
#X connect 9 0 14 1;
#X connect 9 0 12 0;
#X connect 10 0 11 0;
#X connect 10 0 13 0;
#X connect 10 0 15 0;
#X connect 10 0 14 0;
#X connect 11 0 16 0;
#X connect 12 0 11 1;
#X connect 13 0 16 1;
#X connect 14 0 17 0;
#X connect 15 0 17 1;
#X connect 16 0 18 0;
#X connect 17 0 18 1;
