#N canvas 0 0 1920 989 12;
#X obj 210 788 dac~ 1 2;
#X obj 1356 237 change;
#X obj 1356 261 sel 1;
#X obj 422 570 *~;
#X obj 399 383 noise~;
#X obj 1485 286 change;
#X obj 1485 310 sel 1;
#X obj 179 95 adc~ 1 2;
#X obj 1485 334 pipe 20;
#X obj 1508 499 s cvout1 @hv_param;
#X obj 1356 499 s gateout1 @hv_param;
#X obj 1485 358 s gateout2 @hv_param;
#X obj 1356 368 sel 1;
#X obj 1356 392 pipe 20;
#X obj 514 456 t b b;
#X msg 513 533 0;
#X msg 538 480 1;
#X obj 513 557 tgl 19 0 empty empty empty 0 -10 0 12 #fcfcfc #000000 #000000 0 1;
#X obj 514 510 del 30;
#X obj 505 425 b;
#X obj 555 233 env~;
#X obj 555 257 / 100;
#X obj 249 601 lop~ 5000;
#X obj 249 577 *~ 0.99999;
#X obj 555 305 change;
#X obj 259 264 bng 19 250 50 0 empty empty empty 0 -10 0 12 #fcfcfc #000000 #000000;
#X msg 259 288 1000;
#X obj 254 374 /;
#X obj 423 425 *~;
#X obj 302 313 mtof;
#X obj 250 625 hip~ 5;
#X obj 254 159 r ctrl1 @hv_param;
#X obj 1135 122 r ctrl2 @hv_param;
#X obj 653 125 r ctrl3 @hv_param;
#X obj 389 672 delwrite~ delay 500;
#X obj 249 553 delread~ delay 500;
#X obj 911 380 clip~ -20 -1;
#X obj 911 404 *~ -1;
#X obj 1011 380 clip~ -1 1;
#X obj 1137 380 clip~ 1 20;
#X obj 1137 404 *~ -1;
#X obj 1012 457 +~;
#X obj 1012 481 *~ 1;
#X obj 908 559 clip~ -20 -1;
#X obj 908 583 *~ -1;
#X obj 1008 559 clip~ -1 1;
#X obj 1134 559 clip~ 1 20;
#X obj 1134 583 *~ -1;
#X obj 1005 333 *~;
#X obj 1019 626 *~ 1;
#X obj 1137 237 * 3;
#X obj 1138 260 + 1;
#X obj 1007 238 *~;
#X obj 917 121 r ctrl4 @hv_param;
#X obj 300 231 - 0.5;
#X obj 300 255 * 96;
#X obj 451 142 r cv_5 @hv_param;
#X obj 1158 146 r cv_6 @hv_param;
#X obj 672 149 r cv_7 @hv_param;
#X obj 1656 211 loadbang;
#X obj 1573 277 random 20000;
#X obj 1664 334 line;
#X obj 1757 277 random 20000;
#X obj 1667 358 / 20000;
#X obj 1697 235 del 500;
#X obj 1656 235 b;
#X obj 917 145 +;
#X obj 917 169 clip 0 1;
#X obj 656 177 +;
#X obj 656 201 clip 0 1;
#X obj 451 166 +;
#X obj 451 190 clip 0 1;
#X obj 1139 183 +;
#X obj 1139 207 clip 0 1;
#X obj 950 145 r cv_8 @hv_param;
#X obj 555 281 >= 0.1;
#X obj 183 158 *~;
#X obj 214 160 *~;
#X obj 1615 164 r sw1_press @hv_param;
#X obj 33 60 r sw2_press @hv_param;
#X obj 42 118 b;
#X obj 42 142 f;
#X obj 42 166 + 1;
#X obj 42 190 % 2;
#X obj 42 214 sel 1;
#X msg 73 243 0;
#X msg 42 238 1;
#X obj 300 280 + 48;
#X obj 250 649 *~ 2;
#X obj 467 425 *~ 1;
#X obj 33 84 change;
#X obj 555 329 sel 1;
#X obj 1646 500 s cvout2 @hv_param;
#X obj 1356 164 r Gate1_Trig @hv_param;
#X obj 1533 108 r Gate2_Trig @hv_param;
#X obj 1356 533 s gateout2 @hv_param;
#X connect 1 0 2 0;
#X connect 2 0 19 0;
#X connect 2 0 12 0;
#X connect 3 0 34 0;
#X connect 4 0 28 0;
#X connect 5 0 6 0;
#X connect 6 0 8 0;
#X connect 7 0 76 0;
#X connect 7 0 20 0;
#X connect 7 1 77 0;
#X connect 7 1 20 0;
#X connect 8 0 11 0;
#X connect 12 0 13 0;
#X connect 13 0 10 0;
#X connect 13 0 95 0;
#X connect 14 0 18 0;
#X connect 14 1 16 0;
#X connect 15 0 17 0;
#X connect 16 0 17 0;
#X connect 17 0 3 1;
#X connect 18 0 15 0;
#X connect 19 0 14 0;
#X connect 20 0 21 0;
#X connect 21 0 75 0;
#X connect 22 0 30 0;
#X connect 23 0 22 0;
#X connect 24 0 91 0;
#X connect 25 0 26 0;
#X connect 26 0 27 0;
#X connect 27 0 35 0;
#X connect 28 0 3 0;
#X connect 29 0 27 1;
#X connect 29 0 22 1;
#X connect 30 0 52 0;
#X connect 30 0 88 0;
#X connect 30 0 34 0;
#X connect 31 0 70 0;
#X connect 31 0 25 0;
#X connect 32 0 72 0;
#X connect 33 0 68 0;
#X connect 35 0 23 0;
#X connect 36 0 37 0;
#X connect 37 0 41 0;
#X connect 38 0 41 0;
#X connect 39 0 40 0;
#X connect 40 0 41 0;
#X connect 41 0 42 0;
#X connect 42 0 45 0;
#X connect 42 0 46 0;
#X connect 42 0 43 0;
#X connect 43 0 44 0;
#X connect 44 0 49 0;
#X connect 45 0 49 0;
#X connect 46 0 47 0;
#X connect 47 0 49 0;
#X connect 48 0 36 0;
#X connect 48 0 38 0;
#X connect 48 0 39 0;
#X connect 49 0 0 1;
#X connect 50 0 51 0;
#X connect 51 0 48 1;
#X connect 52 0 48 0;
#X connect 53 0 66 0;
#X connect 54 0 55 0;
#X connect 55 0 87 0;
#X connect 56 0 70 1;
#X connect 57 0 72 1;
#X connect 58 0 68 1;
#X connect 59 0 65 0;
#X connect 60 0 61 0;
#X connect 61 0 63 0;
#X connect 62 0 61 1;
#X connect 63 0 9 0;
#X connect 63 0 92 0;
#X connect 64 0 65 0;
#X connect 65 0 60 0;
#X connect 65 0 62 0;
#X connect 65 0 64 0;
#X connect 66 0 67 0;
#X connect 67 0 52 1;
#X connect 68 0 69 0;
#X connect 69 0 28 1;
#X connect 70 0 71 0;
#X connect 71 0 54 0;
#X connect 72 0 73 0;
#X connect 73 0 50 0;
#X connect 74 0 66 1;
#X connect 75 0 24 0;
#X connect 76 0 0 0;
#X connect 76 0 89 0;
#X connect 76 0 48 0;
#X connect 77 0 0 1;
#X connect 77 0 89 0;
#X connect 77 0 48 0;
#X connect 78 0 1 0;
#X connect 79 0 90 0;
#X connect 80 0 81 0;
#X connect 81 0 82 0;
#X connect 82 0 81 1;
#X connect 82 0 83 0;
#X connect 83 0 84 0;
#X connect 84 0 86 0;
#X connect 84 1 85 0;
#X connect 85 0 77 1;
#X connect 85 0 76 1;
#X connect 86 0 77 1;
#X connect 86 0 76 1;
#X connect 87 0 29 0;
#X connect 88 0 0 0;
#X connect 89 0 3 0;
#X connect 90 0 80 0;
#X connect 91 0 19 0;
#X connect 93 0 1 0;
#X connect 93 0 5 0;
#X connect 94 0 5 0;
#X connect 94 0 1 0;
