#N canvas 0 0 1360 677 12;
#X obj 437 142 mtof;
#X obj 315 376 mtof;
#X msg 266 371 1000;
#X obj 287 411 /;
#X obj 234 218 - 1;
#X obj 202 289 *;
#X obj 226 171 t b f;
#X obj 386 141 - 63;
#X obj 387 164 / 64;
#X obj 283 230 t b f;
#X obj 302 445 +;
#X obj 388 186 - 1;
#X obj 387 209 abs;
#X obj 341 302 t b b f;
#X obj 384 238 *;
#X obj 378 261 * -0.2;
#X obj 78 145 *~ 1;
#X obj 297 562 dac~ 1 2;
#X obj 140 21 r ctrl1 @hv_param;
#X obj 300 20 r ctrl2 @hv_param;
#X obj 444 20 r ctrl3 @hv_param;
#X obj 892 10 r ctrl4 @hv_param;
#X obj 255 84 r toggle @hv_param;
#X obj 257 119 change;
#X obj 288 45 * 0.399;
#X obj 162 89 - 0.5;
#X obj 162 113 * 48;
#X obj 461 91 + 75;
#X obj 444 44 * 52;
#X obj 714 165 r button @hv_param;
#X obj 580 129 r Gate1 @hv_param;
#X obj 580 153 change;
#X obj 580 193 sel 1;
#X obj 694 196 change;
#X obj 694 244 sel 1;
#X obj 518 331 *~;
#N canvas 1238 315 1360 677 rez 0;
#X obj 90 42 inlet~;
#X obj 367 296 outlet~;
#X obj 164 268 +~;
#X obj 193 239 *~;
#X obj 290 158 lop~;
#X obj 364 50 inlet;
#X obj 260 49 inlet;
#X obj 174 50 inlet;
#X text 90 20 in;
#X text 166 30 polarity;
#X text 258 28 delaytime;
#X text 357 29 damping freq;
#X obj 134 302 delwrite~ delay 500;
#X obj 174 74 sig~;
#X obj 292 94 delread~ delay 500;
#X connect 0 0 2 0;
#X connect 2 0 12 0;
#X connect 3 0 2 1;
#X connect 4 0 3 1;
#X connect 5 0 4 1;
#X connect 6 0 14 0;
#X connect 7 0 13 0;
#X connect 13 0 3 0;
#X connect 14 0 1 0;
#X connect 14 0 4 0;
#X restore 301 508 pd rez;
#X obj 500 261 noise~;
#X obj 1180 198 change;
#X obj 1129 208 sel 1;
#X obj 1129 160 r Gate2 @hv_param;
#X obj 74 69 adc~ 1 2;
#X obj 170 247 f;
#X obj 321 344 f;
#X obj 1129 232 pipe 20;
#X obj 1129 256 change;
#X obj 939 162 metro;
#X obj 924 58 - 1;
#X obj 925 82 abs;
#X obj 929 132 * 1000;
#X obj 916 504 s cvout1 @hv_param;
#X obj 1099 500 s cvout2 @hv_param;
#X obj 692 517 s gateout1 @hv_param;
#X obj 1148 309 s gateout2 @hv_param;
#X obj 692 347 sel 1;
#X obj 692 371 pipe 20;
#X obj 692 395 change;
#X obj 942 262 random 2000;
#X obj 1040 266 random 2000;
#X obj 941 213 tgl 19 0 empty empty empty 0 -10 0 12 #fcfcfc #000000 #000000 0 1;
#X obj 1012 170 change;
#X obj 1012 194 sel 1;
#X obj 989 229 b;
#X obj 1050 239 b;
#X obj 892 34 + 0.01;
#X obj 1006 334 +;
#X obj 1006 358 / 4000;
#X obj 554 218 t b b;
#X msg 553 295 0;
#X msg 578 242 1;
#X obj 553 319 tgl 19 0 empty empty empty 0 -10 0 12 #fcfcfc #000000 #000000 0 1;
#X obj 554 272 del 30;
#X obj 609 260 b;
#X obj 1012 105 loadbang;
#X msg 1012 129 1;
#X obj 971 89 b;
#X obj 48 195 env~;
#X obj 48 219 / 100;
#X obj 48 243 >= 0.5;
#X connect 0 0 36 3;
#X connect 1 0 3 1;
#X connect 2 0 3 0;
#X connect 3 0 10 0;
#X connect 4 0 5 1;
#X connect 5 0 36 1;
#X connect 6 0 42 0;
#X connect 6 1 4 0;
#X connect 7 0 8 0;
#X connect 8 0 11 0;
#X connect 9 0 2 0;
#X connect 9 1 43 0;
#X connect 10 0 36 2;
#X connect 11 0 12 0;
#X connect 12 0 14 1;
#X connect 12 0 14 0;
#X connect 13 0 2 0;
#X connect 13 1 43 0;
#X connect 13 2 10 1;
#X connect 14 0 15 0;
#X connect 15 0 13 0;
#X connect 16 0 36 0;
#X connect 18 0 25 0;
#X connect 19 0 24 0;
#X connect 20 0 28 0;
#X connect 21 0 64 0;
#X connect 22 0 23 0;
#X connect 23 0 6 0;
#X connect 24 0 42 0;
#X connect 25 0 26 0;
#X connect 26 0 9 0;
#X connect 27 0 7 0;
#X connect 27 0 0 0;
#X connect 28 0 27 0;
#X connect 29 0 33 0;
#X connect 30 0 31 0;
#X connect 30 0 38 0;
#X connect 31 0 32 0;
#X connect 31 0 52 0;
#X connect 32 0 72 0;
#X connect 33 0 34 0;
#X connect 33 0 54 0;
#X connect 33 0 50 0;
#X connect 34 0 72 0;
#X connect 35 0 36 0;
#X connect 36 0 17 0;
#X connect 36 0 17 1;
#X connect 37 0 35 0;
#X connect 38 0 39 0;
#X connect 38 0 53 0;
#X connect 39 0 44 0;
#X connect 40 0 38 0;
#X connect 41 0 16 0;
#X connect 41 1 16 0;
#X connect 42 0 5 0;
#X connect 43 0 1 0;
#X connect 44 0 45 0;
#X connect 45 0 53 0;
#X connect 46 0 59 0;
#X connect 47 0 48 0;
#X connect 48 0 49 0;
#X connect 48 0 75 0;
#X connect 49 0 46 1;
#X connect 54 0 55 0;
#X connect 55 0 56 0;
#X connect 56 0 52 0;
#X connect 57 0 65 0;
#X connect 58 0 65 1;
#X connect 59 0 60 0;
#X connect 60 0 61 0;
#X connect 61 0 62 0;
#X connect 61 1 63 0;
#X connect 62 0 57 0;
#X connect 63 0 58 0;
#X connect 64 0 47 0;
#X connect 65 0 66 0;
#X connect 66 0 50 0;
#X connect 66 0 51 0;
#X connect 67 0 71 0;
#X connect 67 1 69 0;
#X connect 68 0 70 0;
#X connect 69 0 70 0;
#X connect 70 0 35 1;
#X connect 71 0 68 0;
#X connect 72 0 67 0;
#X connect 73 0 74 0;
#X connect 74 0 46 0;
#X connect 75 0 74 0;
#X connect 76 0 77 0;
#X connect 77 0 78 0;
