#N canvas 0 0 1920 989 12;
#X obj 161 686 osc~;
#X obj 217 686 osc~;
#X obj 223 724 *~;
#X obj 194 658 + 6;
#X obj 1101 323 osc~;
#X obj 1150 323 osc~;
#X obj 1196 323 osc~;
#X obj 1246 323 osc~;
#X obj 1292 323 osc~;
#X obj 376 184 metro 6000;
#X obj 378 205 b;
#X obj 376 229 f;
#X obj 376 253 + 1;
#X obj 376 277 % 7;
#X obj 1101 250 + 602;
#X obj 1101 183 * 6000;
#X obj 393 752 *~;
#X obj 1101 347 *~;
#X obj 1150 347 *~;
#X obj 1196 347 *~;
#X obj 1246 347 *~;
#X obj 1292 347 *~;
#X obj 69 647 + 200;
#X obj 1150 299 + 42;
#X obj 1196 299 + 65;
#X obj 1246 299 + 120;
#X obj 1292 299 + 59;
#X obj 269 336 b;
#X msg 270 361 0.2 10;
#X msg 322 358 0 4000;
#X obj 347 393 b;
#X msg 348 418 0.2 10;
#X msg 400 415 0 4000;
#X obj 458 334 b;
#X msg 459 359 0.2 10;
#X msg 511 356 0 4000;
#X obj 536 391 b;
#X msg 537 416 0.2 10;
#X msg 589 413 0 4000;
#X obj 661 333 b;
#X msg 662 358 0.2 10;
#X msg 714 355 0 4000;
#X obj 198 56 r Gate1_Trig @hv_param;
#X obj 336 916 dac~ 1 2;
#X obj 371 75 b;
#X obj 349 439 line;
#X obj 271 383 line;
#X obj 538 438 line;
#X obj 460 381 line;
#X obj 663 380 line;
#X obj 714 331 del;
#X obj 593 369 del;
#X obj 511 332 del;
#X obj 402 390 del;
#X obj 322 334 del;
#X obj 475 263 s gate_out_1 @hv_param;
#X obj 162 480 r cv_5 @hv_param;
#X obj 1210 189 r cv_6 @hv_param;
#X obj 392 702 -;
#X obj 392 678 + 1;
#X obj 392 644 t b f;
#X obj 332 802 *~ 1;
#X obj 403 800 *~ 1;
#X obj 69 618 * 8000;
#X obj 441 870 env~;
#X obj 441 894 / 100;
#X obj 561 549 r cv_7 @hv_param;
#X obj 43 429 r Ctrl1 @hv_param;
#X obj 412 541 r Ctrl3 @hv_param;
#X obj 1107 142 r Ctrl2 @hv_param;
#X obj 567 710 r Ctrl4 @hv_param;
#X obj 162 504 * 2000;
#X obj 1097 216 + 0;
#X obj 549 579 f;
#X obj 426 41 r button @hv_param;
#X obj 371 99 tgl 19 0 empty empty empty 0 -10 0 12 #fcfcfc #000000 #000000 0 1;
#X obj 595 234 s gate_out_2 @hv_param;
#X obj 376 300 sel 0 1 2 3 4, f 49;
#X obj 765 238 s cvout2 @hv_param;
#X obj 441 918 s cvout1 @hv_param;
#X connect 0 0 2 0;
#X connect 1 0 2 0;
#X connect 2 0 61 0;
#X connect 2 0 62 0;
#X connect 3 0 1 0;
#X connect 4 0 17 0;
#X connect 5 0 18 0;
#X connect 6 0 19 0;
#X connect 7 0 20 0;
#X connect 8 0 21 0;
#X connect 9 0 10 0;
#X connect 9 0 55 0;
#X connect 9 0 76 0;
#X connect 10 0 11 0;
#X connect 11 0 12 0;
#X connect 12 0 11 1;
#X connect 12 0 13 0;
#X connect 13 0 77 0;
#X connect 14 0 23 0;
#X connect 14 0 26 0;
#X connect 14 0 25 0;
#X connect 14 0 24 0;
#X connect 14 0 4 0;
#X connect 15 0 72 0;
#X connect 16 0 61 0;
#X connect 16 0 62 0;
#X connect 17 0 16 0;
#X connect 18 0 16 0;
#X connect 19 0 16 0;
#X connect 20 0 16 0;
#X connect 21 0 16 0;
#X connect 22 0 54 1;
#X connect 22 0 53 1;
#X connect 22 0 52 1;
#X connect 22 0 51 1;
#X connect 22 0 50 1;
#X connect 22 0 3 0;
#X connect 22 0 0 0;
#X connect 23 0 5 0;
#X connect 24 0 6 0;
#X connect 25 0 7 0;
#X connect 26 0 8 0;
#X connect 27 0 28 0;
#X connect 27 0 54 0;
#X connect 28 0 46 0;
#X connect 29 0 46 0;
#X connect 30 0 31 0;
#X connect 30 0 53 0;
#X connect 31 0 45 0;
#X connect 32 0 45 0;
#X connect 33 0 34 0;
#X connect 33 0 52 0;
#X connect 34 0 48 0;
#X connect 35 0 48 0;
#X connect 36 0 37 0;
#X connect 36 0 51 0;
#X connect 37 0 47 0;
#X connect 38 0 47 0;
#X connect 39 0 40 0;
#X connect 39 0 50 0;
#X connect 40 0 49 0;
#X connect 41 0 49 0;
#X connect 42 0 10 0;
#X connect 44 0 75 0;
#X connect 45 0 18 1;
#X connect 46 0 17 1;
#X connect 47 0 20 1;
#X connect 48 0 19 1;
#X connect 49 0 21 1;
#X connect 50 0 41 0;
#X connect 51 0 38 0;
#X connect 52 0 35 0;
#X connect 53 0 32 0;
#X connect 54 0 29 0;
#X connect 56 0 71 0;
#X connect 57 0 72 1;
#X connect 58 0 16 1;
#X connect 59 0 58 0;
#X connect 60 0 59 0;
#X connect 60 1 58 1;
#X connect 61 0 43 0;
#X connect 61 0 64 0;
#X connect 62 0 43 1;
#X connect 62 0 64 0;
#X connect 63 0 22 0;
#X connect 64 0 65 0;
#X connect 65 0 79 0;
#X connect 66 0 73 0;
#X connect 67 0 63 0;
#X connect 68 0 60 0;
#X connect 68 0 2 1;
#X connect 69 0 15 0;
#X connect 70 0 62 1;
#X connect 70 0 61 1;
#X connect 71 0 22 1;
#X connect 72 0 14 0;
#X connect 73 0 60 0;
#X connect 74 0 44 0;
#X connect 75 0 9 0;
#X connect 75 0 78 0;
#X connect 77 0 27 0;
#X connect 77 1 30 0;
#X connect 77 2 33 0;
#X connect 77 3 36 0;
#X connect 77 4 39 0;
