#N canvas 182 182 1920 989 12;
#X obj 301 138 adc~ 1 2;
#X obj 250 192 sigmund~;
#X floatatom 250 216 5 0 0 0 - - - 0;
#X floatatom 307 219 5 0 0 0 - - - 0;
#X obj 385 190 sigmund~;
#X floatatom 385 214 5 0 0 0 - - - 0;
#X floatatom 442 217 5 0 0 0 - - - 0;
#X obj 314 308 +;
#X obj 314 332 / 2;
#X obj 422 305 +;
#X obj 422 329 / 2;
#X floatatom 422 353 5 0 0 0 - - - 0;
#X floatatom 315 365 5 0 0 0 - - - 0;
#X obj 315 388 abs;
#X obj 315 412 moses 1500;
#X obj 422 376;
#X floatatom 319 572 5 0 0 0 - - - 0;
#X floatatom 319 619 5 0 0 0 - - - 0;
#X floatatom 380 617 5 0 0 0 - - - 0;
#X obj 319 595 moses 128;
#X obj 544 184 env~;
#X obj 595 182 env~;
#X floatatom 544 208 5 0 0 0 - - - 0;
#X floatatom 595 206 5 0 0 0 - - - 0;
#X connect 0 0 1 0;
#X connect 0 0 20 0;
#X connect 0 1 4 0;
#X connect 0 1 21 0;
#X connect 1 0 2 0;
#X connect 1 1 3 0;
#X connect 2 0 7 0;
#X connect 3 0 9 0;
#X connect 4 0 5 0;
#X connect 4 1 6 0;
#X connect 5 0 7 1;
#X connect 6 0 9 1;
#X connect 7 0 8 0;
#X connect 8 0 12 0;
#X connect 9 0 10 0;
#X connect 10 0 11 0;
#X connect 11 0 15 0;
#X connect 12 0 13 0;
#X connect 13 0 14 0;
#X connect 14 0 16 0;
#X connect 16 0 19 0;
#X connect 19 0 17 0;
#X connect 19 1 18 0;
#X connect 20 0 22 0;
#X connect 21 0 23 0;
