#N canvas 182 182 1920 989 12;
#X obj 714 517 superdac;
#X obj 1061 409 loadbang;
#X msg 1061 433 0;
#X obj 1067 464 phasor~;
#X obj 975 468 phasor~;
#X obj 975 494 *~ 2;
#X obj 975 518 -~ 1;
#X obj 1067 521 -~ -1;
#X obj 1067 497 *~ -2;
#X obj 1042 543 clip~ 0 1;
#X obj 973 543 clip~ 0 1;
#X obj 1079 573 +~;
#X obj 985 572 -~ 1;
#X obj 1024 602 -~ 1;
#X obj 1024 626 +~ 1;
#X obj 801 53 vsl 19 162 0 1 0 0 empty empty empty 0 -9 0 12 #fcfcfc #000000 #000000 0 1;
#X msg 801 223 \$1 13.3;
#X obj 801 247 vline~;
#X obj 801 271 *~ 100;
#X obj 799 296 +~ 0.0001;
#X obj 644 46 vsl 19 162 0 1 0 0 empty empty empty 0 -9 0 12 #fcfcfc #000000 #000000 0 1;
#X msg 645 216 \$1 13.3;
#X obj 645 240 vline~;
#X obj 645 264 *~ 100;
#X obj 645 288 +~ 0.0001;
#X obj 919 91 vsl 19 162 0 1 0 0 empty empty empty 0 -9 0 12 #fcfcfc #000000 #000000 0 1;
#X msg 919 261 \$1 13.3;
#X obj 919 285 vline~;
#X obj 832 391 samphold~;
#X obj 976 407 +~;
#X obj 799 319 osc~;
#X obj 824 517 scope;
#X obj 799 343 expr~ $v1 > $v2;
#X obj 643 370 sig~ 1200;
#X obj 643 394 +~;
#X obj 638 479 -~;
#X obj 638 455 vcf~ 14, f 23;
#X obj 638 503 hip~ 5;
#X obj 155 271 vsl 19 162 0 1 0 0 empty empty empty 0 -9 0 12 #fcfcfc #000000 #000000 0 1;
#X obj 187 271 vsl 19 162 0 1 0 0 empty empty empty 0 -9 0 12 #fcfcfc #000000 #000000 0 1;
#X obj 220 271 vsl 19 162 0 1 0 0 empty empty empty 0 -9 0 12 #fcfcfc #000000 #000000 0 1;
#X obj 256 271 vsl 19 162 0 1 0 0 empty empty empty 0 -9 0 12 #fcfcfc #000000 #000000 0 1;
#X obj 289 271 vsl 19 162 0 1 0 0 empty empty empty 0 -9 0 12 #fcfcfc #000000 #000000 0 1;
#X obj 321 271 vsl 19 162 0 1 0 0 empty empty empty 0 -9 0 12 #fcfcfc #000000 #000000 0 1;
#X obj 354 271 vsl 19 162 0 1 0 0 empty empty empty 0 -9 0 12 #fcfcfc #000000 #000000 0 1;
#X obj 151 459 t b f;
#X obj 199 459 t b f;
#X obj 248 459 t b f;
#X obj 296 459 t b f;
#X obj 340 459 t b f;
#X obj 389 459 t b f;
#X obj 437 459 t b f;
#N canvas 78 78 450 250 (subpatch) 0;
#X array seq1 8 float 3;
#A 0 0.14002 0.60768 0.58969 0.40388 0.65991 0.58784 0.71066 0.7711;
#X coords 0 1 8 0 200 140 1 0 0;
#X restore 100 21 graph;
#X obj 123 567 s seq1;
#X obj 157 200 bng 19 250 50 0 empty empty empty 0 -10 0 12 #fcfcfc #000000 #000000;
#X obj 412 263 vsl 19 162 0 1 0 0 empty empty empty 0 -9 0 12 #fcfcfc #000000 #000000 0 1;
#X obj 495 451 t b f;
#X obj 121 492 pack 0 0 0 0 0 0 0 0 0, f 64;
#X obj 1270 413 *~ 8;
#X obj 1270 437 expr~ int($v1);
#X obj 1270 461 tabread~ seq1;
#X obj 1270 485 *~ 127;
#X obj 1270 535 phasor~;
#X obj 1274 653 bob~;
#X obj 1274 677 hip~ 5;
#X obj 1402 351 vsl 19 162 0 1 0 0 empty empty empty 0 -9 0 12 #fcfcfc #000000 #000000 0 1;
#X msg 1402 521 \$1 13.3;
#X obj 1402 545 vline~;
#X obj 1512 351 vsl 19 162 0 1 0 0 empty empty empty 0 -9 0 12 #fcfcfc #000000 #000000 0 1;
#X msg 1512 521 \$1 13.3;
#X obj 1512 545 vline~;
#X obj 1510 594 +~ 0.0001;
#X obj 1512 569 *~ 3.9999;
#X obj 1398 645 +~;
#X obj 1400 594 +~ 20;
#X obj 1402 569 *~ 19980;
#X obj 655 648 bng 19 250 50 0 empty empty empty 0 -10 0 12 #fcfcfc #000000 #000000;
#X obj 1617 560 superdac;
#X obj 1178 756 snapshot~;
#X obj 1309 771 bang~;
#X obj 1178 804 bng 19 250 50 0 empty empty empty 0 -10 0 12 #fcfcfc #000000 #000000;
#X obj 1179 732 expr~ ($v1 < 0.01) + ($v1 > 0.99);
#X obj 120 724 / 100000;
#X obj 188 724 / 100000;
#X obj 266 724 / 100000;
#X obj 334 724 / 100000;
#X obj 406 724 / 100000;
#X obj 474 724 / 100000;
#X obj 552 724 / 100000;
#X obj 620 724 / 100000;
#X obj 620 700 random 100000;
#X obj 552 700 random 100000;
#X obj 474 700 random 100000;
#X obj 406 700 random 100000;
#X obj 334 700 random 100000;
#X obj 188 700 random 100000;
#X obj 266 700 random 100000;
#X obj 120 700 random 100000;
#X obj 1263 354 +~;
#X obj 1263 378 wrap~;
#X obj 1280 562 throw~ \$0-fbphs;
#X obj 1330 266 catch~ \$0-fbphs;
#X obj 1270 509 mtof~;
#X obj 1468 651 *~;
#X obj 1172 569 *~;
#X obj 1581 272 vsl 19 162 0 1 0 0 empty empty empty 0 -9 0 12 #fcfcfc #000000 #000000 0 1;
#X msg 1581 442 \$1 13.3;
#X obj 1581 466 vline~;
#X obj 1178 780 change;
#X obj 1275 239 vline~;
#X obj 1417 102 tgl 19 0 empty empty empty 0 -10 0 12 #fcfcfc #000000 #000000 0 1;
#X obj 1417 126 metro 100;
#X obj 1274 701 *~;
#X obj 1165 206 vline~;
#X obj 1330 290 lop~ 10;
#X obj 1193 287 phasor~;
#X msg 1164 182 1 \, 0 10;
#X obj 1166 230 *~ 3000;
#X obj 1166 254 +~ 1;
#X obj 1417 150 f;
#X obj 1517 103 vsl 19 162 0 1 0 0 empty empty empty 0 -9 0 12 #fcfcfc #000000 #000000 0 1;
#X obj 1517 273 * 200;
#X msg 1276 215 1 \, 0 \$1;
#X connect 1 0 2 0;
#X connect 2 0 4 1;
#X connect 2 0 3 1;
#X connect 3 0 8 0;
#X connect 4 0 5 0;
#X connect 5 0 6 0;
#X connect 6 0 10 0;
#X connect 7 0 9 0;
#X connect 8 0 7 0;
#X connect 9 0 11 0;
#X connect 10 0 11 0;
#X connect 11 0 12 0;
#X connect 11 0 13 0;
#X connect 12 0 13 0;
#X connect 13 0 14 0;
#X connect 14 0 28 0;
#X connect 15 0 16 0;
#X connect 16 0 17 0;
#X connect 17 0 18 0;
#X connect 18 0 19 0;
#X connect 19 0 30 0;
#X connect 20 0 21 0;
#X connect 21 0 22 0;
#X connect 22 0 23 0;
#X connect 23 0 24 0;
#X connect 24 0 29 0;
#X connect 25 0 26 0;
#X connect 26 0 27 0;
#X connect 27 0 32 1;
#X connect 28 0 31 0;
#X connect 28 0 36 0;
#X connect 29 0 3 0;
#X connect 29 0 4 0;
#X connect 30 0 32 0;
#X connect 32 0 28 1;
#X connect 33 0 34 0;
#X connect 34 0 36 1;
#X connect 35 0 37 0;
#X connect 36 0 35 0;
#X connect 36 1 35 1;
#X connect 37 0 0 0;
#X connect 38 0 45 0;
#X connect 39 0 46 0;
#X connect 40 0 47 0;
#X connect 41 0 48 0;
#X connect 42 0 49 0;
#X connect 43 0 50 0;
#X connect 44 0 51 0;
#X connect 45 0 57 0;
#X connect 45 1 57 1;
#X connect 46 0 57 0;
#X connect 46 1 57 2;
#X connect 47 0 57 0;
#X connect 47 1 57 3;
#X connect 48 0 57 0;
#X connect 48 1 57 4;
#X connect 49 0 57 0;
#X connect 49 1 57 5;
#X connect 50 0 57 0;
#X connect 50 1 57 6;
#X connect 51 0 57 0;
#X connect 51 1 57 7;
#X connect 54 0 38 0;
#X connect 54 0 44 0;
#X connect 54 0 43 0;
#X connect 54 0 42 0;
#X connect 54 0 41 0;
#X connect 54 0 40 0;
#X connect 54 0 39 0;
#X connect 54 0 55 0;
#X connect 55 0 56 0;
#X connect 56 0 57 0;
#X connect 56 1 57 8;
#X connect 57 0 53 0;
#X connect 58 0 59 0;
#X connect 59 0 60 0;
#X connect 60 0 61 0;
#X connect 60 0 104 0;
#X connect 61 0 102 0;
#X connect 62 0 63 0;
#X connect 62 0 81 0;
#X connect 62 0 100 0;
#X connect 63 0 64 0;
#X connect 64 0 112 0;
#X connect 65 0 66 0;
#X connect 66 0 67 0;
#X connect 67 0 75 0;
#X connect 68 0 69 0;
#X connect 69 0 70 0;
#X connect 70 0 72 0;
#X connect 71 0 63 2;
#X connect 72 0 71 0;
#X connect 73 0 63 1;
#X connect 74 0 73 0;
#X connect 74 0 103 0;
#X connect 75 0 74 0;
#X connect 76 0 90 0;
#X connect 76 0 91 0;
#X connect 76 0 92 0;
#X connect 76 0 93 0;
#X connect 76 0 94 0;
#X connect 76 0 95 0;
#X connect 76 0 96 0;
#X connect 76 0 97 0;
#X connect 78 0 108 0;
#X connect 79 0 78 0;
#X connect 80 0 76 0;
#X connect 81 0 78 0;
#X connect 82 0 38 0;
#X connect 83 0 39 0;
#X connect 84 0 40 0;
#X connect 85 0 41 0;
#X connect 86 0 42 0;
#X connect 87 0 43 0;
#X connect 88 0 44 0;
#X connect 89 0 55 0;
#X connect 90 0 89 0;
#X connect 91 0 88 0;
#X connect 92 0 87 0;
#X connect 93 0 86 0;
#X connect 94 0 85 0;
#X connect 95 0 83 0;
#X connect 96 0 84 0;
#X connect 97 0 82 0;
#X connect 98 0 99 0;
#X connect 99 0 58 0;
#X connect 101 0 114 0;
#X connect 102 0 62 0;
#X connect 103 0 73 1;
#X connect 104 0 103 1;
#X connect 105 0 106 0;
#X connect 106 0 107 0;
#X connect 107 0 104 1;
#X connect 108 0 80 0;
#X connect 109 0 112 1;
#X connect 110 0 111 0;
#X connect 111 0 116 0;
#X connect 111 0 119 0;
#X connect 112 0 77 0;
#X connect 112 0 77 1;
#X connect 113 0 117 0;
#X connect 114 0 98 1;
#X connect 115 0 98 0;
#X connect 116 0 113 0;
#X connect 117 0 118 0;
#X connect 118 0 115 0;
#X connect 119 0 122 0;
#X connect 120 0 121 0;
#X connect 121 0 119 1;
#X connect 122 0 109 0;
