#N canvas 4 26 1920 989 12;
#X obj 569 539 *~;
#X msg 900 371 start;
#X msg 962 372 stop;
#X obj 510 608 env~;
#X obj 1001 258 sel 1;
#X obj 1001 441 timer;
#X obj 1001 467 t f f;
#X obj 1096 632 * 48;
#X obj 1051 662 *~;
#X obj 1656 631 loadbang;
#X obj 1001 523 *;
#X obj 1656 710 snapshot~;
#X obj 568 670 tabwrite~ \$0-tape;
#X obj 308 102 r Ctrl3 @hv_param;
#X obj 164 106 r Ctrl2 @hv_param;
#X obj 33 107 r Ctrl1 @hv_param;
#X obj 473 74 r Ctrl4 @hv_param;
#X obj 611 170 adc~ 1 2, f 21;
#X obj 1001 64 r Gate1 @hv_param;
#X obj 1142 63 r Gate2 @hv_param;
#X obj 1656 858 s GateOut2 @hv_param;
#X obj 1510 858 s GateOut1 @hv_param;
#X obj 1001 151 b;
#X obj 35 59 r cv_5 @hv_param;
#X text 72 40 varispeed;
#X obj 50 248 * 1.25;
#X obj 50 272 b;
#X obj 952 915 dac~ 1 2, f 42;
#X obj 1656 734 / 480000;
#X obj 509 672 / 120;
#X msg 1656 655 1;
#X obj 323 225 f;
#X obj 1656 683 metro 48;
#X text 333 40 sos - mix;
#X obj 1656 762 == 1;
#X text 187 40 input level;
#X obj 1051 686 tabread~ \$0-tape;
#X obj 1051 714 *~;
#X obj 324 308 -;
#X obj 324 272 + 1;
#X obj 322 248 t b f;
#X obj 1001 285 b;
#X obj 1033 285 b;
#X obj 1510 762 == 0;
#X obj 1656 812 pipe 80;
#X obj 1510 812 pipe 80;
#X obj 569 510 *~;
#X obj 331 75 r cv_7 @hv_param;
#X obj 171 74 r cv_6 @hv_param;
#X obj 1064 412 /;
#X msg 1061 351 1000;
#X obj 1004 496 pipe 80;
#X obj 50 189 - 0.5;
#X obj 50 219 * 2;
#X obj 1510 786 change;
#X obj 1656 786 change;
#X obj 325 202 +;
#X obj 163 228 +;
#X obj 50 160 +;
#X obj 509 708 s cvout1 @hv_param;
#X obj 855 285 s cvout2 @hv_param;
#X obj 1000 124 sel 1;
#X obj 1573 902 table \$0-tape 2.88e+06;
#X obj 1001 632 phasor~;
#X obj 104 141 * 0.5;
#X obj 1001 175 tgl 19 0 empty empty empty 0 -10 0 12 #fcfcfc #000000 #000000 0 1;
#X obj 1370 148 r button @hv_param;
#X obj 835 89 change;
#X obj 50 133 change;
#X obj 386 131 change;
#X obj 473 108 change;
#X obj 1142 87 change;
#X obj 323 142 change;
#X obj 164 130 change;
#X obj 205 163 change;
#X obj 35 83 change;
#X obj 1001 88 change;
#X text 484 40 bias;
#X obj 835 65 r button @hv_param;
#X obj 835 113 b;
#X obj 835 137 tgl 19 0 empty empty empty 0 -10 0 12 #fcfcfc #000000 #000000 0 1;
#X connect 0 0 12 0;
#X connect 0 0 27 0;
#X connect 0 0 27 1;
#X connect 1 0 12 0;
#X connect 2 0 12 0;
#X connect 3 0 29 0;
#X connect 4 0 41 0;
#X connect 4 1 42 0;
#X connect 5 0 6 0;
#X connect 6 0 51 0;
#X connect 6 1 51 0;
#X connect 6 1 7 0;
#X connect 7 0 8 1;
#X connect 8 0 11 0;
#X connect 8 0 36 0;
#X connect 9 0 30 0;
#X connect 10 0 63 0;
#X connect 11 0 28 0;
#X connect 13 0 72 0;
#X connect 14 0 73 0;
#X connect 15 0 68 0;
#X connect 16 0 70 0;
#X connect 17 0 46 0;
#X connect 17 1 46 0;
#X connect 17 1 3 0;
#X connect 18 0 76 0;
#X connect 19 0 71 0;
#X connect 22 0 65 0;
#X connect 23 0 75 0;
#X connect 25 0 10 1;
#X connect 25 0 26 0;
#X connect 26 0 10 0;
#X connect 28 0 34 0;
#X connect 28 0 43 0;
#X connect 29 0 59 0;
#X connect 29 0 60 0;
#X connect 30 0 32 0;
#X connect 31 0 37 1;
#X connect 31 0 40 0;
#X connect 32 0 11 0;
#X connect 34 0 55 0;
#X connect 36 0 37 0;
#X connect 37 0 27 0;
#X connect 37 0 27 1;
#X connect 38 0 0 1;
#X connect 39 0 38 0;
#X connect 40 0 39 0;
#X connect 40 1 38 1;
#X connect 41 0 1 0;
#X connect 41 0 5 0;
#X connect 42 0 2 0;
#X connect 42 0 5 1;
#X connect 42 0 50 0;
#X connect 43 0 54 0;
#X connect 44 0 20 0;
#X connect 45 0 21 0;
#X connect 46 0 0 0;
#X connect 47 0 69 0;
#X connect 48 0 74 0;
#X connect 49 0 10 0;
#X connect 50 0 49 0;
#X connect 51 0 49 1;
#X connect 52 0 53 0;
#X connect 53 0 25 0;
#X connect 54 0 45 0;
#X connect 55 0 44 0;
#X connect 56 0 31 0;
#X connect 57 0 46 1;
#X connect 58 0 52 0;
#X connect 61 0 22 0;
#X connect 63 0 8 0;
#X connect 64 0 58 1;
#X connect 65 0 4 0;
#X connect 65 0 60 0;
#X connect 67 0 79 0;
#X connect 68 0 58 0;
#X connect 69 0 56 1;
#X connect 70 0 63 1;
#X connect 71 0 61 0;
#X connect 72 0 56 0;
#X connect 73 0 57 0;
#X connect 74 0 57 1;
#X connect 75 0 64 0;
#X connect 76 0 61 0;
#X connect 78 0 67 0;
#X connect 79 0 80 0;
#X connect 80 0 4 0;
