#N canvas 1917 0 1920 989 12;
#X obj 278 173 adc~ 1 2;
#X obj 332 247 cos~;
#X obj 1586 786 clip~ -1 1;
#X obj 1574 902 -~;
#X obj 1745 786 clip~ -1 1;
#X obj 1733 902 -~;
#X obj 1810 854 /~ 3;
#X obj 1810 830 pow~ 3;
#X obj 1651 830 pow~ 3;
#X obj 1651 854 /~ 3;
#X obj 1659 944 dac~ 1 2;
#X obj 1066 512 samphold~;
#X obj 1066 536 lop~ 10000;
#X obj 1065 639 *~ -1;
#X obj 1197 274 mtof;
#X obj 1165 456 phasor~;
#X obj 369 377 -;
#X obj 369 353 + 1;
#X obj 362 289 t b f;
#X obj 236 45 r ctrl1 @hv_param;
#X obj 394 45 r ctrl2 @hv_param;
#X obj 546 45 r ctrl3 @hv_param;
#X obj 704 45 r ctrl4 @hv_param;
#X obj 344 462 *~;
#X obj 306 462 *~;
#X obj 1239 108 env~;
#X obj 1462 525 samphold~;
#X obj 1461 639 *~ -1;
#X obj 1593 289 mtof;
#X obj 1561 469 phasor~;
#X obj 693 511 samphold~;
#X obj 693 535 lop~ 10000;
#X obj 709 639 *~ -1;
#X obj 821 274 mtof;
#X obj 792 455 phasor~;
#X obj 880 511 samphold~;
#X obj 880 535 lop~ 10000;
#X obj 879 639 *~ -1;
#X obj 996 274 mtof;
#X obj 979 455 phasor~;
#X obj 1674 525 samphold~;
#X obj 1673 639 *~ -1;
#X obj 1801 286 mtof;
#X obj 1773 469 phasor~;
#X obj 1253 527 samphold~;
#X obj 1252 639 *~ -1;
#X obj 1368 288 mtof;
#X obj 1352 471 phasor~;
#X obj 281 83 r ctrl1 @hv_param;
#X obj 439 83 r ctrl2 @hv_param;
#X obj 591 83 r ctrl3 @hv_param;
#X obj 749 83 r ctrl4 @hv_param;
#X obj 821 242 * 2;
#X obj 996 242 / 2;
#X obj 1801 254 * 2;
#X obj 1368 256 / 2;
#X text 261 18 delay time;
#X text 388 12 filter cut;
#X text 548 14 fb amount;
#X text 755 16 drywet;
#X obj 849 668 *~;
#X obj 918 671 *~;
#X obj 1021 676 *~;
#X obj 1090 679 *~;
#X obj 1227 690 *~;
#X obj 1296 693 *~;
#X obj 1399 698 *~;
#X obj 1468 701 *~;
#X obj 911 68 >= 0.3;
#X obj 909 31 / 120;
#X obj 911 190 random;
#X obj 983 163 f;
#X obj 910 215 /, f 9;
#X obj 926 255 *;
#X obj 1369 187 s cvout2 @hv_param;
#X obj 911 146 b;
#X obj 913 93 sel 1;
#X obj 913 117 change;
#X obj 670 415 delread~ delay;
#X obj 851 415 delread~ delay;
#X obj 1083 415 delread~ delay;
#X obj 1291 415 delread~ delay;
#X obj 1446 415 delread~ delay;
#X obj 1667 415 delread~ delay;
#X obj 281 107 +;
#X obj 331 529 delwrite~ delay 500;
#X obj 1369 162 + 0.5;
#X obj 1239 132 / 100;
#X obj 1518 189 s cvout1 @hv_param;
#X connect 0 0 1 0;
#X connect 0 0 24 0;
#X connect 0 0 25 0;
#X connect 0 1 1 0;
#X connect 0 1 24 0;
#X connect 1 0 23 0;
#X connect 2 0 3 0;
#X connect 2 0 8 0;
#X connect 3 0 10 0;
#X connect 4 0 5 0;
#X connect 4 0 7 0;
#X connect 5 0 10 1;
#X connect 6 0 5 1;
#X connect 7 0 6 0;
#X connect 8 0 9 0;
#X connect 9 0 3 1;
#X connect 11 0 12 0;
#X connect 13 0 63 0;
#X connect 13 0 62 0;
#X connect 14 0 15 0;
#X connect 15 0 11 1;
#X connect 16 0 23 1;
#X connect 17 0 16 0;
#X connect 18 0 17 0;
#X connect 18 1 16 1;
#X connect 18 1 24 1;
#X connect 19 0 84 1;
#X connect 23 0 85 0;
#X connect 24 0 85 0;
#X connect 25 0 14 0;
#X connect 25 0 52 0;
#X connect 25 0 53 0;
#X connect 25 0 69 0;
#X connect 25 0 55 0;
#X connect 25 0 28 0;
#X connect 25 0 54 0;
#X connect 25 0 87 0;
#X connect 27 0 4 0;
#X connect 27 0 67 0;
#X connect 27 0 66 0;
#X connect 28 0 29 0;
#X connect 29 0 26 1;
#X connect 30 0 31 0;
#X connect 32 0 2 0;
#X connect 33 0 34 0;
#X connect 34 0 30 1;
#X connect 35 0 36 0;
#X connect 37 0 60 0;
#X connect 37 0 61 0;
#X connect 38 0 39 0;
#X connect 39 0 35 1;
#X connect 41 0 4 0;
#X connect 42 0 43 0;
#X connect 43 0 40 1;
#X connect 45 0 64 0;
#X connect 45 0 65 0;
#X connect 46 0 47 0;
#X connect 47 0 44 1;
#X connect 48 0 84 0;
#X connect 52 0 33 0;
#X connect 53 0 38 0;
#X connect 54 0 42 0;
#X connect 55 0 46 0;
#X connect 60 0 2 0;
#X connect 61 0 4 0;
#X connect 62 0 2 0;
#X connect 63 0 4 0;
#X connect 64 0 2 0;
#X connect 65 0 4 0;
#X connect 66 0 2 0;
#X connect 67 0 4 0;
#X connect 68 0 76 0;
#X connect 69 0 68 0;
#X connect 70 0 72 0;
#X connect 71 0 72 1;
#X connect 71 0 70 1;
#X connect 71 0 73 1;
#X connect 72 0 73 0;
#X connect 75 0 70 0;
#X connect 76 0 77 0;
#X connect 77 0 75 0;
#X connect 78 0 30 0;
#X connect 79 0 35 0;
#X connect 80 0 11 0;
#X connect 81 0 44 0;
#X connect 82 0 26 0;
#X connect 83 0 40 0;
#X connect 86 0 74 0;
#X connect 87 0 86 0;
#X connect 87 0 88 0;
