#N canvas -32 -10 1920 989 12;
#X obj 171 48 adc~ 1 2;
#X obj 66 517 *~;
#X obj 199 519 *~;
#X msg 114 369 \$1 10;
#X msg 220 374 \$1 10;
#X obj 222 339 + 0.75;
#X obj 246 221 / 4;
#X obj 243 197 snapshot~;
#X obj 246 245 abs;
#X obj 472 153 metro 48;
#X obj 316 132 osc~;
#X obj 604 537 f;
#X obj 603 604 - 10;
#X obj 536 81 r Ctrl1 @hv_param;
#X obj 536 153 mtof;
#X obj 654 197 random;
#X obj 715 101 bng 19 250 50 0 empty empty empty 0 -10 0 12 #fcfcfc #000000 #000000;
#X obj 721 197 random;
#X obj 799 197 random;
#X obj 654 221 + 24;
#X obj 722 222 + 24;
#X obj 799 221 + 24;
#X obj 606 462 r Ctrl2 @hv_param;
#X obj 815 645 r Ctrl3 @hv_param;
#X obj 1176 51 r Ctrl4 @hv_param;
#X obj 1489 70 r Cv_5 @hv_param;
#X obj 796 725 *~;
#X obj 815 669 * 0.998;
#X obj 815 693 + 0.001;
#X obj 655 271 sig~;
#X obj 654 316 +~;
#X obj 723 296 osc~;
#X obj 723 320 *~;
#X obj 783 315 *~;
#X obj 852 246 + 1;
#X msg 340 73 0;
#X obj 606 486 * 2000;
#X obj 606 510 + 10;
#X obj 775 456 *~;
#X obj 538 177 / 100;
#X obj 604 145 - 10;
#X obj 939 186 random 500;
#X obj 939 210 + 50;
#X msg 939 234 0.5 \$1;
#X obj 939 258 line 0 3;
#X obj 939 282 sel 0;
#X obj 939 306 bng 19 250 50 0 empty empty empty 0 -10 0 12 #fcfcfc #000000 #000000;
#X obj 939 330 spigot;
#X obj 939 354 bng 19 250 50 0 empty empty empty 0 -10 0 12 #fcfcfc #000000 #000000;
#X obj 939 378 delay 200;
#X msg 995 295 0;
#X obj 995 319 tgl 19 0 empty empty empty 0 -10 0 12 #fcfcfc #000000 #000000 0 1;
#X msg 1038 294 1;
#X obj 982 211 delay 100;
#X obj 1082 196 delay 5;
#X obj 1082 220 delay;
#X obj 1082 244 random 3000;
#X obj 1082 268 + 100;
#X msg 1082 292 0 \$1;
#X obj 1167 210 random;
#X obj 1228 114 bng 19 250 50 0 empty empty empty 0 -10 0 12 #fcfcfc #000000 #000000;
#X obj 1234 210 random;
#X obj 1312 210 random;
#X obj 1167 234 + 24;
#X obj 1235 235 + 24;
#X obj 1312 234 + 24;
#X obj 1169 294 sig~;
#X obj 1167 329 +~;
#X obj 1234 311 osc~;
#X obj 1234 335 *~;
#X obj 1296 328 *~;
#X obj 1365 259 + 1;
#X obj 922 456 *~;
#X obj 1452 199 random 500;
#X obj 1452 223 + 50;
#X msg 1452 247 0.5 \$1;
#X obj 1452 271 line 0 3;
#X obj 1452 295 sel 0;
#X obj 1452 319 bng 19 250 50 0 empty empty empty 0 -10 0 12 #fcfcfc #000000 #000000;
#X obj 1452 343 spigot;
#X obj 1452 367 bng 19 250 50 0 empty empty empty 0 -10 0 12 #fcfcfc #000000 #000000;
#X obj 1452 391 delay 200;
#X msg 1508 308 0;
#X obj 1508 332 tgl 19 0 empty empty empty 0 -10 0 12 #fcfcfc #000000 #000000 0 1;
#X msg 1551 307 1;
#X obj 1495 224 delay 100;
#X obj 1595 209 delay 5;
#X obj 1595 233 delay;
#X obj 1595 257 random 3000;
#X obj 1595 281 + 100;
#X msg 1595 305 0 \$1;
#X obj 1674 371 osc~;
#X obj 1669 415 *~;
#X obj 701 392 +~;
#X obj 701 416 cos~;
#X obj 654 340 phasor~;
#X obj 1167 353 phasor~;
#X obj 1068 392 +~;
#X obj 1068 416 cos~;
#X obj 536 105 * 127;
#X obj 536 130 + 0.01;
#X obj 621 248 mtof;
#X obj 712 259 mtof;
#X obj 775 273 mtof;
#X obj 1174 266 mtof;
#X obj 1257 264 mtof;
#X obj 1311 269 mtof;
#X obj 643 759 delread~ delay 1000;
#X obj 474 760 delread~ delay 1100;
#X obj 794 755 delwrite~ delay 900;
#X obj 1489 118 + 1;
#X obj 1489 94 * 31;
#X obj 1614 68 r Cv_6 @hv_param;
#X obj 384 26 change;
#X obj 775 480 lop~, f 15;
#X obj 922 480 lop~, f 15;
#X obj 1096 82 * 30;
#X obj 1095 107 + 1;
#X obj 852 198 random;
#X obj 1366 211 random;
#X obj 1744 71 r Cv_7 @hv_param;
#X obj 1744 95 >= 0;
#X obj 1744 119 change;
#X obj 384 50 sel 1;
#X obj 384 74 bng 19 250 50 0 empty empty empty 0 -10 0 12 #fcfcfc #000000 #000000;
#X obj 384 98 change;
#X obj 384 122 bng 19 250 50 0 empty empty empty 0 -10 0 12 #fcfcfc #000000 #000000;
#X obj 221 409 line~;
#X obj 221 433 cos~;
#X obj 115 404 line~;
#X obj 115 428 cos~;
#X obj 1023 841 *~;
#X obj 1156 843 *~;
#X msg 1071 693 \$1 10;
#X msg 1177 698 \$1 10;
#X obj 1179 663 + 0.75;
#X obj 1203 545 / 4;
#X obj 1200 521 snapshot~;
#X obj 1203 569 abs;
#X obj 1218 853 *~;
#X obj 1351 855 *~;
#X msg 1266 705 \$1 10;
#X msg 1372 710 \$1 10;
#X obj 1374 675 + 0.75;
#X obj 1343 551 * -1;
#X obj 1178 733 line~;
#X obj 1267 740 line~;
#X obj 1373 745 line~;
#X obj 1373 769 cos~;
#X obj 1267 764 cos~;
#X obj 1178 757 cos~;
#X obj 1072 728 line~;
#X obj 1072 752 cos~;
#X obj 332 208 osc~;
#X msg 356 149 0.25;
#X obj 1655 344 *~;
#X obj 1315 383 +~;
#X obj 1315 407 /~ 2;
#X obj 610 917 *~;
#X obj 1176 75 * 1;
#X obj 647 918 *~;
#X obj 536 282 +;
#X obj 536 306 +;
#X obj 536 330 / 3;
#X obj 557 426 osc~;
#X obj 1068 440 *~;
#X obj 773 409 *~;
#X obj 579 284 +;
#X obj 579 308 +;
#X obj 579 332 / 3;
#X obj 600 428 osc~;
#X obj 504 370 / 1000;
#X obj 579 356 / 1000;
#X obj 610 941 dac~ 1 2;
#X connect 0 0 109 0;
#X connect 0 0 158 0;
#X connect 0 0 160 0;
#X connect 0 1 109 0;
#X connect 0 1 1 0;
#X connect 0 1 2 0;
#X connect 1 0 158 0;
#X connect 2 0 160 0;
#X connect 3 0 129 0;
#X connect 4 0 127 0;
#X connect 5 0 4 0;
#X connect 6 0 8 0;
#X connect 7 0 6 0;
#X connect 8 0 5 0;
#X connect 8 0 3 0;
#X connect 9 0 7 0;
#X connect 10 0 7 0;
#X connect 11 0 12 0;
#X connect 11 0 108 0;
#X connect 12 0 107 0;
#X connect 13 0 99 0;
#X connect 14 0 39 0;
#X connect 15 0 19 0;
#X connect 16 0 15 0;
#X connect 16 0 17 0;
#X connect 16 0 18 0;
#X connect 16 0 53 0;
#X connect 16 0 54 0;
#X connect 16 0 41 0;
#X connect 16 0 118 0;
#X connect 17 0 20 0;
#X connect 18 0 21 0;
#X connect 19 0 101 0;
#X connect 20 0 102 0;
#X connect 21 0 103 0;
#X connect 22 0 36 0;
#X connect 23 0 27 0;
#X connect 24 0 116 0;
#X connect 24 0 159 0;
#X connect 25 0 111 0;
#X connect 26 0 109 0;
#X connect 27 0 28 0;
#X connect 28 0 26 1;
#X connect 29 0 30 0;
#X connect 29 0 33 0;
#X connect 30 0 95 0;
#X connect 31 0 32 0;
#X connect 32 0 30 1;
#X connect 32 0 156 0;
#X connect 33 0 32 1;
#X connect 34 0 33 1;
#X connect 35 0 10 1;
#X connect 36 0 37 0;
#X connect 37 0 11 0;
#X connect 38 0 114 0;
#X connect 39 0 10 0;
#X connect 39 0 153 0;
#X connect 40 0 15 1;
#X connect 40 0 17 1;
#X connect 40 0 18 1;
#X connect 40 0 59 1;
#X connect 40 0 62 1;
#X connect 40 0 61 1;
#X connect 41 0 42 0;
#X connect 42 0 43 0;
#X connect 42 0 55 1;
#X connect 43 0 44 0;
#X connect 44 0 45 0;
#X connect 44 0 38 1;
#X connect 45 0 46 0;
#X connect 46 0 47 0;
#X connect 47 0 48 0;
#X connect 48 0 49 0;
#X connect 48 0 50 0;
#X connect 49 0 16 0;
#X connect 50 0 51 0;
#X connect 51 0 47 1;
#X connect 52 0 51 0;
#X connect 53 0 52 0;
#X connect 54 0 55 0;
#X connect 55 0 56 0;
#X connect 56 0 57 0;
#X connect 57 0 58 0;
#X connect 58 0 44 0;
#X connect 59 0 63 0;
#X connect 60 0 59 0;
#X connect 60 0 61 0;
#X connect 60 0 62 0;
#X connect 60 0 85 0;
#X connect 60 0 86 0;
#X connect 60 0 73 0;
#X connect 60 0 119 0;
#X connect 61 0 64 0;
#X connect 62 0 65 0;
#X connect 63 0 104 0;
#X connect 64 0 105 0;
#X connect 65 0 106 0;
#X connect 66 0 67 0;
#X connect 66 0 70 0;
#X connect 67 0 96 0;
#X connect 68 0 69 0;
#X connect 69 0 67 1;
#X connect 69 0 156 0;
#X connect 70 0 69 1;
#X connect 71 0 70 1;
#X connect 72 0 115 0;
#X connect 73 0 74 0;
#X connect 74 0 75 0;
#X connect 74 0 87 1;
#X connect 75 0 76 0;
#X connect 76 0 77 0;
#X connect 76 0 72 1;
#X connect 77 0 78 0;
#X connect 78 0 79 0;
#X connect 79 0 80 0;
#X connect 80 0 81 0;
#X connect 80 0 82 0;
#X connect 81 0 60 0;
#X connect 82 0 83 0;
#X connect 83 0 79 1;
#X connect 84 0 83 0;
#X connect 85 0 84 0;
#X connect 86 0 87 0;
#X connect 87 0 88 0;
#X connect 88 0 89 0;
#X connect 89 0 90 0;
#X connect 90 0 76 0;
#X connect 91 0 92 0;
#X connect 92 0 97 1;
#X connect 92 0 93 1;
#X connect 93 0 94 0;
#X connect 94 0 166 0;
#X connect 95 0 93 0;
#X connect 96 0 97 0;
#X connect 97 0 98 0;
#X connect 98 0 165 0;
#X connect 99 0 100 0;
#X connect 100 0 14 0;
#X connect 100 0 40 0;
#X connect 101 0 29 0;
#X connect 101 0 161 0;
#X connect 102 0 31 0;
#X connect 102 0 161 1;
#X connect 103 0 114 1;
#X connect 103 0 162 1;
#X connect 104 0 66 0;
#X connect 104 0 167 0;
#X connect 105 0 68 0;
#X connect 105 0 167 1;
#X connect 106 0 115 1;
#X connect 106 0 168 1;
#X connect 107 0 160 0;
#X connect 108 0 26 0;
#X connect 108 0 158 0;
#X connect 110 0 155 1;
#X connect 111 0 110 0;
#X connect 112 0 92 1;
#X connect 113 0 16 0;
#X connect 113 0 60 0;
#X connect 113 0 35 0;
#X connect 113 0 123 0;
#X connect 113 0 154 0;
#X connect 114 0 109 0;
#X connect 114 0 131 0;
#X connect 114 0 132 0;
#X connect 115 0 109 0;
#X connect 115 0 139 0;
#X connect 115 0 140 0;
#X connect 116 0 117 0;
#X connect 117 0 118 1;
#X connect 117 0 119 1;
#X connect 118 0 34 0;
#X connect 119 0 71 0;
#X connect 120 0 121 0;
#X connect 121 0 122 0;
#X connect 122 0 113 0;
#X connect 123 0 124 0;
#X connect 124 0 125 0;
#X connect 125 0 126 0;
#X connect 126 0 9 0;
#X connect 127 0 128 0;
#X connect 128 0 2 1;
#X connect 129 0 130 0;
#X connect 130 0 1 1;
#X connect 131 0 158 0;
#X connect 132 0 160 0;
#X connect 133 0 151 0;
#X connect 134 0 145 0;
#X connect 135 0 134 0;
#X connect 136 0 138 0;
#X connect 137 0 136 0;
#X connect 138 0 135 0;
#X connect 138 0 133 0;
#X connect 138 0 144 0;
#X connect 139 0 158 0;
#X connect 140 0 160 0;
#X connect 141 0 146 0;
#X connect 142 0 147 0;
#X connect 143 0 142 0;
#X connect 144 0 141 0;
#X connect 144 0 143 0;
#X connect 145 0 150 0;
#X connect 146 0 149 0;
#X connect 147 0 148 0;
#X connect 148 0 140 1;
#X connect 149 0 139 1;
#X connect 150 0 132 1;
#X connect 151 0 152 0;
#X connect 152 0 131 1;
#X connect 153 0 137 0;
#X connect 154 0 153 1;
#X connect 155 0 91 0;
#X connect 156 0 157 0;
#X connect 157 0 155 0;
#X connect 158 0 173 0;
#X connect 159 0 160 1;
#X connect 159 0 158 1;
#X connect 160 0 173 1;
#X connect 161 0 162 0;
#X connect 162 0 163 0;
#X connect 163 0 171 0;
#X connect 164 0 165 1;
#X connect 165 0 72 0;
#X connect 166 0 38 0;
#X connect 167 0 168 0;
#X connect 168 0 169 0;
#X connect 169 0 172 0;
#X connect 170 0 166 1;
#X connect 171 0 164 0;
#X connect 172 0 170 0;
