#N canvas 1871 80 1920 989 12;
#X obj 219 129 r ctrl1 @hv_param;
#X obj 1628 750 r ctrl4 @hv_param;
#X obj 572 129 r ctrl3 @hv_param;
#X obj 1606 290 r ctrl2 @hv_param;
#X obj 217 772 *~;
#X msg 395 508 0;
#X obj 22 581 osc~;
#X obj 260 580 phasor~;
#X obj 168 584 phasor~;
#X obj 104 581 phasor~;
#X obj 124 769 *~;
#X obj 168 610 *~ 2;
#X obj 168 634 -~ 1;
#X obj 260 637 -~ -1;
#X obj 260 613 *~ -2;
#X obj 235 659 clip~ 0 1;
#X obj 166 659 clip~ 0 1;
#X obj 272 689 +~;
#X obj 178 688 -~ 1;
#X obj 217 718 -~ 1;
#X obj 217 742 +~ 1;
#X obj 412 453 loadbang;
#X msg 441 510 0.5;
#X obj 339 639 +~;
#X obj 326 582 phasor~;
#X obj 395 546 phasor~;
#X obj 382 674 -~ 1;
#X obj 340 667 -~ 1;
#X obj 382 570 * -1;
#X obj 340 774 *~;
#X obj 46 772 *~;
#X obj 751 100 r cv_7 @hv_param;
#X obj 1605 233 r cv_6 @hv_param;
#X obj 218 72 r cv_5 @hv_param;
#X obj 223 838 *~;
#X obj 1441 389 *~;
#X obj 1438 447 clip~ -20 -1;
#X obj 1438 471 *~ -1;
#X obj 1538 453 clip~ -1 1;
#X obj 1664 446 clip~ 1 20;
#X obj 1664 470 *~ -1;
#X obj 1529 553 +~;
#X obj 1529 577 *~ 1;
#X obj 1435 626 clip~ -20 -1;
#X obj 1435 650 *~ -1;
#X obj 1535 632 clip~ -1 1;
#X obj 1661 625 clip~ 1 20;
#X obj 1661 649 *~ -1;
#X obj 1561 708 +~;
#X obj 1270 915 dac~ 1 2, f 9;
#X obj 1227 286 +~;
#X obj 1268 814 *~;
#X obj 1340 820 *~;
#X text 275 32 coarse;
#X text 609 41 wavesel;
#X text 1672 719 master;
#X obj 1546 390 + 1;
#X obj 1546 366 * 3;
#X obj 1434 891 / 120;
#X obj 1434 808 env~;
#X obj 1485 805 env~;
#X obj 1434 832 +;
#X obj 1434 856 / 2;
#X obj 1434 915 s cvout1 @hv_param;
#X obj 1601 918 s cvout2 @hv_param;
#X msg 497 554 \$1 100;
#X obj 497 578 line;
#X msg 556 554 \$1 100;
#X obj 556 578 line;
#X msg 614 554 \$1 100;
#X obj 614 578 line;
#X msg 673 554 \$1 100;
#X obj 673 578 line;
#X obj 591 331 int;
#X obj 662 470 == 3;
#X obj 603 470 == 2;
#X obj 554 470 == 1;
#X obj 498 471 == 0;
#X text 1638 194 fold+rm amount;
#X obj 1344 365 -;
#X obj 1344 341 + 1;
#X obj 1336 301 t b f;
#X obj 1322 194 *~;
#X obj 923 777 *~;
#X obj 770 586 osc~;
#X obj 966 585 phasor~;
#X obj 874 589 phasor~;
#X obj 810 586 phasor~;
#X obj 830 774 *~;
#X obj 874 615 *~ 2;
#X obj 874 639 -~ 1;
#X obj 966 642 -~ -1;
#X obj 966 618 *~ -2;
#X obj 941 664 clip~ 0 1;
#X obj 872 664 clip~ 0 1;
#X obj 978 694 +~;
#X obj 884 693 -~ 1;
#X obj 923 723 -~ 1;
#X obj 923 747 +~ 1;
#X obj 1045 644 +~;
#X obj 1032 573 phasor~;
#X obj 1101 551 phasor~;
#X obj 1088 679 -~ 1;
#X obj 1046 672 -~ 1;
#X obj 1088 575 * -1;
#X obj 1046 779 *~;
#X obj 752 777 *~;
#X obj 929 843 *~;
#X obj 226 317 catch~ \$0-a;
#X obj 223 862 throw~ \$0-b;
#X obj 872 317 catch~ \$0-b;
#X obj 929 867 throw~ \$0-a;
#X obj 407 228 * 127;
#X obj 407 252 int;
#X obj 405 324 mtof;
#X obj 1198 180 *~;
#X obj 1365 240 *~;
#X obj 415 286 +;
#X obj 478 116 * 63;
#X obj 401 78 - 0.5;
#X obj 751 124 - 0.5;
#X obj 751 148 * 2;
#X obj 594 276 +;
#X obj 1508 210 - 0.5;
#X obj 1508 234 * 2;
#X obj 1606 314 +;
#X obj 594 252 * 3;
#X obj 751 220 vsl 19 162 0 1 0 0 empty empty empty 0 -9 0 12 #fcfcfc #000000 #000000 0 1;
#X connect 0 0 112 0;
#X connect 1 0 51 1;
#X connect 1 0 52 1;
#X connect 2 0 126 0;
#X connect 3 0 125 0;
#X connect 4 0 34 0;
#X connect 5 0 8 1;
#X connect 5 0 24 1;
#X connect 5 0 9 1;
#X connect 5 0 6 1;
#X connect 5 0 87 1;
#X connect 5 0 100 1;
#X connect 5 0 86 1;
#X connect 5 0 84 1;
#X connect 6 0 30 0;
#X connect 7 0 14 0;
#X connect 8 0 11 0;
#X connect 9 0 10 0;
#X connect 10 0 34 0;
#X connect 11 0 12 0;
#X connect 12 0 16 0;
#X connect 13 0 15 0;
#X connect 14 0 13 0;
#X connect 15 0 17 0;
#X connect 16 0 17 0;
#X connect 17 0 18 0;
#X connect 17 0 19 0;
#X connect 18 0 19 0;
#X connect 19 0 20 0;
#X connect 20 0 4 0;
#X connect 21 0 22 0;
#X connect 21 0 5 0;
#X connect 22 0 25 1;
#X connect 22 0 7 1;
#X connect 22 0 85 1;
#X connect 22 0 101 1;
#X connect 23 0 26 0;
#X connect 23 0 27 0;
#X connect 24 0 23 0;
#X connect 25 0 23 1;
#X connect 26 0 29 0;
#X connect 27 0 26 0;
#X connect 28 0 25 0;
#X connect 29 0 34 0;
#X connect 30 0 34 0;
#X connect 31 0 120 0;
#X connect 32 0 123 0;
#X connect 33 0 119 0;
#X connect 34 0 109 0;
#X connect 34 0 82 0;
#X connect 34 0 115 0;
#X connect 35 0 36 0;
#X connect 35 0 38 0;
#X connect 35 0 39 0;
#X connect 36 0 37 0;
#X connect 37 0 41 0;
#X connect 38 0 41 0;
#X connect 39 0 40 0;
#X connect 40 0 41 0;
#X connect 41 0 42 0;
#X connect 42 0 45 0;
#X connect 42 0 46 0;
#X connect 42 0 43 0;
#X connect 43 0 44 0;
#X connect 44 0 48 0;
#X connect 45 0 48 0;
#X connect 46 0 47 0;
#X connect 47 0 48 0;
#X connect 48 0 52 0;
#X connect 50 0 35 0;
#X connect 50 0 51 0;
#X connect 51 0 49 0;
#X connect 51 0 59 0;
#X connect 52 0 49 1;
#X connect 52 0 60 0;
#X connect 56 0 35 1;
#X connect 57 0 56 0;
#X connect 58 0 63 0;
#X connect 58 0 64 0;
#X connect 59 0 61 0;
#X connect 60 0 61 1;
#X connect 61 0 62 0;
#X connect 62 0 58 0;
#X connect 65 0 66 0;
#X connect 66 0 30 1;
#X connect 66 0 106 1;
#X connect 67 0 68 0;
#X connect 68 0 10 1;
#X connect 68 0 88 1;
#X connect 69 0 70 0;
#X connect 70 0 4 1;
#X connect 70 0 83 1;
#X connect 71 0 72 0;
#X connect 72 0 29 1;
#X connect 72 0 105 1;
#X connect 73 0 74 0;
#X connect 73 0 75 0;
#X connect 73 0 76 0;
#X connect 73 0 77 0;
#X connect 74 0 71 0;
#X connect 75 0 69 0;
#X connect 76 0 67 0;
#X connect 77 0 65 0;
#X connect 79 0 115 1;
#X connect 80 0 79 0;
#X connect 81 0 80 0;
#X connect 81 1 79 1;
#X connect 81 1 116 1;
#X connect 82 0 116 0;
#X connect 83 0 107 0;
#X connect 84 0 106 0;
#X connect 85 0 92 0;
#X connect 86 0 89 0;
#X connect 87 0 88 0;
#X connect 88 0 107 0;
#X connect 89 0 90 0;
#X connect 90 0 94 0;
#X connect 91 0 93 0;
#X connect 92 0 91 0;
#X connect 93 0 95 0;
#X connect 94 0 95 0;
#X connect 95 0 96 0;
#X connect 95 0 97 0;
#X connect 96 0 97 0;
#X connect 97 0 98 0;
#X connect 98 0 83 0;
#X connect 99 0 102 0;
#X connect 99 0 103 0;
#X connect 100 0 99 0;
#X connect 101 0 99 1;
#X connect 102 0 105 0;
#X connect 103 0 102 0;
#X connect 104 0 101 0;
#X connect 105 0 107 0;
#X connect 106 0 107 0;
#X connect 107 0 111 0;
#X connect 107 0 115 0;
#X connect 107 0 82 1;
#X connect 108 0 9 0;
#X connect 108 0 6 0;
#X connect 108 0 24 0;
#X connect 108 0 8 0;
#X connect 108 0 7 0;
#X connect 110 0 87 0;
#X connect 110 0 84 0;
#X connect 110 0 100 0;
#X connect 110 0 86 0;
#X connect 110 0 85 0;
#X connect 112 0 113 0;
#X connect 113 0 117 0;
#X connect 114 0 107 1;
#X connect 114 0 34 1;
#X connect 116 0 50 0;
#X connect 117 0 114 0;
#X connect 118 0 117 1;
#X connect 119 0 118 0;
#X connect 120 0 121 0;
#X connect 121 0 122 1;
#X connect 122 0 73 0;
#X connect 123 0 124 0;
#X connect 124 0 125 1;
#X connect 125 0 57 0;
#X connect 125 0 81 0;
#X connect 126 0 122 0;
#X connect 127 0 126 0;
